SplineFontDB: 3.2
FontName: Inconsolata-Arrows-Bold
FullName: Inconsolata Arrows Bold
FamilyName: Inconsolata Arrows
Weight: Bold
Copyright: Copyright 2006 The Inconsolata Project Authors (https://github.com/cyrealtype/Inconsolata)\nProgramming ligatures added by Ilya Skriblovsky from FiraCode\nFiraCode Copyright (c) 2015 by Nikita Prokopov\nArrows and minor glyph tweaks by Robert Boyd III Copyright (c) 2021
Version: 3.000; ttfautohint (v1.8.3)
ItalicAngle: 0
UnderlinePosition: -175
UnderlineWidth: 50
Ascent: 800
Descent: 200
InvalidEm: 0
sfntRevision: 0x00030000
LayerCount: 2
Layer: 0 1 "Back" 1
Layer: 1 1 "Fore" 0
XUID: [1021 511 82745506 6625398]
StyleMap: 0x0020
FSType: 0
OS2Version: 4
OS2_WeightWidthSlopeOnly: 0
OS2_UseTypoMetrics: 1
CreationTime: 1576097233
ModificationTime: 1639857447
PfmFamily: 81
TTFWeight: 700
TTFWidth: 5
LineGap: 0
VLineGap: 0
Panose: 0 0 0 0 0 0 0 0 0 0
OS2TypoAscent: 859
OS2TypoAOffset: 0
OS2TypoDescent: -190
OS2TypoDOffset: 0
OS2TypoLinegap: 0
OS2WinAscent: 1004
OS2WinAOffset: 0
OS2WinDescent: 454
OS2WinDOffset: 0
HheadAscent: 859
HheadAOffset: 0
HheadDescent: -190
HheadDOffset: 0
OS2SubXSize: 650
OS2SubYSize: 600
OS2SubXOff: 0
OS2SubYOff: 75
OS2SupXSize: 650
OS2SupYSize: 600
OS2SupXOff: 0
OS2SupYOff: 350
OS2StrikeYSize: 50
OS2StrikeYPos: 279
OS2CapHeight: 623
OS2XHeight: 465
OS2Vendor: 'CYRE'
OS2CodePages: 60000193.cdd40000
OS2UnicodeRanges: a00000ff.0000f9eb.00000020.00000000
Lookup: 1 0 0 "'rtla' Right to Left Alternates lookup 0" { "'rtla' Right to Left Alternates lookup 0 subtable"  } ['rtla' ('DFLT' <'dflt' > ) ]
Lookup: 254 0 0 "<2,2> Cursive lookup 1" { "<2,2> Cursive lookup 1 subtable"  } [<2,2> ('DFLT' <'dflt' > ) ]
Lookup: 254 0 0 "<2,2> Cursive lookup 2" { "<2,2> Cursive lookup 2 subtable"  } [<2,2> ('DFLT' <'dflt' > ) ]
Lookup: 254 0 0 "<2,2> Cursive lookup 3" { "<2,2> Cursive lookup 3 subtable"  } [<2,2> ('DFLT' <'dflt' > ) ]

StartChar: exclam
Encoding: 33 33 6
Width: 500
Flags: W
LayerCount: 2
Fore
SplineSet
200 208 m 1,0,-1
 173 583 l 2,1,2
 170 628 170 628 191 649 c 128,-1,3
 212 670 212 670 241 670 c 256,4,5
 270 670 270 670 291 649.5 c 128,-1,6
 312 629 312 629 309 579 c 2,7,-1
 280 208 l 1,8,-1
 200 208 l 1,0,-1
239 -10 m 0,9,10
 206 -10 206 -10 183 11.5 c 128,-1,11
 160 33 160 33 160 64 c 256,12,13
 160 95 160 95 183 118 c 128,-1,14
 206 141 206 141 239 141 c 0,15,16
 273 141 273 141 296.5 117.5 c 128,-1,17
 320 94 320 94 320 64 c 256,18,19
 320 34 320 34 295.5 12 c 128,-1,20
 271 -10 271 -10 239 -10 c 0,9,10
EndSplineSet
Substitution2: "<2,2> Cursive lookup 17 nested-substitutions 0 subtable" CR.10.1
EndChar

StartChar: numbersign
Encoding: 35 35 8
Width: 500
Flags: W
LayerCount: 2
Fore
SplineSet
257 8 m 1,0,-1
 278 171 l 1,1,-1
 194 171 l 1,2,-1
 174 13 l 1,3,-1
 84 12 l 1,4,-1
 103 169 l 1,5,-1
 15 169 l 1,6,-1
 21 246 l 1,7,-1
 112 246 l 1,8,-1
 129 384 l 1,9,-1
 29 384 l 1,10,-1
 34 462 l 1,11,-1
 137 462 l 1,12,-1
 156 625 l 1,13,-1
 248 627 l 1,14,-1
 228 464 l 1,15,-1
 310 464 l 1,16,-1
 329 623 l 1,17,-1
 425 624 l 1,18,-1
 406 466 l 1,19,-1
 487 466 l 1,20,-1
 478 387 l 1,21,-1
 398 387 l 1,22,-1
 380 251 l 1,23,-1
 467 251 l 1,24,-1
 462 174 l 1,25,-1
 373 174 l 1,26,-1
 352 13 l 1,27,-1
 257 8 l 1,0,-1
202 248 m 1,28,-1
 285 248 l 1,29,-1
 303 385 l 1,30,-1
 219 385 l 1,31,-1
 202 248 l 1,28,-1
EndSplineSet
EndChar

StartChar: dollar
Encoding: 36 36 9
Width: 500
Flags: W
LayerCount: 2
Fore
SplineSet
233 -45 m 1,0,-1
 233 10 l 1,1,2
 184 14 184 14 135.5 34 c 128,-1,3
 87 54 87 54 52 89 c 1,4,-1
 104 175 l 1,5,6
 113 171 113 171 114.5 162 c 128,-1,7
 116 153 116 153 123 146 c 0,8,9
 144 125 144 125 171.5 112.5 c 128,-1,10
 199 100 199 100 230 95 c 1,11,-1
 230 276 l 1,12,13
 151 306 151 306 108.5 344.5 c 128,-1,14
 66 383 66 383 66 445 c 0,15,16
 66 485 66 485 89 516 c 128,-1,17
 112 547 112 547 150 566.5 c 128,-1,18
 188 586 188 586 233 592 c 1,19,-1
 233 651 l 1,20,-1
 305 651 l 2,21,22
 309 649 309 649 309 644 c 0,23,24
 309 641 309 641 306 634 c 128,-1,25
 303 627 303 627 303 618 c 2,26,-1
 303 593 l 1,27,28
 347 587 347 587 387 567.5 c 128,-1,29
 427 548 427 548 455 514 c 1,30,-1
 403 448 l 1,31,32
 392 449 392 449 390 458 c 128,-1,33
 388 467 388 467 383 470 c 0,34,35
 370 485 370 485 349 494 c 128,-1,36
 328 503 328 503 306 507 c 1,37,-1
 306 350 l 1,38,39
 392 319 392 319 431.5 282.5 c 128,-1,40
 471 246 471 246 471 182 c 0,41,42
 471 143 471 143 450 106 c 128,-1,43
 429 69 429 69 391 43 c 128,-1,44
 353 17 353 17 303 11 c 1,45,-1
 303 -45 l 1,46,-1
 233 -45 l 1,0,-1
230 377 m 1,47,-1
 230 508 l 1,48,49
 201 503 201 503 181 488.5 c 128,-1,50
 161 474 161 474 161 450 c 0,51,52
 161 428 161 428 179.5 409.5 c 128,-1,53
 198 391 198 391 230 377 c 1,47,-1
306 97 m 1,54,55
 337 104 337 104 357.5 127 c 128,-1,56
 378 150 378 150 378 177 c 0,57,58
 378 205 378 205 358.5 223.5 c 128,-1,59
 339 242 339 242 306 254 c 1,60,-1
 306 97 l 1,54,55
EndSplineSet
EndChar

StartChar: percent
Encoding: 37 37 10
Width: 500
Flags: W
LayerCount: 2
Fore
SplineSet
138 366 m 0,0,1
 106 366 106 366 79 383.5 c 128,-1,2
 52 401 52 401 35.5 431.5 c 128,-1,3
 19 462 19 462 19 500 c 256,4,5
 19 538 19 538 35.5 568 c 128,-1,6
 52 598 52 598 79 616 c 128,-1,7
 106 634 106 634 138 634 c 0,8,9
 171 634 171 634 198 616 c 128,-1,10
 225 598 225 598 241 567.5 c 128,-1,11
 257 537 257 537 257 499 c 0,12,13
 257 441 257 441 223 403.5 c 128,-1,14
 189 366 189 366 138 366 c 0,0,1
35 0 m 1,15,-1
 385 623 l 1,16,-1
 469 623 l 1,17,-1
 116 0 l 1,18,-1
 35 0 l 1,15,-1
138 436 m 256,19,20
 157 436 157 436 168.5 452.5 c 128,-1,21
 180 469 180 469 180 500 c 0,22,23
 180 530 180 530 168 547.5 c 128,-1,24
 156 565 156 565 137 565 c 0,25,26
 119 565 119 565 107.5 547.5 c 128,-1,27
 96 530 96 530 96 500 c 0,28,29
 96 469 96 469 107.5 452.5 c 128,-1,30
 119 436 119 436 138 436 c 256,19,20
367 -10 m 0,31,32
 335 -10 335 -10 308 7.5 c 128,-1,33
 281 25 281 25 264.5 55.5 c 128,-1,34
 248 86 248 86 248 124 c 0,35,36
 248 161 248 161 264.5 191.5 c 128,-1,37
 281 222 281 222 308 239.5 c 128,-1,38
 335 257 335 257 367 257 c 0,39,40
 400 257 400 257 427 239 c 128,-1,41
 454 221 454 221 470 190.5 c 128,-1,42
 486 160 486 160 486 123 c 0,43,44
 486 65 486 65 451.5 27.5 c 128,-1,45
 417 -10 417 -10 367 -10 c 0,31,32
368 59 m 0,46,47
 387 59 387 59 398.5 76 c 128,-1,48
 410 93 410 93 410 123 c 0,49,50
 410 150 410 150 399 169 c 128,-1,51
 388 188 388 188 367 188 c 0,52,53
 348 188 348 188 336 171 c 128,-1,54
 324 154 324 154 324 124 c 0,55,56
 324 93 324 93 336 76 c 128,-1,57
 348 59 348 59 368 59 c 0,46,47
EndSplineSet
EndChar

StartChar: ampersand
Encoding: 38 38 11
Width: 500
Flags: W
LayerCount: 2
Fore
SplineSet
400 -14 m 1,0,-1
 351 60 l 1,1,2
 321 26 321 26 281 7.5 c 128,-1,3
 241 -11 241 -11 196 -11 c 0,4,5
 144 -11 144 -11 107 10 c 128,-1,6
 70 31 70 31 49.5 67 c 128,-1,7
 29 103 29 103 29 148 c 0,8,9
 29 208 29 208 58 258.5 c 128,-1,10
 87 309 87 309 143 344 c 1,11,12
 110 383 110 383 95.5 419.5 c 128,-1,13
 81 456 81 456 81 495 c 256,14,15
 81 534 81 534 102 564.5 c 128,-1,16
 123 595 123 595 157 613 c 128,-1,17
 191 631 191 631 230 631 c 0,18,19
 273 631 273 631 304.5 611.5 c 128,-1,20
 336 592 336 592 353.5 561 c 128,-1,21
 371 530 371 530 371 495 c 0,22,23
 371 435 371 435 343 393 c 128,-1,24
 315 351 315 351 273 321 c 1,25,-1
 363 196 l 1,26,27
 378 216 378 216 389 237.5 c 128,-1,28
 400 259 400 259 401 279 c 0,29,30
 401 284 401 284 402 287.5 c 128,-1,31
 403 291 403 291 407 297 c 1,32,-1
 487 241 l 1,33,34
 471 207 471 207 454 179 c 128,-1,35
 437 151 437 151 418 127 c 1,36,-1
 474 53 l 1,37,-1
 400 -14 l 1,0,-1
220 392 m 1,38,39
 250 408 250 408 265 435 c 128,-1,40
 280 462 280 462 280 490 c 0,41,42
 280 512 280 512 267.5 529.5 c 128,-1,43
 255 547 255 547 231 547 c 0,44,45
 206 547 206 547 191.5 530 c 128,-1,46
 177 513 177 513 177 492 c 256,47,48
 177 471 177 471 187.5 445.5 c 128,-1,49
 198 420 198 420 220 392 c 1,38,39
205 77 m 0,50,51
 231 77 231 77 254 90.5 c 128,-1,52
 277 104 277 104 298 127 c 1,53,-1
 196 270 l 1,54,55
 134 226 134 226 134 158 c 0,56,57
 134 122 134 122 153 99.5 c 128,-1,58
 172 77 172 77 205 77 c 0,50,51
EndSplineSet
EndChar

StartChar: quotesingle
Encoding: 39 39 12
Width: 500
Flags: W
LayerCount: 2
Fore
SplineSet
198 665 m 1,0,-1
 302 665 l 1,1,2
 302 605 302 605 300.5 569 c 128,-1,3
 299 533 299 533 296 508.5 c 128,-1,4
 293 484 293 484 289.5 461.5 c 128,-1,5
 286 439 286 439 283 407 c 1,6,-1
 217 407 l 1,7,8
 214 439 214 439 210.5 461.5 c 128,-1,9
 207 484 207 484 204 508 c 128,-1,10
 201 532 201 532 199.5 568.5 c 128,-1,11
 198 605 198 605 198 665 c 1,0,-1
EndSplineSet
EndChar

StartChar: parenleft
Encoding: 40 40 13
Width: 500
Flags: W
LayerCount: 2
Fore
SplineSet
396 -108 m 1,0,1
 300 -67 300 -67 235 -0.5 c 128,-1,2
 170 66 170 66 136.5 148 c 128,-1,3
 103 230 103 230 103 320 c 0,4,5
 103 409 103 409 136 489.5 c 128,-1,6
 169 570 169 570 233 634 c 128,-1,7
 297 698 297 698 390 739 c 1,8,-1
 418 645 l 1,9,10
 320 594 320 594 266 512 c 128,-1,11
 212 430 212 430 212 317 c 0,12,13
 212 207 212 207 268.5 119.5 c 128,-1,14
 325 32 325 32 426 -18 c 1,15,-1
 396 -108 l 1,0,1
EndSplineSet
Substitution2: "'rtla' Right to Left Alternates lookup 0 subtable" parenright
EndChar

StartChar: asterisk
Encoding: 42 42 15
Width: 500
Flags: W
LayerCount: 2
Fore
SplineSet
155 108 m 1,0,-1
 65 180 l 1,1,-1
 187 310 l 1,2,-1
 31 355 l 1,3,-1
 71 457 l 1,4,-1
 210 382 l 1,5,-1
 188 543 l 1,6,-1
 321 543 l 1,7,-1
 293 382 l 1,8,-1
 428 450 l 1,9,-1
 469 351 l 1,10,-1
 314 311 l 1,11,-1
 432 180 l 1,12,-1
 341 109 l 1,13,-1
 250 259 l 1,14,-1
 155 108 l 1,0,-1
EndSplineSet
EndChar

StartChar: plus
Encoding: 43 43 16
Width: 500
Flags: W
LayerCount: 2
Fore
SplineSet
207 103 m 1,0,-1
 207 280 l 1,1,-1
 40 280 l 1,2,-1
 40 368 l 1,3,-1
 207 368 l 1,4,-1
 207 530 l 1,5,-1
 302 530 l 1,6,-1
 302 368 l 1,7,-1
 464 368 l 1,8,-1
 464 280 l 1,9,-1
 302 280 l 1,10,-1
 302 103 l 1,11,-1
 207 103 l 1,0,-1
EndSplineSet
EndChar

StartChar: comma
Encoding: 44 44 17
Width: 500
Flags: W
LayerCount: 2
Fore
SplineSet
213 -170 m 1,0,-1
 152 -119 l 1,1,2
 180 -93 180 -93 195 -67.5 c 128,-1,3
 210 -42 210 -42 210 -25 c 0,4,5
 210 -10 210 -10 198.5 2.5 c 128,-1,6
 187 15 187 15 175 30.5 c 128,-1,7
 163 46 163 46 163 69 c 0,8,9
 163 102 163 102 186 120 c 128,-1,10
 209 138 209 138 240 138 c 0,11,12
 279 138 279 138 302 110 c 128,-1,13
 325 82 325 82 325 38 c 0,14,15
 325 -56 325 -56 213 -170 c 1,0,-1
EndSplineSet
EndChar

StartChar: hyphen
Encoding: 45 45 18
Width: 500
Flags: W
LayerCount: 2
Fore
SplineSet
105 271 m 1,0,-1
 105 365 l 1,1,-1
 397 365 l 1,2,-1
 397 271 l 1,3,-1
 105 271 l 1,0,-1
EndSplineSet
Substitution2: "<2,2> Cursive lookup 79 nested-substitutions 0 subtable" CR.2.0
Substitution2: "<2,2> Cursive lookup 71 nested-substitutions 0 subtable" lig.3
Substitution2: "<2,2> Cursive lookup 59 nested-substitutions 0 subtable" CR.5.0
Substitution2: "<2,2> Cursive lookup 57 nested-substitutions 0 subtable" CR.5.1
Substitution2: "<2,2> Cursive lookup 33 nested-substitutions 0 subtable" CR.8.1
Substitution2: "<2,2> Cursive lookup 25 nested-substitutions 0 subtable" CR.9.1
Substitution2: "<2,2> Cursive lookup 23 nested-substitutions 0 subtable" lig.9
Substitution2: "<2,2> Cursive lookup 15 nested-substitutions 0 subtable" CR.10.2
Substitution2: "<2,2> Cursive lookup 13 nested-substitutions 0 subtable" lig.10
EndChar

StartChar: period
Encoding: 46 46 19
Width: 500
Flags: W
LayerCount: 2
Fore
SplineSet
239 -12 m 256,0,1
 208 -12 208 -12 185.5 10 c 128,-1,2
 163 32 163 32 163 63 c 256,3,4
 163 94 163 94 185.5 116 c 128,-1,5
 208 138 208 138 239 138 c 256,6,7
 270 138 270 138 292 116 c 128,-1,8
 314 94 314 94 314 63 c 256,9,10
 314 32 314 32 292 10 c 128,-1,11
 270 -12 270 -12 239 -12 c 256,0,1
EndSplineSet
EndChar

StartChar: slash
Encoding: 47 47 20
Width: 500
Flags: W
LayerCount: 2
Fore
SplineSet
150 -43 m 1,0,-1
 46 2 l 1,1,-1
 354 667 l 1,2,-1
 456 615 l 1,3,-1
 150 -43 l 1,0,-1
EndSplineSet
Substitution2: "<11,2> Diagonal Fractions lookup 89 subtable" fraction
EndChar

StartChar: zero
Encoding: 48 48 21
Width: 500
Flags: W
LayerCount: 2
Fore
SplineSet
250 -12 m 256,0,1
 152 -12 152 -12 94.5 71 c 128,-1,2
 37 154 37 154 37 308 c 0,3,4
 37 460 37 460 94.5 546 c 128,-1,5
 152 632 152 632 250 632 c 256,6,7
 348 632 348 632 405.5 546 c 128,-1,8
 463 460 463 460 463 308 c 0,9,10
 463 154 463 154 405.5 71 c 128,-1,11
 348 -12 348 -12 250 -12 c 256,0,1
142 308 m 0,12,13
 142 267 142 267 146 232 c 1,14,-1
 338 460 l 1,15,16
 311 541 311 541 250 541 c 0,17,18
 196 541 196 541 169 479.5 c 128,-1,19
 142 418 142 418 142 308 c 0,12,13
250 75 m 0,20,21
 304 75 304 75 331 135.5 c 128,-1,22
 358 196 358 196 358 308 c 0,23,24
 358 347 358 347 354 381 c 1,25,-1
 162 154 l 1,26,27
 189 75 189 75 250 75 c 0,20,21
EndSplineSet
Substitution2: "<11,2> Diagonal Fractions lookup 90 subtable" zero.numr
Substitution2: "<10,1> Superiors lookup 88 subtable" uni2070
Substitution2: "<10,2> Inferiors lookup 87 subtable" uni2080
EndChar

StartChar: one
Encoding: 49 49 22
Width: 500
Flags: W
LayerCount: 2
Fore
SplineSet
208 0 m 1,0,-1
 208 500 l 1,1,-1
 95 460 l 1,2,-1
 71 535 l 1,3,-1
 237 623 l 1,4,-1
 321 623 l 1,5,-1
 321 0 l 1,6,-1
 208 0 l 1,0,-1
EndSplineSet
Substitution2: "<11,2> Diagonal Fractions lookup 90 subtable" one.numr
Substitution2: "<10,1> Superiors lookup 88 subtable" uni00B9
Substitution2: "<10,2> Inferiors lookup 87 subtable" uni2081
EndChar

StartChar: two
Encoding: 50 50 23
Width: 500
Flags: W
LayerCount: 2
Fore
SplineSet
57 84 m 1,0,1
 129 154 129 154 182 205.5 c 128,-1,2
 235 257 235 257 270 297.5 c 128,-1,3
 305 338 305 338 322 374.5 c 128,-1,4
 339 411 339 411 339 452 c 0,5,6
 339 538 339 538 251 538 c 0,7,8
 219 538 219 538 193 527 c 128,-1,9
 167 516 167 516 146 491 c 0,10,11
 137 477 137 477 134.5 470 c 128,-1,12
 132 463 132 463 133 455 c 1,13,-1
 127 448 l 1,14,-1
 120 453 l 1,15,-1
 42 513 l 1,16,17
 76 570 76 570 131.5 601 c 128,-1,18
 187 632 187 632 252 632 c 0,19,20
 306 632 306 632 350 609.5 c 128,-1,21
 394 587 394 587 420 547 c 128,-1,22
 446 507 446 507 446 452 c 0,23,24
 446 388 446 388 416 333.5 c 128,-1,25
 386 279 386 279 331.5 222 c 128,-1,26
 277 165 277 165 205 92 c 1,27,-1
 402 92 l 2,28,29
 418 92 418 92 425.5 94 c 128,-1,30
 433 96 433 96 439 102 c 1,31,-1
 448 102 l 1,32,-1
 448 0 l 1,33,-1
 57 0 l 1,34,-1
 57 84 l 1,0,1
EndSplineSet
Substitution2: "<11,2> Diagonal Fractions lookup 90 subtable" two.numr
Substitution2: "<10,1> Superiors lookup 88 subtable" uni00B2
Substitution2: "<10,2> Inferiors lookup 87 subtable" uni2082
EndChar

StartChar: three
Encoding: 51 51 24
Width: 500
Flags: W
LayerCount: 2
Fore
SplineSet
235 -12 m 0,0,1
 180 -12 180 -12 128 6.5 c 128,-1,2
 76 25 76 25 44 63 c 1,3,-1
 101 146 l 1,4,-1
 107 154 l 1,5,-1
 115 149 l 1,6,7
 117 141 117 141 119.5 133 c 128,-1,8
 122 125 122 125 134 113 c 0,9,10
 152 97 152 97 176 87.5 c 128,-1,11
 200 78 200 78 230 78 c 0,12,13
 278 78 278 78 303.5 105.5 c 128,-1,14
 329 133 329 133 329 177 c 0,15,16
 329 239 329 239 287.5 263 c 128,-1,17
 246 287 246 287 165 278 c 1,18,-1
 165 366 l 1,19,20
 224 365 224 365 256.5 377.5 c 128,-1,21
 289 390 289 390 302 412 c 128,-1,22
 315 434 315 434 315 459 c 0,23,24
 315 496 315 496 292.5 517.5 c 128,-1,25
 270 539 270 539 232 539 c 0,26,27
 202 539 202 539 173.5 527.5 c 128,-1,28
 145 516 145 516 123 491 c 1,29,-1
 58 557 l 1,30,31
 93 598 93 598 141 615 c 128,-1,32
 189 632 189 632 236 632 c 0,33,34
 291 632 291 632 333.5 611 c 128,-1,35
 376 590 376 590 400 554 c 128,-1,36
 424 518 424 518 424 471 c 0,37,38
 424 419 424 419 394.5 382.5 c 128,-1,39
 365 346 365 346 327 331 c 1,40,41
 356 321 356 321 382.5 301 c 128,-1,42
 409 281 409 281 425.5 249 c 128,-1,43
 442 217 442 217 442 173 c 0,44,45
 442 121 442 121 417 79.5 c 128,-1,46
 392 38 392 38 345.5 13 c 128,-1,47
 299 -12 299 -12 235 -12 c 0,0,1
EndSplineSet
Substitution2: "<11,2> Diagonal Fractions lookup 90 subtable" three.numr
Substitution2: "<10,1> Superiors lookup 88 subtable" uni00B3
Substitution2: "<10,2> Inferiors lookup 87 subtable" uni2083
EndChar

StartChar: four
Encoding: 52 52 25
Width: 500
Flags: W
LayerCount: 2
Fore
SplineSet
284 0 m 1,0,-1
 284 148 l 1,1,-1
 40 148 l 1,2,-1
 40 222 l 1,3,-1
 310 623 l 1,4,-1
 394 623 l 1,5,-1
 394 239 l 1,6,-1
 476 239 l 1,7,-1
 476 147 l 1,8,-1
 394 147 l 1,9,-1
 394 0 l 1,10,-1
 284 0 l 1,0,-1
154 237 m 1,11,-1
 287 237 l 1,12,-1
 287 445 l 1,13,-1
 154 237 l 1,11,-1
EndSplineSet
Substitution2: "<11,2> Diagonal Fractions lookup 90 subtable" four.numr
Substitution2: "<10,1> Superiors lookup 88 subtable" uni2074
Substitution2: "<10,2> Inferiors lookup 87 subtable" uni2084
EndChar

StartChar: five
Encoding: 53 53 26
Width: 500
Flags: W
LayerCount: 2
Fore
SplineSet
252 -12 m 0,0,1
 187 -12 187 -12 134.5 13 c 128,-1,2
 82 38 82 38 54 87 c 1,3,-1
 133 152 l 1,4,-1
 141 158 l 1,5,-1
 146 151 l 1,6,7
 146 143 146 143 149 136 c 128,-1,8
 152 129 152 129 162 116 c 0,9,10
 197 80 197 80 251 80 c 0,11,12
 296 80 296 80 325 113.5 c 128,-1,13
 354 147 354 147 354 198 c 0,14,15
 354 253 354 253 326 287.5 c 128,-1,16
 298 322 298 322 248 322 c 0,17,18
 185 322 185 322 147 273 c 1,19,-1
 78 291 l 1,20,-1
 101 623 l 1,21,-1
 434 623 l 1,22,-1
 434 532 l 1,23,-1
 195 532 l 1,24,-1
 186 391 l 1,25,26
 204 401 204 401 228.5 407 c 128,-1,27
 253 413 253 413 274 413 c 0,28,29
 357 413 357 413 409 359.5 c 128,-1,30
 461 306 461 306 461 206 c 0,31,32
 461 138 461 138 434 89.5 c 128,-1,33
 407 41 407 41 359.5 14.5 c 128,-1,34
 312 -12 312 -12 252 -12 c 0,0,1
EndSplineSet
Substitution2: "<11,2> Diagonal Fractions lookup 90 subtable" five.numr
Substitution2: "<10,1> Superiors lookup 88 subtable" uni2075
Substitution2: "<10,2> Inferiors lookup 87 subtable" uni2085
EndChar

StartChar: six
Encoding: 54 54 27
Width: 500
Flags: W
LayerCount: 2
Fore
SplineSet
260 -11 m 0,0,1
 193 -11 193 -11 146.5 26 c 128,-1,2
 100 63 100 63 75.5 129.5 c 128,-1,3
 51 196 51 196 51 286 c 0,4,5
 51 396 51 396 81 473.5 c 128,-1,6
 111 551 111 551 164 592 c 128,-1,7
 217 633 217 633 285 633 c 0,8,9
 326 633 326 633 368 618.5 c 128,-1,10
 410 604 410 604 443 572 c 1,11,-1
 381 503 l 1,12,-1
 375 495 l 1,13,-1
 367 501 l 1,14,15
 367 510 367 510 361.5 515 c 128,-1,16
 356 520 356 520 343 529 c 0,17,18
 321 539 321 539 295 539 c 0,19,20
 276 539 276 539 254.5 532.5 c 128,-1,21
 233 526 233 526 213 506.5 c 128,-1,22
 193 487 193 487 179 450.5 c 128,-1,23
 165 414 165 414 162 355 c 1,24,25
 182 381 182 381 213.5 395.5 c 128,-1,26
 245 410 245 410 277 410 c 0,27,28
 327 410 327 410 367 387 c 128,-1,29
 407 364 407 364 430.5 319 c 128,-1,30
 454 274 454 274 454 206 c 0,31,32
 454 144 454 144 429 95 c 128,-1,33
 404 46 404 46 360 17.5 c 128,-1,34
 316 -11 316 -11 260 -11 c 0,0,1
262 80 m 0,35,36
 300 80 300 80 324.5 114.5 c 128,-1,37
 349 149 349 149 349 206 c 0,38,39
 349 265 349 265 321.5 293 c 128,-1,40
 294 321 294 321 261 321 c 0,41,42
 230 321 230 321 206.5 302 c 128,-1,43
 183 283 183 283 165 253 c 1,44,45
 161 177 161 177 188 128 c 128,-1,46
 215 79 215 79 262 80 c 0,35,36
EndSplineSet
Substitution2: "<11,2> Diagonal Fractions lookup 90 subtable" six.numr
Substitution2: "<10,1> Superiors lookup 88 subtable" uni2076
Substitution2: "<10,2> Inferiors lookup 87 subtable" uni2086
EndChar

StartChar: seven
Encoding: 55 55 28
Width: 500
Flags: W
LayerCount: 2
Fore
SplineSet
124 0 m 1,0,1
 168 137 168 137 215.5 266 c 128,-1,2
 263 395 263 395 316 526 c 1,3,-1
 65 526 l 1,4,-1
 65 623 l 1,5,-1
 443 623 l 1,6,-1
 443 561 l 1,7,8
 386 424 386 424 335 286 c 128,-1,9
 284 148 284 148 241 0 c 1,10,-1
 124 0 l 1,0,1
EndSplineSet
Substitution2: "<11,2> Diagonal Fractions lookup 90 subtable" seven.numr
Substitution2: "<10,1> Superiors lookup 88 subtable" uni2077
Substitution2: "<10,2> Inferiors lookup 87 subtable" uni2087
EndChar

StartChar: eight
Encoding: 56 56 29
Width: 500
Flags: W
LayerCount: 2
Fore
SplineSet
250 -11 m 0,0,1
 187 -11 187 -11 140.5 11.5 c 128,-1,2
 94 34 94 34 68.5 72.5 c 128,-1,3
 43 111 43 111 43 160 c 0,4,5
 43 220 43 220 75.5 262.5 c 128,-1,6
 108 305 108 305 160 332 c 1,7,8
 121 356 121 356 97 393.5 c 128,-1,9
 73 431 73 431 73 473 c 0,10,11
 73 518 73 518 95 554.5 c 128,-1,12
 117 591 117 591 158 612 c 128,-1,13
 199 633 199 633 256 633 c 0,14,15
 343 633 343 633 390 588 c 128,-1,16
 437 543 437 543 437 479 c 0,17,18
 437 429 437 429 414 391 c 128,-1,19
 391 353 391 353 352 329 c 1,20,21
 402 303 402 303 430 259.5 c 128,-1,22
 458 216 458 216 458 163 c 0,23,24
 458 113 458 113 432 73.5 c 128,-1,25
 406 34 406 34 359 11.5 c 128,-1,26
 312 -11 312 -11 250 -11 c 0,0,1
271 363 m 1,27,28
 300 384 300 384 315 412.5 c 128,-1,29
 330 441 330 441 330 471 c 0,30,31
 330 500 330 500 309.5 520.5 c 128,-1,32
 289 541 289 541 253 541 c 256,33,34
 217 541 217 541 198 521 c 128,-1,35
 179 501 179 501 179 473 c 0,36,37
 179 436 179 436 205.5 410 c 128,-1,38
 232 384 232 384 271 363 c 1,27,28
252 82 m 0,39,40
 299 82 299 82 323 107 c 128,-1,41
 347 132 347 132 347 170 c 0,42,43
 347 210 347 210 315.5 241 c 128,-1,44
 284 272 284 272 232 289 c 1,45,46
 197 270 197 270 176 241 c 128,-1,47
 155 212 155 212 155 173 c 256,48,49
 155 134 155 134 181 108 c 128,-1,50
 207 82 207 82 252 82 c 0,39,40
EndSplineSet
Substitution2: "<11,2> Diagonal Fractions lookup 90 subtable" eight.numr
Substitution2: "<10,1> Superiors lookup 88 subtable" uni2078
Substitution2: "<10,2> Inferiors lookup 87 subtable" uni2088
EndChar

StartChar: nine
Encoding: 57 57 30
Width: 500
Flags: W
LayerCount: 2
Fore
SplineSet
224 -11 m 0,0,1
 177 -11 177 -11 133 1.5 c 128,-1,2
 89 14 89 14 53 45 c 1,3,-1
 111 128 l 1,4,-1
 116 136 l 1,5,-1
 124 131 l 1,6,7
 126 123 126 123 130 116.5 c 128,-1,8
 134 110 134 110 147 99 c 0,9,10
 179 81 179 81 220 81 c 0,11,12
 269 81 269 81 300 127.5 c 128,-1,13
 331 174 331 174 341 251 c 1,14,15
 296 222 296 222 237 222 c 0,16,17
 183 222 183 222 140 246 c 128,-1,18
 97 270 97 270 71.5 315 c 128,-1,19
 46 360 46 360 46 420 c 256,20,21
 46 480 46 480 73.5 528 c 128,-1,22
 101 576 101 576 147 604 c 128,-1,23
 193 632 193 632 250 632 c 0,24,25
 348 632 348 632 398.5 557.5 c 128,-1,26
 449 483 449 483 449 343 c 0,27,28
 449 170 449 170 390.5 80 c 128,-1,29
 332 -10 332 -10 224 -11 c 0,0,1
152 417 m 0,30,31
 152 365 152 365 179.5 338 c 128,-1,32
 207 311 207 311 246 311 c 0,33,34
 276 311 276 311 300.5 319.5 c 128,-1,35
 325 328 325 328 344 350 c 1,36,37
 342 455 342 455 317.5 498.5 c 128,-1,38
 293 542 293 542 246 542 c 0,39,40
 204 542 204 542 178 508.5 c 128,-1,41
 152 475 152 475 152 417 c 0,30,31
EndSplineSet
Substitution2: "<11,2> Diagonal Fractions lookup 90 subtable" nine.numr
Substitution2: "<10,1> Superiors lookup 88 subtable" uni2079
Substitution2: "<10,2> Inferiors lookup 87 subtable" uni2089
EndChar

StartChar: colon
Encoding: 58 58 31
Width: 500
Flags: W
LayerCount: 2
Fore
SplineSet
235 291 m 0,0,1
 204 291 204 291 182 314 c 128,-1,2
 160 337 160 337 160 366 c 0,3,4
 160 396 160 396 182 419 c 128,-1,5
 204 442 204 442 235 442 c 0,6,7
 264 442 264 442 287.5 420 c 128,-1,8
 311 398 311 398 311 366 c 0,9,10
 311 337 311 337 289 314 c 128,-1,11
 267 291 267 291 235 291 c 0,0,1
235 -12 m 0,12,13
 203 -12 203 -12 181.5 10.5 c 128,-1,14
 160 33 160 33 160 63 c 256,15,16
 160 93 160 93 182 116.5 c 128,-1,17
 204 140 204 140 235 140 c 0,18,19
 264 140 264 140 287.5 117 c 128,-1,20
 311 94 311 94 311 63 c 0,21,22
 311 34 311 34 289.5 11 c 128,-1,23
 268 -12 268 -12 235 -12 c 0,12,13
EndSplineSet
EndChar

StartChar: semicolon
Encoding: 59 59 32
Width: 500
Flags: W
LayerCount: 2
Fore
SplineSet
235 291 m 0,0,1
 204 291 204 291 182 314 c 128,-1,2
 160 337 160 337 160 366 c 0,3,4
 160 396 160 396 182 419 c 128,-1,5
 204 442 204 442 235 442 c 0,6,7
 264 442 264 442 287.5 420 c 128,-1,8
 311 398 311 398 311 366 c 0,9,10
 311 337 311 337 289 314 c 128,-1,11
 267 291 267 291 235 291 c 0,0,1
213 -170 m 1,12,-1
 151 -119 l 1,13,14
 179 -93 179 -93 194 -67.5 c 128,-1,15
 209 -42 209 -42 209 -25 c 0,16,17
 209 -10 209 -10 197.5 2.5 c 128,-1,18
 186 15 186 15 174.5 30.5 c 128,-1,19
 163 46 163 46 163 69 c 0,20,21
 163 102 163 102 186 120 c 128,-1,22
 209 138 209 138 240 138 c 0,23,24
 278 138 278 138 301.5 110 c 128,-1,25
 325 82 325 82 325 38 c 0,26,27
 325 -56 325 -56 213 -170 c 1,12,-1
EndSplineSet
EndChar

StartChar: less
Encoding: 60 60 33
Width: 500
Flags: W
LayerCount: 2
Fore
SplineSet
466 36 m 1,0,-1
 33 292 l 1,1,-1
 33 353 l 1,2,-1
 463 582 l 1,3,-1
 463 479 l 1,4,-1
 149 321 l 1,5,-1
 466 146 l 1,6,-1
 466 36 l 1,0,-1
EndSplineSet
Substitution2: "<2,2> Cursive lookup 73 nested-substitutions 0 subtable" CR.3.0
Substitution2: "<2,2> Cursive lookup 51 nested-substitutions 0 subtable" CR.6.0
Substitution2: "<2,2> Cursive lookup 43 nested-substitutions 0 subtable" CR.7.0
Substitution2: "<2,2> Cursive lookup 35 nested-substitutions 0 subtable" CR.8.0
Substitution2: "<2,2> Cursive lookup 27 nested-substitutions 0 subtable" CR.9.0
Substitution2: "<2,2> Cursive lookup 19 nested-substitutions 0 subtable" CR.10.0
Substitution2: "<2,2> Cursive lookup 9 nested-substitutions 0 subtable" CR.11.0
Substitution2: "'rtla' Right to Left Alternates lookup 0 subtable" greater
EndChar

StartChar: equal
Encoding: 61 61 34
Width: 500
Flags: W
LayerCount: 2
Fore
SplineSet
43 376 m 1,0,-1
 43 464 l 1,1,-1
 461 464 l 1,2,-1
 461 376 l 1,3,-1
 43 376 l 1,0,-1
43 168 m 1,4,-1
 43 255 l 1,5,-1
 461 255 l 1,6,-1
 461 168 l 1,7,-1
 43 168 l 1,4,-1
EndSplineSet
Substitution2: "<2,2> Cursive lookup 85 nested-substitutions 0 subtable" CR.1.0
Substitution2: "<2,2> Cursive lookup 67 nested-substitutions 0 subtable" CR.4.0
Substitution2: "<2,2> Cursive lookup 65 nested-substitutions 0 subtable" CR.4.1
Substitution2: "<2,2> Cursive lookup 49 nested-substitutions 0 subtable" CR.6.1
Substitution2: "<2,2> Cursive lookup 47 nested-substitutions 0 subtable" lig.6
Substitution2: "<2,2> Cursive lookup 41 nested-substitutions 0 subtable" CR.7.1
Substitution2: "<2,2> Cursive lookup 7 nested-substitutions 0 subtable" CR.11.1
Substitution2: "<2,2> Cursive lookup 5 nested-substitutions 0 subtable" CR.11.2
EndChar

StartChar: greater
Encoding: 62 62 35
Width: 500
Flags: W
LayerCount: 2
Fore
SplineSet
38 36 m 1,0,-1
 38 143 l 1,1,-1
 354 321 l 1,2,-1
 40 479 l 1,3,-1
 40 582 l 1,4,-1
 471 353 l 1,5,-1
 471 292 l 1,6,-1
 38 36 l 1,0,-1
EndSplineSet
Substitution2: "<2,2> Cursive lookup 83 nested-substitutions 0 subtable" lig.1
Substitution2: "<2,2> Cursive lookup 77 nested-substitutions 0 subtable" lig.2
Substitution2: "<2,2> Cursive lookup 63 nested-substitutions 0 subtable" lig.4
Substitution2: "<2,2> Cursive lookup 55 nested-substitutions 0 subtable" lig.5
Substitution2: "<2,2> Cursive lookup 39 nested-substitutions 0 subtable" lig.7
Substitution2: "<2,2> Cursive lookup 31 nested-substitutions 0 subtable" lig.8
Substitution2: "<2,2> Cursive lookup 3 nested-substitutions 0 subtable" lig.11
Substitution2: "'rtla' Right to Left Alternates lookup 0 subtable" less
EndChar

StartChar: question
Encoding: 63 63 36
Width: 500
Flags: W
LayerCount: 2
Fore
SplineSet
211 252 m 2,0,1
 211 293 211 293 224 321 c 128,-1,2
 237 349 237 349 256.5 369 c 128,-1,3
 276 389 276 389 295.5 407 c 128,-1,4
 315 425 315 425 328.5 447 c 128,-1,5
 342 469 342 469 342 501 c 0,6,7
 342 542 342 542 315.5 560.5 c 128,-1,8
 289 579 289 579 252 579 c 0,9,10
 198 579 198 579 158 543 c 0,11,12
 148 530 148 530 145 523.5 c 128,-1,13
 142 517 142 517 142 509 c 1,14,-1
 136 501 l 1,15,-1
 129 507 l 1,16,-1
 59 559 l 1,17,18
 93 610 93 610 141 639.5 c 128,-1,19
 189 669 189 669 258 669 c 0,20,21
 315 669 315 669 357.5 647 c 128,-1,22
 400 625 400 625 423.5 587.5 c 128,-1,23
 447 550 447 550 447 504 c 0,24,25
 447 459 447 459 433 430 c 128,-1,26
 419 401 419 401 398.5 381 c 128,-1,27
 378 361 378 361 357.5 343.5 c 128,-1,28
 337 326 337 326 323 305 c 128,-1,29
 309 284 309 284 309 252 c 2,30,-1
 309 203 l 1,31,-1
 211 203 l 1,32,-1
 211 252 l 2,0,1
262 -12 m 256,33,34
 231 -12 231 -12 208.5 10 c 128,-1,35
 186 32 186 32 186 63 c 256,36,37
 186 94 186 94 208.5 116 c 128,-1,38
 231 138 231 138 262 138 c 256,39,40
 293 138 293 138 315 116 c 128,-1,41
 337 94 337 94 337 63 c 256,42,43
 337 32 337 32 315 10 c 128,-1,44
 293 -12 293 -12 262 -12 c 256,33,34
EndSplineSet
EndChar

StartChar: at
Encoding: 64 64 37
Width: 500
Flags: W
LayerCount: 2
Fore
SplineSet
294 -12 m 0,0,1
 224 -12 224 -12 162.5 24 c 128,-1,2
 101 60 101 60 62.5 132.5 c 128,-1,3
 24 205 24 205 24 315 c 256,4,5
 24 425 24 425 60 495.5 c 128,-1,6
 96 566 96 566 152.5 600 c 128,-1,7
 209 634 209 634 272 634 c 0,8,9
 363 634 363 634 418 575 c 128,-1,10
 473 516 473 516 473 391 c 2,11,-1
 473 168 l 1,12,-1
 385 168 l 1,13,-1
 385 199 l 1,14,15
 370 180 370 180 350 170 c 128,-1,16
 330 160 330 160 303 160 c 0,17,18
 245 160 245 160 208 199 c 128,-1,19
 171 238 171 238 171 296 c 0,20,21
 171 368 171 368 220.5 413 c 128,-1,22
 270 458 270 458 382 456 c 1,23,24
 380 507 380 507 350 533.5 c 128,-1,25
 320 560 320 560 269 560 c 0,26,27
 227 560 227 560 191 535.5 c 128,-1,28
 155 511 155 511 132.5 458 c 128,-1,29
 110 405 110 405 110 320 c 0,30,31
 110 234 110 234 136.5 178.5 c 128,-1,32
 163 123 163 123 206.5 96 c 128,-1,33
 250 69 250 69 300 69 c 0,34,35
 326 69 326 69 354 78 c 128,-1,36
 382 87 382 87 409 108 c 1,37,-1
 451 39 l 1,38,39
 380 -12 380 -12 294 -12 c 0,0,1
316 238 m 0,40,41
 354 238 354 238 370 270.5 c 128,-1,42
 386 303 386 303 386 379 c 1,43,44
 315 382 315 382 287 360 c 128,-1,45
 259 338 259 338 259 302 c 0,46,47
 259 238 259 238 316 238 c 0,40,41
EndSplineSet
EndChar

StartChar: A
Encoding: 65 65 38
Width: 500
Flags: W
LayerCount: 2
Fore
SplineSet
374 0 m 1,0,-1
 331 145 l 1,1,-1
 168 145 l 1,2,-1
 124 0 l 1,3,-1
 12 0 l 1,4,-1
 223 627 l 1,5,-1
 277 627 l 1,6,-1
 488 0 l 1,7,-1
 374 0 l 1,0,-1
250 418 m 1,8,-1
 192 226 l 1,9,-1
 307 226 l 1,10,-1
 250 418 l 1,8,-1
EndSplineSet
EndChar

StartChar: B
Encoding: 66 66 39
Width: 500
Flags: W
LayerCount: 2
Fore
SplineSet
37 0 m 1,0,-1
 37 623 l 1,1,-1
 227 623 l 2,2,3
 339 623 339 623 393 579 c 128,-1,4
 447 535 447 535 447 466 c 0,5,6
 447 426 447 426 424.5 387 c 128,-1,7
 402 348 402 348 359 331 c 1,8,9
 410 309 410 309 440.5 268.5 c 128,-1,10
 471 228 471 228 471 180 c 0,11,12
 471 99 471 99 410.5 49.5 c 128,-1,13
 350 0 350 0 226 0 c 2,14,-1
 37 0 l 1,0,-1
150 374 m 1,15,-1
 218 374 l 2,16,17
 284 374 284 374 308.5 396.5 c 128,-1,18
 333 419 333 419 333 456 c 0,19,20
 333 490 333 490 308 511 c 128,-1,21
 283 532 283 532 228 532 c 2,22,-1
 150 532 l 1,23,-1
 150 374 l 1,15,-1
150 93 m 1,24,-1
 238 93 l 2,25,26
 291 93 291 93 322.5 116 c 128,-1,27
 354 139 354 139 354 183 c 0,28,29
 354 228 354 228 324.5 256 c 128,-1,30
 295 284 295 284 221 284 c 2,31,-1
 150 284 l 1,32,-1
 150 93 l 1,24,-1
EndSplineSet
EndChar

StartChar: C
Encoding: 67 67 40
Width: 500
Flags: W
LayerCount: 2
Fore
SplineSet
279 -11 m 0,0,1
 211 -11 211 -11 154.5 22.5 c 128,-1,2
 98 56 98 56 64.5 127 c 128,-1,3
 31 198 31 198 31 308 c 0,4,5
 31 400 31 400 53.5 462.5 c 128,-1,6
 76 525 76 525 113 562 c 128,-1,7
 150 599 150 599 194.5 615.5 c 128,-1,8
 239 632 239 632 283 632 c 0,9,10
 353 632 353 632 403.5 600 c 128,-1,11
 454 568 454 568 480 510 c 1,12,-1
 409 457 l 1,13,-1
 401 452 l 1,14,-1
 396 460 l 1,15,16
 397 467 397 467 394.5 474.5 c 128,-1,17
 392 482 392 482 384 496 c 0,18,19
 362 522 362 522 338.5 531.5 c 128,-1,20
 315 541 315 541 289 541 c 0,21,22
 251 541 251 541 217.5 515 c 128,-1,23
 184 489 184 489 163.5 438.5 c 128,-1,24
 143 388 143 388 143 313 c 0,25,26
 143 205 143 205 182.5 143.5 c 128,-1,27
 222 82 222 82 282 82 c 0,28,29
 319 82 319 82 346 98 c 128,-1,30
 373 114 373 114 395 151 c 1,31,-1
 473 93 l 1,32,33
 438 36 438 36 390.5 12.5 c 128,-1,34
 343 -11 343 -11 279 -11 c 0,0,1
EndSplineSet
EndChar

StartChar: D
Encoding: 68 68 41
Width: 500
Flags: W
LayerCount: 2
Fore
SplineSet
42 0 m 1,0,-1
 42 623 l 1,1,-1
 203 623 l 2,2,3
 285 623 285 623 330.5 600.5 c 128,-1,4
 376 578 376 578 407 537 c 0,5,6
 438 495 438 495 455.5 437 c 128,-1,7
 473 379 473 379 473 307 c 0,8,9
 471 213 471 213 442 143.5 c 128,-1,10
 413 74 413 74 351.5 37 c 128,-1,11
 290 0 290 0 191 0 c 2,12,-1
 42 0 l 1,0,-1
152 88 m 1,13,-1
 188 88 l 2,14,15
 252 88 252 88 290.5 115 c 128,-1,16
 329 142 329 142 346 191 c 128,-1,17
 363 240 363 240 362 306 c 0,18,19
 362 375 362 375 347.5 426 c 128,-1,20
 333 477 333 477 297 505 c 128,-1,21
 261 533 261 533 199 533 c 2,22,-1
 152 533 l 1,23,-1
 152 88 l 1,13,-1
EndSplineSet
EndChar

StartChar: E
Encoding: 69 69 42
Width: 500
Flags: W
LayerCount: 2
Fore
SplineSet
51 0 m 1,0,-1
 51 623 l 1,1,-1
 457 623 l 1,2,-1
 457 531 l 1,3,-1
 161 531 l 1,4,-1
 161 371 l 1,5,-1
 404 371 l 1,6,-1
 404 278 l 1,7,-1
 161 278 l 1,8,-1
 161 92 l 1,9,-1
 454 92 l 1,10,-1
 454 0 l 1,11,-1
 51 0 l 1,0,-1
EndSplineSet
EndChar

StartChar: F
Encoding: 70 70 43
Width: 500
Flags: W
LayerCount: 2
Fore
SplineSet
66 0 m 1,0,-1
 66 623 l 1,1,-1
 454 623 l 1,2,-1
 454 532 l 1,3,-1
 167 532 l 1,4,-1
 167 381 l 1,5,-1
 400 381 l 1,6,-1
 400 290 l 1,7,-1
 167 290 l 1,8,-1
 167 0 l 1,9,-1
 66 0 l 1,0,-1
EndSplineSet
EndChar

StartChar: G
Encoding: 71 71 44
Width: 500
Flags: W
LayerCount: 2
Fore
SplineSet
276 -11 m 0,0,1
 198 -11 198 -11 141.5 29 c 128,-1,2
 85 69 85 69 55 141 c 128,-1,3
 25 213 25 213 25 309 c 0,4,5
 25 408 25 408 50.5 471.5 c 128,-1,6
 76 535 76 535 115.5 570.5 c 128,-1,7
 155 606 155 606 198 619.5 c 128,-1,8
 241 633 241 633 275 633 c 0,9,10
 336 633 336 633 389.5 604.5 c 128,-1,11
 443 576 443 576 471 524 c 1,12,-1
 405 459 l 1,13,-1
 399 452 l 1,14,-1
 392 459 l 1,15,16
 391 467 391 467 388.5 474.5 c 128,-1,17
 386 482 386 482 376 495 c 0,18,19
 359 515 359 515 336.5 527 c 128,-1,20
 314 539 314 539 278 539 c 0,21,22
 241 539 241 539 208.5 518 c 128,-1,23
 176 497 176 497 156.5 448.5 c 128,-1,24
 137 400 137 400 137 319 c 0,25,26
 137 199 137 199 175.5 140 c 128,-1,27
 214 81 214 81 276 81 c 0,28,29
 301 81 301 81 325.5 87.5 c 128,-1,30
 350 94 350 94 371 112 c 1,31,-1
 371 227 l 1,32,-1
 268 227 l 1,33,-1
 268 321 l 1,34,-1
 473 321 l 1,35,-1
 473 54 l 1,36,37
 428 18 428 18 378 3.5 c 128,-1,38
 328 -11 328 -11 276 -11 c 0,0,1
EndSplineSet
EndChar

StartChar: H
Encoding: 72 72 45
Width: 500
Flags: W
LayerCount: 2
Fore
SplineSet
38 623 m 1,0,-1
 161 623 l 1,1,-1
 161 614 l 1,2,3
 155 608 155 608 153.5 600.5 c 128,-1,4
 152 593 152 593 152 577 c 2,5,-1
 152 370 l 1,6,-1
 344 370 l 1,7,-1
 344 623 l 1,8,-1
 467 623 l 1,9,-1
 467 614 l 1,10,11
 461 608 461 608 460 600.5 c 128,-1,12
 459 593 459 593 459 577 c 2,13,-1
 459 0 l 1,14,-1
 344 0 l 1,15,-1
 344 280 l 1,16,-1
 152 280 l 1,17,-1
 152 0 l 1,18,-1
 38 0 l 1,19,-1
 38 623 l 1,0,-1
EndSplineSet
EndChar

StartChar: I
Encoding: 73 73 46
Width: 500
Flags: W
LayerCount: 2
Fore
SplineSet
70 0 m 1,0,-1
 70 91 l 1,1,-1
 192 91 l 1,2,-1
 192 532 l 1,3,-1
 77 532 l 1,4,-1
 77 623 l 1,5,-1
 421 623 l 1,6,-1
 421 532 l 1,7,-1
 299 532 l 1,8,-1
 299 91 l 1,9,-1
 426 91 l 1,10,-1
 426 0 l 1,11,-1
 70 0 l 1,0,-1
EndSplineSet
EndChar

StartChar: J
Encoding: 74 74 47
Width: 500
Flags: W
LayerCount: 2
Fore
SplineSet
194 -15 m 0,0,1
 146 -15 146 -15 103 2 c 128,-1,2
 60 19 60 19 31 54 c 1,3,-1
 87 143 l 1,4,-1
 92 151 l 1,5,-1
 100 146 l 1,6,7
 102 138 102 138 105 130 c 128,-1,8
 108 122 108 122 120 110 c 0,9,10
 150 89 150 89 184 89 c 0,11,12
 263 89 263 89 263 221 c 2,13,-1
 263 532 l 1,14,-1
 148 532 l 1,15,-1
 148 623 l 1,16,-1
 467 623 l 1,17,-1
 467 532 l 1,18,-1
 375 532 l 1,19,-1
 375 213 l 2,20,21
 376 135 376 135 350 84.5 c 128,-1,22
 324 34 324 34 282 9.5 c 128,-1,23
 240 -15 240 -15 194 -15 c 0,0,1
EndSplineSet
EndChar

StartChar: K
Encoding: 75 75 48
Width: 500
Flags: W
LayerCount: 2
Fore
SplineSet
189 282 m 1,0,-1
 148 228 l 1,1,-1
 148 0 l 1,2,-1
 37 0 l 1,3,-1
 37 623 l 1,4,-1
 156 623 l 1,5,-1
 156 614 l 1,6,7
 150 608 150 608 149 600.5 c 128,-1,8
 148 593 148 593 148 577 c 2,9,-1
 148 368 l 1,10,-1
 355 629 l 1,11,12
 370 625 370 625 393 624 c 128,-1,13
 416 623 416 623 428 623 c 2,14,-1
 480 623 l 1,15,-1
 269 362 l 1,16,-1
 492 1 l 1,17,-1
 363 -4 l 1,18,-1
 189 282 l 1,0,-1
EndSplineSet
EndChar

StartChar: L
Encoding: 76 76 49
Width: 500
Flags: W
LayerCount: 2
Fore
SplineSet
57 623 m 1,0,-1
 180 623 l 1,1,-1
 180 614 l 1,2,3
 174 608 174 608 172.5 600.5 c 128,-1,4
 171 593 171 593 171 577 c 2,5,-1
 171 92 l 1,6,-1
 457 92 l 1,7,-1
 457 0 l 1,8,-1
 57 0 l 1,9,-1
 57 623 l 1,0,-1
EndSplineSet
EndChar

StartChar: M
Encoding: 77 77 50
Width: 500
Flags: W
LayerCount: 2
Fore
SplineSet
32 0 m 1,0,-1
 32 623 l 1,1,-1
 131 623 l 1,2,-1
 252 337 l 1,3,-1
 373 624 l 1,4,-1
 472 624 l 1,5,-1
 472 0 l 1,6,-1
 374 0 l 1,7,-1
 374 435 l 1,8,-1
 276 206 l 1,9,-1
 221 206 l 1,10,-1
 129 434 l 1,11,-1
 129 0 l 1,12,-1
 32 0 l 1,0,-1
EndSplineSet
EndChar

StartChar: N
Encoding: 78 78 51
Width: 500
Flags: W
LayerCount: 2
Fore
SplineSet
37 623 m 1,0,-1
 155 623 l 1,1,-1
 366 213 l 1,2,-1
 360 623 l 1,3,-1
 470 623 l 1,4,-1
 470 614 l 1,5,6
 465 608 465 608 463.5 600.5 c 128,-1,7
 462 593 462 593 462 577 c 2,8,-1
 462 0 l 1,9,-1
 357 0 l 1,10,-1
 139 437 l 1,11,-1
 139 0 l 1,12,-1
 37 0 l 1,13,-1
 37 623 l 1,0,-1
EndSplineSet
EndChar

StartChar: O
Encoding: 79 79 52
Width: 500
Flags: W
LayerCount: 2
Fore
SplineSet
252 -12 m 0,0,1
 137 -12 137 -12 78 72 c 128,-1,2
 19 156 19 156 19 311 c 0,3,4
 19 462 19 462 78 547 c 128,-1,5
 137 632 137 632 252 632 c 0,6,7
 365 632 365 632 424.5 547 c 128,-1,8
 484 462 484 462 484 311 c 0,9,10
 484 156 484 156 424.5 72 c 128,-1,11
 365 -12 365 -12 252 -12 c 0,0,1
252 80 m 0,12,13
 308 80 308 80 340 137.5 c 128,-1,14
 372 195 372 195 372 312 c 0,15,16
 372 421 372 421 340 480.5 c 128,-1,17
 308 540 308 540 252 540 c 0,18,19
 194 540 194 540 162.5 480.5 c 128,-1,20
 131 421 131 421 131 312 c 0,21,22
 131 195 131 195 162.5 137.5 c 128,-1,23
 194 80 194 80 252 80 c 0,12,13
EndSplineSet
EndChar

StartChar: P
Encoding: 80 80 53
Width: 500
Flags: W
LayerCount: 2
Fore
SplineSet
48 0 m 1,0,-1
 48 623 l 1,1,-1
 260 623 l 2,2,3
 332 623 332 623 379 598 c 128,-1,4
 426 573 426 573 448.5 531.5 c 128,-1,5
 471 490 471 490 471 440 c 0,6,7
 471 391 471 391 449 350.5 c 128,-1,8
 427 310 427 310 381 285.5 c 128,-1,9
 335 261 335 261 265 261 c 2,10,-1
 163 261 l 1,11,-1
 163 0 l 1,12,-1
 48 0 l 1,0,-1
163 355 m 1,13,-1
 257 355 l 2,14,15
 305 355 305 355 330 379 c 128,-1,16
 355 403 355 403 355 440 c 256,17,18
 355 477 355 477 330 501 c 128,-1,19
 305 525 305 525 258 525 c 2,20,-1
 163 525 l 1,21,-1
 163 355 l 1,13,-1
EndSplineSet
EndChar

StartChar: Q
Encoding: 81 81 54
Width: 500
Flags: W
LayerCount: 2
Fore
SplineSet
378 -146 m 2,0,1
 284 -147 284 -147 243.5 -117 c 128,-1,2
 203 -87 203 -87 201 -5 c 1,3,4
 120 12 120 12 70 94 c 128,-1,5
 20 176 20 176 20 311 c 0,6,7
 20 427 20 427 52 498 c 128,-1,8
 84 569 84 569 137 601 c 128,-1,9
 190 633 190 633 252 633 c 0,10,11
 318 633 318 633 370.5 599 c 128,-1,12
 423 565 423 565 453 494 c 128,-1,13
 483 423 483 423 482 312 c 0,14,15
 482 165 482 165 434.5 89.5 c 128,-1,16
 387 14 387 14 307 -5 c 1,17,18
 309 -28 309 -28 321 -42.5 c 128,-1,19
 333 -57 333 -57 362 -56 c 2,20,-1
 444 -52 l 1,21,-1
 442 -146 l 1,22,-1
 378 -146 l 2,0,1
254 82 m 0,23,24
 285 82 285 82 312 104.5 c 128,-1,25
 339 127 339 127 356 176 c 128,-1,26
 373 225 373 225 373 305 c 0,27,28
 373 393 373 393 355.5 445 c 128,-1,29
 338 497 338 497 310.5 519 c 128,-1,30
 283 541 283 541 252 541 c 0,31,32
 195 541 195 541 163 481.5 c 128,-1,33
 131 422 131 422 131 321 c 0,34,35
 131 204 131 204 164.5 143 c 128,-1,36
 198 82 198 82 254 82 c 0,23,24
EndSplineSet
EndChar

StartChar: R
Encoding: 82 82 55
Width: 500
Flags: W
LayerCount: 2
Fore
SplineSet
45 0 m 1,0,-1
 45 623 l 1,1,-1
 242 623 l 2,2,3
 356 623 356 623 409 573 c 128,-1,4
 462 523 462 523 462 440 c 0,5,6
 462 406 462 406 447.5 371.5 c 128,-1,7
 433 337 433 337 406.5 310 c 128,-1,8
 380 283 380 283 345 270 c 1,9,-1
 479 0 l 1,10,-1
 360 0 l 1,11,-1
 234 259 l 1,12,-1
 159 259 l 1,13,-1
 159 0 l 1,14,-1
 45 0 l 1,0,-1
159 353 m 1,15,-1
 250 353 l 2,16,17
 298 353 298 353 322 375.5 c 128,-1,18
 346 398 346 398 346 437 c 0,19,20
 346 473 346 473 322 499 c 128,-1,21
 298 525 298 525 250 525 c 2,22,-1
 159 525 l 1,23,-1
 159 353 l 1,15,-1
EndSplineSet
EndChar

StartChar: S
Encoding: 83 83 56
Width: 500
Flags: W
LayerCount: 2
Fore
SplineSet
242 -11 m 0,0,1
 180 -11 180 -11 125.5 7.5 c 128,-1,2
 71 26 71 26 35 64 c 1,3,-1
 90 157 l 1,4,-1
 94 165 l 1,5,-1
 103 160 l 1,6,7
 105 152 105 152 108.5 144.5 c 128,-1,8
 112 137 112 137 124 126 c 0,9,10
 149 107 149 107 179.5 95 c 128,-1,11
 210 83 210 83 246 83 c 0,12,13
 293 83 293 83 322.5 103.5 c 128,-1,14
 352 124 352 124 352 164 c 0,15,16
 352 184 352 184 343 201.5 c 128,-1,17
 334 219 334 219 307.5 237 c 128,-1,18
 281 255 281 255 229 279 c 0,19,20
 165 307 165 307 127.5 335.5 c 128,-1,21
 90 364 90 364 74 397.5 c 128,-1,22
 58 431 58 431 58 473 c 0,23,24
 58 519 58 519 83.5 555 c 128,-1,25
 109 591 109 591 154 612 c 128,-1,26
 199 633 199 633 257 633 c 0,27,28
 372 633 372 633 446 553 c 1,29,-1
 380 477 l 1,30,-1
 374 470 l 1,31,-1
 366 476 l 1,32,33
 365 484 365 484 362.5 491.5 c 128,-1,34
 360 499 360 499 349 511 c 0,35,36
 330 529 330 529 308.5 535 c 128,-1,37
 287 541 287 541 258 541 c 0,38,39
 217 541 217 541 193 522 c 128,-1,40
 169 503 169 503 169 478 c 0,41,42
 169 458 169 458 178 442 c 128,-1,43
 187 426 187 426 214.5 408 c 128,-1,44
 242 390 242 390 299 365 c 0,45,46
 362 336 362 336 398 308.5 c 128,-1,47
 434 281 434 281 448.5 248 c 128,-1,48
 463 215 463 215 463 171 c 0,49,50
 463 126 463 126 440 84 c 128,-1,51
 417 42 417 42 368 15.5 c 128,-1,52
 319 -11 319 -11 242 -11 c 0,0,1
EndSplineSet
EndChar

StartChar: T
Encoding: 84 84 57
Width: 500
Flags: W
LayerCount: 2
Fore
SplineSet
191 0 m 1,0,-1
 191 528 l 1,1,-1
 23 528 l 1,2,-1
 23 623 l 1,3,-1
 476 623 l 1,4,-1
 476 528 l 1,5,-1
 299 528 l 1,6,-1
 299 0 l 1,7,-1
 191 0 l 1,0,-1
EndSplineSet
EndChar

StartChar: U
Encoding: 85 85 58
Width: 500
Flags: W
LayerCount: 2
Fore
SplineSet
250 -13 m 0,0,1
 147 -13 147 -13 91.5 48 c 128,-1,2
 36 109 36 109 36 218 c 2,3,-1
 36 623 l 1,4,-1
 157 623 l 1,5,-1
 157 614 l 1,6,7
 152 608 152 608 150.5 600.5 c 128,-1,8
 149 593 149 593 149 577 c 2,9,-1
 149 217 l 2,10,11
 149 153 149 153 171 116 c 128,-1,12
 193 79 193 79 251 79 c 256,13,14
 309 79 309 79 332 116 c 128,-1,15
 355 153 355 153 355 220 c 2,16,-1
 355 623 l 1,17,-1
 465 623 l 1,18,-1
 465 221 l 2,19,20
 465 101 465 101 405 44 c 128,-1,21
 345 -13 345 -13 250 -13 c 0,0,1
EndSplineSet
EndChar

StartChar: V
Encoding: 86 86 59
Width: 500
Flags: W
LayerCount: 2
Fore
SplineSet
216 -2 m 1,0,-1
 16 623 l 1,1,-1
 128 623 l 1,2,-1
 259 185 l 1,3,-1
 381 623 l 1,4,-1
 490 623 l 1,5,-1
 292 -2 l 1,6,-1
 216 -2 l 1,0,-1
EndSplineSet
EndChar

StartChar: W
Encoding: 87 87 60
Width: 500
Flags: W
LayerCount: 2
Fore
SplineSet
92 0 m 1,0,-1
 10 623 l 1,1,-1
 108 623 l 1,2,-1
 150 232 l 1,3,-1
 230 574 l 1,4,-1
 290 574 l 1,5,-1
 370 233 l 1,6,-1
 403 623 l 1,7,-1
 495 623 l 1,8,-1
 414 0 l 1,9,-1
 343 0 l 1,10,-1
 255 384 l 1,11,-1
 165 0 l 1,12,-1
 92 0 l 1,0,-1
EndSplineSet
EndChar

StartChar: X
Encoding: 88 88 61
Width: 500
Flags: W
LayerCount: 2
Fore
SplineSet
29 0 m 1,0,-1
 192 318 l 1,1,-1
 31 623 l 1,2,-1
 147 623 l 1,3,-1
 252 418 l 1,4,-1
 354 623 l 1,5,-1
 464 623 l 1,6,-1
 314 319 l 1,7,-1
 484 0 l 1,8,-1
 364 0 l 1,9,-1
 253 215 l 1,10,-1
 145 0 l 1,11,-1
 29 0 l 1,0,-1
EndSplineSet
EndChar

StartChar: Y
Encoding: 89 89 62
Width: 500
Flags: W
LayerCount: 2
Fore
SplineSet
203 0 m 1,0,-1
 203 246 l 1,1,-1
 17 623 l 1,2,-1
 133 623 l 1,3,-1
 262 363 l 1,4,-1
 376 623 l 1,5,-1
 487 623 l 1,6,-1
 316 245 l 1,7,-1
 316 0 l 1,8,-1
 203 0 l 1,0,-1
EndSplineSet
EndChar

StartChar: Z
Encoding: 90 90 63
Width: 500
Flags: W
LayerCount: 2
Fore
SplineSet
39 72 m 1,0,-1
 327 528 l 1,1,-1
 50 528 l 1,2,-1
 50 623 l 1,3,-1
 461 623 l 1,4,-1
 461 551 l 1,5,-1
 178 94 l 1,6,-1
 430 94 l 2,7,8
 447 94 447 94 454 96 c 128,-1,9
 461 98 461 98 467 104 c 1,10,-1
 477 104 l 1,11,-1
 477 0 l 1,12,-1
 39 0 l 1,13,-1
 39 72 l 1,0,-1
EndSplineSet
EndChar

StartChar: bracketleft
Encoding: 91 91 64
Width: 500
Flags: W
LayerCount: 2
Fore
SplineSet
117 -151 m 1,0,-1
 117 730 l 1,1,-1
 430 730 l 1,2,-1
 430 625 l 1,3,-1
 224 625 l 1,4,-1
 224 -47 l 1,5,-1
 430 -47 l 1,6,-1
 430 -151 l 1,7,-1
 117 -151 l 1,0,-1
EndSplineSet
Substitution2: "'rtla' Right to Left Alternates lookup 0 subtable" bracketright
EndChar

StartChar: backslash
Encoding: 92 92 65
Width: 500
Flags: W
LayerCount: 2
Fore
SplineSet
356 -45 m 1,0,-1
 47 617 l 1,1,-1
 149 666 l 1,2,-1
 458 3 l 1,3,-1
 356 -45 l 1,0,-1
EndSplineSet
EndChar

StartChar: asciicircum
Encoding: 94 94 67
Width: 500
Flags: W
LayerCount: 2
Fore
SplineSet
159 331 m 1,0,-1
 72 374 l 1,1,-1
 225 624 l 1,2,-1
 281 624 l 1,3,-1
 422 375 l 1,4,-1
 336 332 l 1,5,-1
 249 484 l 1,6,-1
 159 331 l 1,0,-1
EndSplineSet
EndChar

StartChar: underscore
Encoding: 95 95 68
Width: 500
Flags: W
LayerCount: 2
Fore
SplineSet
31 -101 m 1,0,-1
 31 -11 l 1,1,-1
 469 -11 l 1,2,-1
 469 -101 l 1,3,-1
 31 -101 l 1,0,-1
EndSplineSet
EndChar

StartChar: grave
Encoding: 96 96 69
Width: 500
Flags: W
LayerCount: 2
Fore
SplineSet
253 504 m 1,0,-1
 143 646 l 1,1,-1
 222 703 l 1,2,-1
 305 537 l 1,3,-1
 253 504 l 1,0,-1
EndSplineSet
EndChar

StartChar: a
Encoding: 97 97 70
Width: 500
Flags: W
LayerCount: 2
Fore
SplineSet
198 -12 m 0,0,1
 121 -12 121 -12 78.5 24 c 128,-1,2
 36 60 36 60 36 119 c 0,3,4
 36 193 36 193 102.5 241.5 c 128,-1,5
 169 290 169 290 296 290 c 0,6,7
 303 290 303 290 314.5 290 c 128,-1,8
 326 290 326 290 339 289 c 1,9,10
 332 347 332 347 306 367.5 c 128,-1,11
 280 388 280 388 236 388 c 0,12,13
 204 388 204 388 176 377.5 c 128,-1,14
 148 367 148 367 120 339 c 1,15,-1
 58 407 l 1,16,17
 98 444 98 444 145 460 c 128,-1,18
 192 476 192 476 241 476 c 0,19,20
 299 476 299 476 347 457.5 c 128,-1,21
 395 439 395 439 423 393.5 c 128,-1,22
 451 348 451 348 451 268 c 2,23,-1
 451 0 l 1,24,-1
 334 0 l 1,25,-1
 334 50 l 1,26,27
 308 15 308 15 274 1.5 c 128,-1,28
 240 -12 240 -12 198 -12 c 0,0,1
149 133 m 0,29,30
 149 101 149 101 169.5 88.5 c 128,-1,31
 190 76 190 76 220 76 c 0,32,33
 274 76 274 76 304 108.5 c 128,-1,34
 334 141 334 141 340 211 c 1,35,36
 327 211 327 211 315 211.5 c 128,-1,37
 303 212 303 212 294 212 c 0,38,39
 214 212 214 212 181.5 190 c 128,-1,40
 149 168 149 168 149 133 c 0,29,30
EndSplineSet
EndChar

StartChar: b
Encoding: 98 98 71
Width: 500
Flags: W
LayerCount: 2
Fore
SplineSet
279 -12 m 0,0,1
 242 -12 242 -12 209 4 c 128,-1,2
 176 20 176 20 153 51 c 1,3,-1
 134 0 l 1,4,-1
 48 0 l 1,5,-1
 48 671 l 1,6,-1
 171 671 l 1,7,-1
 171 662 l 1,8,9
 165 656 165 656 163.5 648.5 c 128,-1,10
 162 641 162 641 162 625 c 2,11,-1
 162 413 l 1,12,13
 183 442 183 442 215.5 459.5 c 128,-1,14
 248 477 248 477 284 476 c 0,15,16
 369 475 369 475 420.5 416.5 c 128,-1,17
 472 358 472 358 472 240 c 0,18,19
 472 155 472 155 445 99 c 128,-1,20
 418 43 418 43 374 15.5 c 128,-1,21
 330 -12 330 -12 279 -12 c 0,0,1
256 76 m 0,22,23
 298 76 298 76 328.5 110.5 c 128,-1,24
 359 145 359 145 359 230 c 0,25,26
 359 306 359 306 332.5 348.5 c 128,-1,27
 306 391 306 391 258 391 c 0,28,29
 214 391 214 391 188.5 349.5 c 128,-1,30
 163 308 163 308 163 235 c 0,31,32
 163 158 163 158 185.5 117 c 128,-1,33
 208 76 208 76 256 76 c 0,22,23
EndSplineSet
EndChar

StartChar: c
Encoding: 99 99 72
Width: 500
Flags: W
LayerCount: 2
Fore
SplineSet
278 -12 m 0,0,1
 210 -12 210 -12 156 19 c 128,-1,2
 102 50 102 50 70.5 104.5 c 128,-1,3
 39 159 39 159 39 229 c 0,4,5
 39 298 39 298 70.5 354 c 128,-1,6
 102 410 102 410 156 443 c 128,-1,7
 210 476 210 476 279 476 c 0,8,9
 343 476 343 476 391 452 c 128,-1,10
 439 428 439 428 467 386 c 1,11,-1
 404 317 l 1,12,-1
 398 310 l 1,13,-1
 390 316 l 1,14,15
 390 325 390 325 388 332.5 c 128,-1,16
 386 340 386 340 375 353 c 0,17,18
 356 371 356 371 332.5 378 c 128,-1,19
 309 385 309 385 280 385 c 0,20,21
 247 385 247 385 218 367 c 128,-1,22
 189 349 189 349 171.5 314 c 128,-1,23
 154 279 154 279 154 229 c 0,24,25
 154 184 154 184 172 150.5 c 128,-1,26
 190 117 190 117 219.5 98.5 c 128,-1,27
 249 80 249 80 283 80 c 0,28,29
 314 80 314 80 344 93 c 128,-1,30
 374 106 374 106 400 138 c 1,31,-1
 463 66 l 1,32,33
 426 25 426 25 377 6.5 c 128,-1,34
 328 -12 328 -12 278 -12 c 0,0,1
EndSplineSet
EndChar

StartChar: d
Encoding: 100 100 73
Width: 500
Flags: W
LayerCount: 2
Fore
SplineSet
226 -11 m 0,0,1
 174 -11 174 -11 130.5 16 c 128,-1,2
 87 43 87 43 60 98 c 128,-1,3
 33 153 33 153 33 235 c 0,4,5
 33 316 33 316 59 369.5 c 128,-1,6
 85 423 85 423 129 450 c 128,-1,7
 173 477 173 477 227 477 c 0,8,9
 262 477 262 477 292 464 c 128,-1,10
 322 451 322 451 339 422 c 1,11,-1
 339 671 l 1,12,-1
 460 671 l 1,13,-1
 460 662 l 1,14,15
 454 656 454 656 452.5 648.5 c 128,-1,16
 451 641 451 641 451 625 c 2,17,-1
 450 62 l 2,18,19
 450 46 450 46 452 31 c 128,-1,20
 454 16 454 16 461 0 c 1,21,-1
 350 0 l 1,22,23
 342 16 342 16 341 25.5 c 128,-1,24
 340 35 340 35 340 51 c 1,25,26
 321 19 321 19 291 4 c 128,-1,27
 261 -11 261 -11 226 -11 c 0,0,1
245 80 m 0,28,29
 337 80 337 80 337 234 c 0,30,31
 337 389 337 389 242 389 c 0,32,33
 194 389 194 389 169 348 c 128,-1,34
 144 307 144 307 144 237 c 0,35,36
 144 163 144 163 173.5 121.5 c 128,-1,37
 203 80 203 80 245 80 c 0,28,29
EndSplineSet
EndChar

StartChar: e
Encoding: 101 101 74
Width: 500
Flags: W
LayerCount: 2
Fore
SplineSet
271 -11 m 0,0,1
 204 -11 204 -11 151.5 17 c 128,-1,2
 99 45 99 45 69 99 c 128,-1,3
 39 153 39 153 39 229 c 0,4,5
 39 307 39 307 68.5 362 c 128,-1,6
 98 417 98 417 147.5 446.5 c 128,-1,7
 197 476 197 476 258 476 c 0,8,9
 312 476 312 476 357.5 451 c 128,-1,10
 403 426 403 426 430.5 375.5 c 128,-1,11
 458 325 458 325 458 250 c 0,12,13
 458 240 458 240 457.5 226 c 128,-1,14
 457 212 457 212 456 202 c 1,15,-1
 148 202 l 1,16,17
 150 158 150 158 169 130.5 c 128,-1,18
 188 103 188 103 216 90 c 128,-1,19
 244 77 244 77 276 77 c 0,20,21
 307 77 307 77 335 87 c 128,-1,22
 363 97 363 97 387 121 c 1,23,-1
 445 65 l 1,24,25
 411 25 411 25 367 7 c 128,-1,26
 323 -11 323 -11 271 -11 c 0,0,1
150 287 m 1,27,-1
 348 287 l 1,28,29
 348 336 348 336 323 362 c 128,-1,30
 298 388 298 388 253 388 c 0,31,32
 214 388 214 388 185 363.5 c 128,-1,33
 156 339 156 339 150 287 c 1,27,-1
EndSplineSet
EndChar

StartChar: f
Encoding: 102 102 75
Width: 500
Flags: W
LayerCount: 2
Fore
SplineSet
139 377 m 1,0,-1
 38 377 l 1,1,-1
 38 465 l 1,2,-1
 139 465 l 1,3,-1
 139 493 l 2,4,5
 139 556 139 556 165.5 597 c 128,-1,6
 192 638 192 638 236 658 c 128,-1,7
 280 678 280 678 331 678 c 0,8,9
 429 678 429 678 487 614 c 1,10,-1
 445 537 l 1,11,-1
 440 529 l 1,12,-1
 432 534 l 1,13,14
 429 541 429 541 425.5 548.5 c 128,-1,15
 422 556 422 556 410 567 c 0,16,17
 393 580 393 580 376 585 c 128,-1,18
 359 590 359 590 337 590 c 0,19,20
 297 590 297 590 274 566 c 128,-1,21
 251 542 251 542 251 494 c 2,22,-1
 251 465 l 1,23,-1
 391 465 l 1,24,-1
 391 377 l 1,25,-1
 251 377 l 1,26,-1
 251 0 l 1,27,-1
 139 0 l 1,28,-1
 139 377 l 1,0,-1
EndSplineSet
EndChar

StartChar: g
Encoding: 103 103 76
Width: 500
Flags: W
LayerCount: 2
Fore
SplineSet
230 157 m 0,0,1
 195 157 195 157 163 168 c 1,2,3
 154 160 154 160 148 153.5 c 128,-1,4
 142 147 142 147 142 136 c 0,5,6
 142 118 142 118 178 109 c 128,-1,7
 214 100 214 100 301 100 c 0,8,9
 361 100 361 100 395 83 c 128,-1,10
 429 66 429 66 444 37.5 c 128,-1,11
 459 9 459 9 459 -24 c 0,12,13
 459 -63 459 -63 435.5 -98.5 c 128,-1,14
 412 -134 412 -134 363.5 -156.5 c 128,-1,15
 315 -179 315 -179 239 -179 c 0,16,17
 140 -179 140 -179 84 -145.5 c 128,-1,18
 28 -112 28 -112 28 -56 c 0,19,20
 28 -26 28 -26 47.5 -0.5 c 128,-1,21
 67 25 67 25 96 40 c 1,22,23
 77 52 77 52 66.5 68.5 c 128,-1,24
 56 85 56 85 56 107 c 0,25,26
 56 136 56 136 72 158 c 128,-1,27
 88 180 88 180 111 199 c 1,28,29
 86 220 86 220 71.5 250.5 c 128,-1,30
 57 281 57 281 57 317 c 0,31,32
 57 362 57 362 79.5 398.5 c 128,-1,33
 102 435 102 435 141 457 c 128,-1,34
 180 479 180 479 230 479 c 0,35,36
 262 479 262 479 291 469 c 128,-1,37
 320 459 320 459 342 441 c 1,38,39
 369 460 369 460 402 470 c 128,-1,40
 435 480 435 480 473 477 c 1,41,-1
 484 399 l 1,42,43
 458 404 458 404 432.5 401 c 128,-1,44
 407 398 407 398 386 387 c 1,45,46
 402 354 402 354 402 317 c 0,47,48
 402 271 402 271 379.5 235 c 128,-1,49
 357 199 357 199 318 178 c 128,-1,50
 279 157 279 157 230 157 c 0,0,1
229 239 m 0,51,52
 263 239 263 239 285 261 c 128,-1,53
 307 283 307 283 307 317 c 0,54,55
 307 350 307 350 284.5 371.5 c 128,-1,56
 262 393 262 393 229 393 c 0,57,58
 199 393 199 393 175.5 371 c 128,-1,59
 152 349 152 349 152 317 c 256,60,61
 152 285 152 285 174.5 262 c 128,-1,62
 197 239 197 239 229 239 c 0,51,52
115 -39 m 0,63,64
 115 -66 115 -66 152.5 -78.5 c 128,-1,65
 190 -91 190 -91 248 -91 c 0,66,67
 305 -91 305 -91 335.5 -76 c 128,-1,68
 366 -61 366 -61 366 -36 c 0,69,70
 366 -13 366 -13 346.5 -3.5 c 128,-1,71
 327 6 327 6 270 6 c 0,72,73
 239 6 239 6 209 9 c 128,-1,74
 179 12 179 12 153 18 c 1,75,76
 137 6 137 6 126 -7 c 128,-1,77
 115 -20 115 -20 115 -39 c 0,63,64
EndSplineSet
EndChar

StartChar: h
Encoding: 104 104 77
Width: 500
Flags: W
LayerCount: 2
Fore
SplineSet
55 671 m 1,0,-1
 177 671 l 1,1,-1
 177 662 l 1,2,3
 172 656 172 656 170.5 648.5 c 128,-1,4
 169 641 169 641 169 625 c 2,5,-1
 169 404 l 1,6,7
 194 440 194 440 231 458 c 128,-1,8
 268 476 268 476 305 476 c 0,9,10
 372 476 372 476 413 430.5 c 128,-1,11
 454 385 454 385 454 281 c 2,12,-1
 454 0 l 1,13,-1
 340 0 l 1,14,-1
 340 279 l 2,15,16
 340 340 340 340 322.5 364.5 c 128,-1,17
 305 389 305 389 275 389 c 0,18,19
 232 389 232 389 200.5 356.5 c 128,-1,20
 169 324 169 324 169 267 c 2,21,-1
 169 0 l 1,22,-1
 55 0 l 1,23,-1
 55 671 l 1,0,-1
EndSplineSet
EndChar

StartChar: k
Encoding: 107 107 80
Width: 500
Flags: W
LayerCount: 2
Fore
SplineSet
204 211 m 1,0,-1
 167 174 l 1,1,-1
 167 0 l 1,2,-1
 52 0 l 1,3,-1
 52 671 l 1,4,-1
 175 671 l 1,5,-1
 175 662 l 1,6,7
 169 656 169 656 168 648.5 c 128,-1,8
 167 641 167 641 167 625 c 2,9,-1
 167 297 l 1,10,-1
 345 469 l 1,11,12
 360 466 360 466 380 464 c 128,-1,13
 400 462 400 462 413 462 c 2,14,-1
 467 462 l 1,15,-1
 282 281 l 1,16,-1
 492 1 l 1,17,-1
 363 -4 l 1,18,-1
 204 211 l 1,0,-1
EndSplineSet
EndChar

StartChar: l
Encoding: 108 108 81
Width: 500
Flags: W
LayerCount: 2
Fore
SplineSet
63 0 m 1,0,-1
 63 89 l 1,1,-1
 194 89 l 1,2,-1
 194 582 l 1,3,-1
 69 582 l 1,4,-1
 69 671 l 1,5,-1
 308 671 l 1,6,-1
 308 89 l 1,7,-1
 438 89 l 1,8,-1
 438 0 l 1,9,-1
 63 0 l 1,0,-1
EndSplineSet
EndChar

StartChar: m
Encoding: 109 109 82
Width: 500
Flags: W
LayerCount: 2
Fore
SplineSet
30 0 m 1,0,-1
 30 465 l 1,1,-1
 125 465 l 1,2,-1
 125 431 l 1,3,4
 142 455 142 455 163 465.5 c 128,-1,5
 184 476 184 476 206 476 c 0,6,7
 231 476 231 476 252.5 463 c 128,-1,8
 274 450 274 450 285 420 c 1,9,10
 316 476 316 476 383 476 c 0,11,12
 434 476 434 476 456.5 440.5 c 128,-1,13
 479 405 479 405 478 343 c 2,14,-1
 478 0 l 1,15,-1
 380 0 l 1,16,-1
 380 319 l 2,17,18
 380 364 380 364 373 379.5 c 128,-1,19
 366 395 366 395 352 395 c 0,20,21
 332 395 332 395 316 368.5 c 128,-1,22
 300 342 300 342 300 298 c 2,23,-1
 300 0 l 1,24,-1
 208 0 l 1,25,-1
 208 316 l 2,26,27
 208 364 208 364 201 380 c 128,-1,28
 194 396 194 396 175 396 c 0,29,30
 157 396 157 396 142.5 372.5 c 128,-1,31
 128 349 128 349 128 304 c 2,32,-1
 128 0 l 1,33,-1
 30 0 l 1,0,-1
EndSplineSet
EndChar

StartChar: n
Encoding: 110 110 83
Width: 500
Flags: W
LayerCount: 2
Fore
SplineSet
55 0 m 1,0,-1
 55 465 l 1,1,-1
 168 465 l 1,2,-1
 168 401 l 1,3,4
 193 435 193 435 226 455.5 c 128,-1,5
 259 476 259 476 302 476 c 0,6,7
 342 476 342 476 376.5 456.5 c 128,-1,8
 411 437 411 437 432 394 c 128,-1,9
 453 351 453 351 453 281 c 2,10,-1
 453 0 l 1,11,-1
 340 0 l 1,12,-1
 340 279 l 2,13,14
 340 336 340 336 322 362.5 c 128,-1,15
 304 389 304 389 272 389 c 0,16,17
 247 389 247 389 223 375.5 c 128,-1,18
 199 362 199 362 183.5 337 c 128,-1,19
 168 312 168 312 168 277 c 2,20,-1
 168 0 l 1,21,-1
 55 0 l 1,0,-1
EndSplineSet
EndChar

StartChar: o
Encoding: 111 111 84
Width: 500
Flags: W
LayerCount: 2
Fore
SplineSet
249 -10 m 0,0,1
 187 -10 187 -10 136.5 20.5 c 128,-1,2
 86 51 86 51 57 105.5 c 128,-1,3
 28 160 28 160 28 233 c 0,4,5
 28 302 28 302 57 357 c 128,-1,6
 86 412 86 412 136.5 444 c 128,-1,7
 187 476 187 476 249 476 c 0,8,9
 312 476 312 476 362.5 444 c 128,-1,10
 413 412 413 412 442.5 357 c 128,-1,11
 472 302 472 302 472 233 c 0,12,13
 472 161 472 161 442.5 106 c 128,-1,14
 413 51 413 51 362.5 20.5 c 128,-1,15
 312 -10 312 -10 249 -10 c 0,0,1
249 80 m 0,16,17
 297 80 297 80 328 122.5 c 128,-1,18
 359 165 359 165 359 233 c 0,19,20
 359 303 359 303 328 344 c 128,-1,21
 297 385 297 385 249 385 c 0,22,23
 203 385 203 385 172 344 c 128,-1,24
 141 303 141 303 141 233 c 0,25,26
 141 165 141 165 171.5 122.5 c 128,-1,27
 202 80 202 80 249 80 c 0,16,17
EndSplineSet
EndChar

StartChar: p
Encoding: 112 112 85
Width: 500
Flags: W
LayerCount: 2
Fore
SplineSet
48 -167 m 1,0,-1
 47 466 l 1,1,-1
 159 466 l 1,2,-1
 159 401 l 1,3,4
 181 440 181 440 215 458 c 128,-1,5
 249 476 249 476 290 476 c 0,6,7
 341 476 341 476 382.5 448.5 c 128,-1,8
 424 421 424 421 449 366.5 c 128,-1,9
 474 312 474 312 474 231 c 0,10,11
 474 149 474 149 448 95 c 128,-1,12
 422 41 422 41 379.5 14.5 c 128,-1,13
 337 -12 337 -12 288 -12 c 0,14,15
 251 -12 251 -12 217 1 c 128,-1,16
 183 14 183 14 163 40 c 1,17,-1
 163 -167 l 1,18,-1
 48 -167 l 1,0,-1
257 76 m 0,19,20
 286 76 286 76 310 91 c 128,-1,21
 334 106 334 106 348 141 c 128,-1,22
 362 176 362 176 362 237 c 0,23,24
 362 306 362 306 335.5 346 c 128,-1,25
 309 386 309 386 263 387 c 0,26,27
 215 388 215 388 188.5 349.5 c 128,-1,28
 162 311 162 311 162 224 c 0,29,30
 164 76 164 76 257 76 c 0,19,20
EndSplineSet
EndChar

StartChar: q
Encoding: 113 113 86
Width: 500
Flags: W
LayerCount: 2
Fore
SplineSet
340 -167 m 1,0,-1
 340 44 l 1,1,2
 324 17 324 17 293.5 3 c 128,-1,3
 263 -11 263 -11 228 -11 c 0,4,5
 165 -11 165 -11 120 19.5 c 128,-1,6
 75 50 75 50 50.5 105 c 128,-1,7
 26 160 26 160 26 232 c 0,8,9
 26 344 26 344 80.5 410 c 128,-1,10
 135 476 135 476 230 476 c 0,11,12
 271 476 271 476 298.5 461.5 c 128,-1,13
 326 447 326 447 344 419 c 1,14,-1
 344 465 l 1,15,-1
 454 465 l 1,16,-1
 454 -167 l 1,17,-1
 340 -167 l 1,0,-1
247 76 m 0,18,19
 286 76 286 76 313.5 113 c 128,-1,20
 341 150 341 150 341 237 c 0,21,22
 341 323 341 323 314 356.5 c 128,-1,23
 287 390 287 390 247 390 c 0,24,25
 202 390 202 390 171 354.5 c 128,-1,26
 140 319 140 319 140 236 c 0,27,28
 140 155 140 155 169 115.5 c 128,-1,29
 198 76 198 76 247 76 c 0,18,19
EndSplineSet
EndChar

StartChar: r
Encoding: 114 114 87
Width: 500
Flags: W
LayerCount: 2
Fore
SplineSet
89 465 m 1,0,-1
 206 465 l 1,1,-1
 205 390 l 1,2,3
 224 430 224 430 261 453 c 128,-1,4
 298 476 298 476 339 476 c 0,5,6
 417 476 417 476 468 423 c 1,7,-1
 420 328 l 1,8,-1
 417 320 l 1,9,-1
 408 324 l 1,10,11
 405 332 405 332 402 340.5 c 128,-1,12
 399 349 399 349 387 360 c 0,13,14
 373 371 373 371 357.5 377 c 128,-1,15
 342 383 342 383 324 383 c 0,16,17
 276 383 276 383 240 350 c 128,-1,18
 204 317 204 317 204 244 c 2,19,-1
 204 0 l 1,20,-1
 89 0 l 1,21,-1
 89 465 l 1,0,-1
EndSplineSet
EndChar

StartChar: s
Encoding: 115 115 88
Width: 500
Flags: W
LayerCount: 2
Fore
SplineSet
259 -11 m 0,0,1
 195 -11 195 -11 141 6 c 128,-1,2
 87 23 87 23 45 63 c 1,3,-1
 95 155 l 1,4,-1
 99 163 l 1,5,-1
 107 158 l 1,6,7
 110 151 110 151 113 142.5 c 128,-1,8
 116 134 116 134 128 123 c 0,9,10
 153 102 153 102 184.5 90 c 128,-1,11
 216 78 216 78 261 78 c 0,12,13
 303 78 303 78 326 92 c 128,-1,14
 349 106 349 106 349 129 c 256,15,16
 349 152 349 152 323.5 166 c 128,-1,17
 298 180 298 180 240 197 c 0,18,19
 164 217 164 217 119 251 c 128,-1,20
 74 285 74 285 74 342 c 256,21,22
 74 399 74 399 123.5 437.5 c 128,-1,23
 173 476 173 476 257 476 c 0,24,25
 372 476 372 476 444 405 c 1,26,-1
 389 328 l 1,27,-1
 382 320 l 1,28,-1
 375 326 l 1,29,30
 374 334 374 334 370.5 341 c 128,-1,31
 367 348 367 348 355 360 c 0,32,33
 335 374 335 374 309.5 381.5 c 128,-1,34
 284 389 284 389 259 389 c 0,35,36
 225 389 225 389 200.5 378 c 128,-1,37
 176 367 176 367 176 344 c 0,38,39
 176 324 176 324 202 310 c 128,-1,40
 228 296 228 296 291 280 c 0,41,42
 375 259 375 259 413 224.5 c 128,-1,43
 451 190 451 190 451 136 c 0,44,45
 451 96 451 96 429 62.5 c 128,-1,46
 407 29 407 29 364.5 9 c 128,-1,47
 322 -11 322 -11 259 -11 c 0,0,1
EndSplineSet
EndChar

StartChar: t
Encoding: 116 116 89
Width: 500
Flags: W
LayerCount: 2
Fore
SplineSet
299 -10 m 0,0,1
 245 -10 245 -10 210 13.5 c 128,-1,2
 175 37 175 37 159 92 c 128,-1,3
 143 147 143 147 147 241 c 2,4,-1
 152 376 l 1,5,-1
 57 376 l 1,6,-1
 59 465 l 1,7,-1
 156 465 l 1,8,-1
 160 575 l 1,9,-1
 277 590 l 1,10,-1
 286 591 l 1,11,-1
 287 582 l 1,12,13
 282 575 282 575 278.5 567.5 c 128,-1,14
 275 560 275 560 274 544 c 2,15,-1
 267 465 l 1,16,-1
 417 465 l 1,17,-1
 416 376 l 1,18,-1
 266 376 l 1,19,-1
 260 243 l 2,20,21
 257 178 257 178 264.5 143 c 128,-1,22
 272 108 272 108 287.5 94.5 c 128,-1,23
 303 81 303 81 325 81 c 0,24,25
 357 81 357 81 382.5 94 c 128,-1,26
 408 107 408 107 430 124 c 1,27,-1
 454 42 l 1,28,29
 419 17 419 17 381 3.5 c 128,-1,30
 343 -10 343 -10 299 -10 c 0,0,1
EndSplineSet
EndChar

StartChar: u
Encoding: 117 117 90
Width: 500
Flags: W
LayerCount: 2
Fore
SplineSet
212 -12 m 0,0,1
 141 -12 141 -12 95 36 c 128,-1,2
 49 84 49 84 49 192 c 2,3,-1
 49 465 l 1,4,-1
 163 465 l 1,5,-1
 163 192 l 2,6,7
 163 130 163 130 183.5 104.5 c 128,-1,8
 204 79 204 79 235 79 c 0,9,10
 277 79 277 79 303.5 109 c 128,-1,11
 330 139 330 139 330 200 c 2,12,-1
 330 465 l 1,13,-1
 443 465 l 1,14,-1
 443 74 l 2,15,16
 443 52 443 52 444.5 34.5 c 128,-1,17
 446 17 446 17 453 0 c 1,18,-1
 350 0 l 1,19,20
 342 15 342 15 341 30 c 128,-1,21
 340 45 340 45 340 60 c 1,22,23
 319 24 319 24 284.5 6 c 128,-1,24
 250 -12 250 -12 212 -12 c 0,0,1
EndSplineSet
EndChar

StartChar: v
Encoding: 118 118 91
Width: 500
Flags: W
LayerCount: 2
Fore
SplineSet
204 0 m 1,0,-1
 29 465 l 1,1,-1
 147 465 l 1,2,-1
 259 152 l 1,3,-1
 313 284 l 2,4,5
 332 332 332 332 343.5 377.5 c 128,-1,6
 355 423 355 423 358 465 c 1,7,-1
 464 465 l 1,8,9
 459 421 459 421 442.5 371.5 c 128,-1,10
 426 322 426 322 405 271 c 2,11,-1
 293 0 l 1,12,-1
 204 0 l 1,0,-1
EndSplineSet
EndChar

StartChar: w
Encoding: 119 119 92
Width: 500
Flags: W
LayerCount: 2
Fore
SplineSet
95 0 m 1,0,-1
 9 465 l 1,1,-1
 107 465 l 1,2,-1
 160 147 l 1,3,-1
 226 413 l 1,4,-1
 285 413 l 1,5,-1
 363 149 l 1,6,7
 375 237 375 237 381 290.5 c 128,-1,8
 387 344 387 344 389 377.5 c 128,-1,9
 391 411 391 411 391 438 c 2,10,-1
 391 465 l 1,11,-1
 487 465 l 1,12,13
 481 391 481 391 470 311 c 128,-1,14
 459 231 459 231 445.5 151.5 c 128,-1,15
 432 72 432 72 418 0 c 1,16,-1
 319 0 l 1,17,-1
 254 252 l 1,18,-1
 194 0 l 1,19,-1
 95 0 l 1,0,-1
EndSplineSet
EndChar

StartChar: x
Encoding: 120 120 93
Width: 500
Flags: W
LayerCount: 2
Fore
SplineSet
28 0 m 1,0,-1
 189 233 l 1,1,-1
 30 465 l 1,2,-1
 149 465 l 1,3,-1
 249 321 l 1,4,-1
 342 465 l 1,5,-1
 456 465 l 1,6,-1
 309 237 l 1,7,-1
 476 0 l 1,8,-1
 354 0 l 1,9,-1
 249 148 l 1,10,-1
 149 0 l 1,11,-1
 28 0 l 1,0,-1
EndSplineSet
EndChar

StartChar: y
Encoding: 121 121 94
Width: 500
Flags: W
LayerCount: 2
Fore
SplineSet
126 -176 m 0,0,1
 92 -176 92 -176 66 -165 c 128,-1,2
 40 -154 40 -154 15 -133 c 1,3,-1
 54 -55 l 1,4,-1
 58 -46 l 1,5,-1
 67 -50 l 1,6,7
 70 -58 70 -58 74 -65 c 128,-1,8
 78 -72 78 -72 92 -81 c 0,9,10
 107 -89 107 -89 126 -89 c 0,11,12
 156 -89 156 -89 174.5 -64 c 128,-1,13
 193 -39 193 -39 212 15 c 1,14,-1
 31 465 l 1,15,-1
 144 465 l 1,16,-1
 263 158 l 1,17,-1
 313 300 l 2,18,19
 328 343 328 343 338 383 c 128,-1,20
 348 423 348 423 351 465 c 1,21,-1
 456 465 l 1,22,23
 452 420 452 420 435 370 c 128,-1,24
 418 320 418 320 401 275 c 2,25,-1
 286 -41 l 2,26,27
 258 -115 258 -115 218.5 -145.5 c 128,-1,28
 179 -176 179 -176 126 -176 c 0,0,1
EndSplineSet
EndChar

StartChar: z
Encoding: 122 122 95
Width: 500
Flags: W
LayerCount: 2
Fore
SplineSet
40 68 m 1,0,-1
 297 372 l 1,1,-1
 60 372 l 1,2,-1
 60 465 l 1,3,-1
 437 465 l 1,4,-1
 437 394 l 1,5,-1
 185 93 l 1,6,-1
 414 93 l 2,7,8
 430 93 430 93 437.5 95 c 128,-1,9
 445 97 445 97 451 103 c 1,10,-1
 460 103 l 1,11,-1
 460 0 l 1,12,-1
 40 0 l 1,13,-1
 40 68 l 1,0,-1
EndSplineSet
EndChar

StartChar: braceleft
Encoding: 123 123 96
Width: 500
Flags: W
LayerCount: 2
Fore
SplineSet
364 -110 m 2,0,1
 294 -110 294 -110 242.5 -93.5 c 128,-1,2
 191 -77 191 -77 163.5 -34.5 c 128,-1,3
 136 8 136 8 137 85 c 2,4,-1
 140 183 l 2,5,6
 140 243 140 243 121.5 260.5 c 128,-1,7
 103 278 103 278 69 278 c 2,8,-1
 36 278 l 1,9,-1
 36 373 l 1,10,-1
 68 373 l 2,11,12
 105 373 105 373 123.5 392.5 c 128,-1,13
 142 412 142 412 142 463 c 2,14,-1
 140 556 l 2,15,16
 140 650 140 650 193.5 698 c 128,-1,17
 247 746 247 746 340 746 c 2,18,-1
 413 746 l 1,19,-1
 413 650 l 1,20,-1
 322 650 l 2,21,22
 247 650 247 650 247 566 c 2,23,-1
 249 476 l 2,24,25
 249 371 249 371 171 326 c 1,26,27
 207 307 207 307 227 266.5 c 128,-1,28
 247 226 247 226 247 166 c 2,29,-1
 244 86 l 2,30,31
 244 30 244 30 269 7 c 128,-1,32
 294 -16 294 -16 350 -16 c 2,33,-1
 412 -16 l 1,34,-1
 412 -110 l 1,35,-1
 364 -110 l 2,0,1
EndSplineSet
Substitution2: "'rtla' Right to Left Alternates lookup 0 subtable" braceright
EndChar

StartChar: bar
Encoding: 124 124 97
Width: 500
Flags: W
LayerCount: 2
Fore
SplineSet
199 -131 m 1,0,-1
 199 752 l 1,1,-1
 302 752 l 1,2,-1
 302 -131 l 1,3,-1
 199 -131 l 1,0,-1
EndSplineSet
EndChar

StartChar: asciitilde
Encoding: 126 126 99
Width: 500
Flags: W
LayerCount: 2
Fore
SplineSet
344 249 m 0,0,1
 310 248 310 248 286.5 261.5 c 128,-1,2
 263 275 263 275 242 289 c 128,-1,3
 221 303 221 303 197 303 c 0,4,5
 171 303 171 303 152 292.5 c 128,-1,6
 133 282 133 282 117 257 c 1,7,-1
 46 312 l 1,8,9
 67 347 67 347 103 370.5 c 128,-1,10
 139 394 139 394 186 394 c 0,11,12
 218 394 218 394 243 380.5 c 128,-1,13
 268 367 268 367 290 353.5 c 128,-1,14
 312 340 312 340 334 340 c 0,15,16
 357 340 357 340 375 354.5 c 128,-1,17
 393 369 393 369 410 392 c 1,18,-1
 471 328 l 1,19,20
 444 290 444 290 412 269.5 c 128,-1,21
 380 249 380 249 344 249 c 0,0,1
EndSplineSet
EndChar

StartChar: cent
Encoding: 162 162 102
Width: 500
Flags: W
LayerCount: 2
Fore
SplineSet
278 -73 m 1,0,-1
 182 -73 l 1,1,-1
 198 44 l 1,2,3
 127 67 127 67 83 128 c 128,-1,4
 39 189 39 189 39 272 c 0,5,6
 39 338 39 338 68 392.5 c 128,-1,7
 97 447 97 447 147.5 480.5 c 128,-1,8
 198 514 198 514 263 518 c 1,9,-1
 277 623 l 1,10,-1
 370 623 l 1,11,-1
 355 509 l 1,12,13
 427 488 427 488 467 429 c 1,14,-1
 404 360 l 1,15,-1
 398 353 l 1,16,-1
 390 359 l 1,17,18
 390 368 390 368 388 375.5 c 128,-1,19
 386 383 386 383 375 396 c 0,20,21
 360 410 360 410 343 417 c 1,22,-1
 304 125 l 1,23,24
 330 128 330 128 354 141 c 128,-1,25
 378 154 378 154 400 181 c 1,26,-1
 463 109 l 1,27,28
 428 71 428 71 383 52.5 c 128,-1,29
 338 34 338 34 292 32 c 1,30,-1
 278 -73 l 1,0,-1
154 272 m 0,31,32
 154 229 154 229 170 197 c 128,-1,33
 186 165 186 165 212 146 c 1,34,-1
 250 424 l 1,35,36
 210 413 210 413 182 374 c 128,-1,37
 154 335 154 335 154 272 c 0,31,32
EndSplineSet
EndChar

StartChar: sterling
Encoding: 163 163 103
Width: 500
Flags: W
LayerCount: 2
Fore
SplineSet
67 -13 m 1,0,-1
 31 74 l 1,1,2
 70 91 70 91 93 108.5 c 128,-1,3
 116 126 116 126 126.5 152.5 c 128,-1,4
 137 179 137 179 137 224 c 0,5,6
 137 240 137 240 134 261 c 128,-1,7
 131 282 131 282 125 307 c 1,8,-1
 62 307 l 1,9,-1
 62 395 l 1,10,-1
 108 395 l 1,11,12
 102 421 102 421 102 446 c 0,13,14
 102 501 102 501 127 541.5 c 128,-1,15
 152 582 152 582 194 604.5 c 128,-1,16
 236 627 236 627 286 627 c 0,17,18
 366 627 366 627 427 565 c 1,19,-1
 369 489 l 1,20,21
 355 509 355 509 335 523.5 c 128,-1,22
 315 538 315 538 279 538 c 0,23,24
 248 538 248 538 228 513 c 128,-1,25
 208 488 208 488 208 447 c 0,26,27
 208 429 208 429 214 395 c 1,28,-1
 338 395 l 1,29,-1
 338 307 l 1,30,-1
 232 307 l 1,31,32
 237 284 237 284 239.5 263.5 c 128,-1,33
 242 243 242 243 242 226 c 0,34,35
 242 194 242 194 235.5 167 c 128,-1,36
 229 140 229 140 214 115 c 1,37,38
 241 119 241 119 265.5 109 c 128,-1,39
 290 99 290 99 315 88 c 128,-1,40
 340 77 340 77 367 77 c 0,41,42
 384 77 384 77 401 85.5 c 128,-1,43
 418 94 418 94 440 113 c 1,44,-1
 476 34 l 1,45,46
 446 10 446 10 418.5 -2 c 128,-1,47
 391 -14 391 -14 359 -14 c 0,48,49
 336 -14 336 -14 306.5 -3.5 c 128,-1,50
 277 7 277 7 246.5 18 c 128,-1,51
 216 29 216 29 190 29 c 0,52,53
 162 29 162 29 134 18 c 128,-1,54
 106 7 106 7 67 -13 c 1,0,-1
EndSplineSet
EndChar

StartChar: currency
Encoding: 164 164 104
Width: 500
Flags: W
LayerCount: 2
Fore
SplineSet
117 151 m 1,0,-1
 52 210 l 1,1,-1
 107 266 l 1,2,3
 85 304 85 304 85 346 c 0,4,5
 85 367 85 367 90 387 c 128,-1,6
 95 407 95 407 107 427 c 1,7,-1
 52 482 l 1,8,-1
 117 541 l 1,9,-1
 171 487 l 1,10,11
 189 496 189 496 210 501.5 c 128,-1,12
 231 507 231 507 251 507 c 256,13,14
 271 507 271 507 291 502 c 128,-1,15
 311 497 311 497 329 488 c 1,16,-1
 383 541 l 1,17,-1
 448 482 l 1,18,-1
 393 428 l 1,19,20
 406 408 406 408 411 387.5 c 128,-1,21
 416 367 416 367 416 346 c 0,22,23
 416 301 416 301 393 264 c 1,24,-1
 448 210 l 1,25,-1
 383 151 l 1,26,-1
 330 204 l 1,27,28
 311 194 311 194 291.5 189.5 c 128,-1,29
 272 185 272 185 251 185 c 0,30,31
 205 185 205 185 170 205 c 1,32,-1
 117 151 l 1,0,-1
250 264 m 256,33,34
 286 264 286 264 305 287.5 c 128,-1,35
 324 311 324 311 324 345 c 256,36,37
 324 379 324 379 305 403 c 128,-1,38
 286 427 286 427 250 427 c 256,39,40
 214 427 214 427 195 403 c 128,-1,41
 176 379 176 379 176 345 c 256,42,43
 176 311 176 311 195 287.5 c 128,-1,44
 214 264 214 264 250 264 c 256,33,34
EndSplineSet
EndChar

StartChar: yen
Encoding: 165 165 105
Width: 500
Flags: W
LayerCount: 2
Fore
SplineSet
312 0 m 1,0,-1
 203 0 l 1,1,-1
 203 108 l 1,2,-1
 74 108 l 1,3,-1
 74 172 l 1,4,-1
 203 172 l 1,5,-1
 203 224 l 1,6,-1
 74 224 l 1,7,-1
 74 289 l 1,8,-1
 200 289 l 1,9,-1
 17 623 l 1,10,-1
 141 623 l 1,11,-1
 258 387 l 1,12,-1
 366 623 l 1,13,-1
 483 623 l 1,14,-1
 312 289 l 1,15,-1
 435 289 l 1,16,-1
 435 224 l 1,17,-1
 312 224 l 1,18,-1
 312 172 l 1,19,-1
 435 172 l 1,20,-1
 435 108 l 1,21,-1
 312 108 l 1,22,-1
 312 0 l 1,0,-1
EndSplineSet
EndChar

StartChar: brokenbar
Encoding: 166 166 106
Width: 500
Flags: W
LayerCount: 2
Fore
SplineSet
199 284 m 1,0,-1
 199 652 l 1,1,-1
 302 652 l 1,2,-1
 302 284 l 1,3,-1
 199 284 l 1,0,-1
199 -151 m 1,4,-1
 199 206 l 1,5,-1
 302 206 l 1,6,-1
 302 -151 l 1,7,-1
 199 -151 l 1,4,-1
EndSplineSet
EndChar

StartChar: section
Encoding: 167 167 107
Width: 500
Flags: W
LayerCount: 2
Fore
SplineSet
238 -57 m 0,0,1
 183 -57 183 -57 134 -35 c 128,-1,2
 85 -13 85 -13 49 33 c 1,3,-1
 118 132 l 1,4,5
 125 131 125 131 124.5 125 c 128,-1,6
 124 119 124 119 126.5 108 c 128,-1,7
 129 97 129 97 146 79 c 0,8,9
 162 62 162 62 181.5 51.5 c 128,-1,10
 201 41 201 41 232 41 c 0,11,12
 267 41 267 41 287 59 c 128,-1,13
 307 77 307 77 307 99 c 0,14,15
 307 124 307 124 288 141 c 128,-1,16
 269 158 269 158 215 174 c 0,17,18
 136 199 136 199 102.5 234.5 c 128,-1,19
 69 270 69 270 69 317 c 0,20,21
 69 346 69 346 89 375 c 128,-1,22
 109 404 109 404 142 418 c 1,23,24
 115 433 115 433 99 460.5 c 128,-1,25
 83 488 83 488 83 524 c 0,26,27
 83 564 83 564 105 599 c 128,-1,28
 127 634 127 634 166 655.5 c 128,-1,29
 205 677 205 677 256 677 c 0,30,31
 311 677 311 677 356.5 650.5 c 128,-1,32
 402 624 402 624 427 575 c 1,33,-1
 350 506 l 1,34,35
 346 510 346 510 344 513 c 128,-1,36
 342 516 342 516 340 524 c 0,37,38
 336 548 336 548 313.5 567.5 c 128,-1,39
 291 587 291 587 263 587 c 0,40,41
 232 587 232 587 214 570.5 c 128,-1,42
 196 554 196 554 196 529 c 0,43,44
 196 501 196 501 222 482.5 c 128,-1,45
 248 464 248 464 306 444 c 0,46,47
 333 434 333 434 361 415.5 c 128,-1,48
 389 397 389 397 408 370 c 128,-1,49
 427 343 427 343 427 307 c 0,50,51
 427 276 427 276 408.5 248.5 c 128,-1,52
 390 221 390 221 363 208 c 1,53,54
 389 188 389 188 403.5 161.5 c 128,-1,55
 418 135 418 135 418 106 c 0,56,57
 418 60 418 60 395 23 c 128,-1,58
 372 -14 372 -14 331.5 -35.5 c 128,-1,59
 291 -57 291 -57 238 -57 c 0,0,1
303 241 m 1,60,61
 326 260 326 260 326 290 c 0,62,63
 326 316 326 316 301 334 c 128,-1,64
 276 352 276 352 235 370 c 2,65,-1
 203 382 l 1,66,67
 191 375 191 375 183 361.5 c 128,-1,68
 175 348 175 348 175 332 c 0,69,70
 175 309 175 309 195 293 c 128,-1,71
 215 277 215 277 255 261 c 0,72,73
 269 256 269 256 281 251 c 128,-1,74
 293 246 293 246 303 241 c 1,60,61
EndSplineSet
EndChar

StartChar: dieresis
Encoding: 168 168 108
Width: 500
Flags: W
LayerCount: 2
Fore
SplineSet
159 548 m 0,0,1
 132 548 132 548 112 567 c 128,-1,2
 92 586 92 586 92 612 c 256,3,4
 92 638 92 638 112 657.5 c 128,-1,5
 132 677 132 677 159 677 c 0,6,7
 189 677 189 677 208 657 c 128,-1,8
 227 637 227 637 227 612 c 0,9,10
 227 586 227 586 207 567 c 128,-1,11
 187 548 187 548 159 548 c 0,0,1
343 548 m 0,12,13
 316 548 316 548 296.5 566.5 c 128,-1,14
 277 585 277 585 277 612 c 256,15,16
 277 639 277 639 296.5 658 c 128,-1,17
 316 677 316 677 343 677 c 0,18,19
 374 677 374 677 392 656.5 c 128,-1,20
 410 636 410 636 410 612 c 0,21,22
 410 586 410 586 390.5 567 c 128,-1,23
 371 548 371 548 343 548 c 0,12,13
EndSplineSet
EndChar

StartChar: copyright
Encoding: 169 169 109
Width: 500
Flags: W
LayerCount: 2
Fore
SplineSet
247 18 m 0,0,1
 179 18 179 18 124.5 52.5 c 128,-1,2
 70 87 70 87 37.5 145 c 128,-1,3
 5 203 5 203 5 273 c 256,4,5
 5 343 5 343 38.5 401 c 128,-1,6
 72 459 72 459 127.5 493.5 c 128,-1,7
 183 528 183 528 251 528 c 0,8,9
 301 528 301 528 345.5 508 c 128,-1,10
 390 488 390 488 424 453 c 128,-1,11
 458 418 458 418 477.5 371.5 c 128,-1,12
 497 325 497 325 497 273 c 0,13,14
 497 202 497 202 463.5 144 c 128,-1,15
 430 86 430 86 373.5 52 c 128,-1,16
 317 18 317 18 247 18 c 0,0,1
252 76 m 0,17,18
 305 76 305 76 346.5 102.5 c 128,-1,19
 388 129 388 129 412 174 c 128,-1,20
 436 219 436 219 436 274 c 0,21,22
 436 327 436 327 410.5 372 c 128,-1,23
 385 417 385 417 343 444.5 c 128,-1,24
 301 472 301 472 252 472 c 256,25,26
 203 472 203 472 161.5 445.5 c 128,-1,27
 120 419 120 419 94.5 373.5 c 128,-1,28
 69 328 69 328 69 273 c 256,29,30
 69 218 69 218 94.5 173.5 c 128,-1,31
 120 129 120 129 161.5 102.5 c 128,-1,32
 203 76 203 76 252 76 c 0,17,18
253 127 m 0,33,34
 212 127 212 127 181 148 c 128,-1,35
 150 169 150 169 133 202.5 c 128,-1,36
 116 236 116 236 116 276 c 0,37,38
 116 317 116 317 134 349 c 128,-1,39
 152 381 152 381 182 400 c 128,-1,40
 212 419 212 419 247 419 c 0,41,42
 304 419 304 419 338 390 c 128,-1,43
 372 361 372 361 383 317 c 1,44,-1
 310 296 l 1,45,46
 306 304 306 304 307 308.5 c 128,-1,47
 308 313 308 313 306 319 c 128,-1,48
 304 325 304 325 293 336 c 0,49,50
 281 350 281 350 257 350 c 0,51,52
 238 350 238 350 218.5 332.5 c 128,-1,53
 199 315 199 315 199 280 c 0,54,55
 199 246 199 246 215 222 c 128,-1,56
 231 198 231 198 261 198 c 0,57,58
 301 198 301 198 314 235 c 1,59,-1
 379 203 l 1,60,61
 360 168 360 168 326.5 147.5 c 128,-1,62
 293 127 293 127 253 127 c 0,33,34
EndSplineSet
EndChar

StartChar: ordfeminine
Encoding: 170 170 110
Width: 500
Flags: W
LayerCount: 2
Fore
SplineSet
209 258 m 0,0,1
 153 258 153 258 121.5 286.5 c 128,-1,2
 90 315 90 315 90 360 c 0,3,4
 90 419 90 419 139 457 c 128,-1,5
 188 495 188 495 286 495 c 0,6,7
 294 495 294 495 304 494 c 1,8,9
 299 535 299 535 282.5 548.5 c 128,-1,10
 266 562 266 562 239 562 c 0,11,12
 216 562 216 562 196 555 c 128,-1,13
 176 548 176 548 156 526 c 1,14,-1
 105 582 l 1,15,16
 135 611 135 611 170.5 623 c 128,-1,17
 206 635 206 635 243 635 c 0,18,19
 286 635 286 635 321.5 621.5 c 128,-1,20
 357 608 357 608 378 573.5 c 128,-1,21
 399 539 399 539 399 476 c 2,22,-1
 399 267 l 1,23,-1
 304 267 l 1,24,-1
 304 301 l 1,25,26
 285 277 285 277 262.5 267.5 c 128,-1,27
 240 258 240 258 209 258 c 0,0,1
184 373 m 0,28,29
 184 351 184 351 197 341.5 c 128,-1,30
 210 332 210 332 229 332 c 0,31,32
 264 332 264 332 283 354.5 c 128,-1,33
 302 377 302 377 305 428 c 1,34,35
 294 428 294 428 284 428 c 0,36,37
 225 428 225 428 204.5 412 c 128,-1,38
 184 396 184 396 184 373 c 0,28,29
69 221 m 1,39,-1
 433 221 l 1,40,-1
 433 135 l 1,41,-1
 69 135 l 1,42,-1
 69 221 l 1,39,-1
EndSplineSet
EndChar

StartChar: guillemotleft
Encoding: 171 171 111
Width: 500
Flags: W
LayerCount: 2
Fore
SplineSet
226 47 m 1,0,-1
 59 227 l 1,1,-1
 59 260 l 1,2,-1
 223 418 l 1,3,-1
 273 364 l 1,4,-1
 154 242 l 1,5,-1
 281 99 l 1,6,-1
 226 47 l 1,0,-1
393 47 m 1,7,-1
 226 227 l 1,8,-1
 226 260 l 1,9,-1
 389 418 l 1,10,-1
 444 361 l 1,11,-1
 320 242 l 1,12,-1
 451 100 l 1,13,-1
 393 47 l 1,7,-1
EndSplineSet
EndChar

StartChar: logicalnot
Encoding: 172 172 112
Width: 500
Flags: W
LayerCount: 2
Fore
SplineSet
319 154 m 1,0,-1
 319 271 l 1,1,-1
 81 271 l 1,2,-1
 81 366 l 1,3,-1
 424 366 l 1,4,-1
 424 154 l 1,5,-1
 319 154 l 1,0,-1
EndSplineSet
EndChar

StartChar: registered
Encoding: 174 174 114
Width: 500
Flags: W
LayerCount: 2
Fore
SplineSet
247 18 m 0,0,1
 179 18 179 18 124.5 52.5 c 128,-1,2
 70 87 70 87 37.5 145 c 128,-1,3
 5 203 5 203 5 273 c 256,4,5
 5 343 5 343 38.5 401 c 128,-1,6
 72 459 72 459 127.5 493.5 c 128,-1,7
 183 528 183 528 251 528 c 0,8,9
 301 528 301 528 345.5 508 c 128,-1,10
 390 488 390 488 424 453 c 128,-1,11
 458 418 458 418 477.5 371.5 c 128,-1,12
 497 325 497 325 497 273 c 0,13,14
 497 202 497 202 463.5 144 c 128,-1,15
 430 86 430 86 373.5 52 c 128,-1,16
 317 18 317 18 247 18 c 0,0,1
252 76 m 0,17,18
 305 76 305 76 346.5 102.5 c 128,-1,19
 388 129 388 129 412 174 c 128,-1,20
 436 219 436 219 436 274 c 0,21,22
 436 327 436 327 410.5 372 c 128,-1,23
 385 417 385 417 343 444.5 c 128,-1,24
 301 472 301 472 252 472 c 256,25,26
 203 472 203 472 161.5 445.5 c 128,-1,27
 120 419 120 419 94.5 373.5 c 128,-1,28
 69 328 69 328 69 273 c 256,29,30
 69 218 69 218 94.5 173.5 c 128,-1,31
 120 129 120 129 161.5 102.5 c 128,-1,32
 203 76 203 76 252 76 c 0,17,18
299 144 m 1,33,-1
 251 249 l 1,34,-1
 220 249 l 1,35,-1
 220 147 l 1,36,-1
 158 147 l 1,37,-1
 158 407 l 1,38,-1
 244 407 l 2,39,40
 306 407 306 407 332.5 385.5 c 128,-1,41
 359 364 359 364 359 329 c 0,42,43
 359 307 359 307 347.5 288 c 128,-1,44
 336 269 336 269 313 259 c 1,45,-1
 365 154 l 1,46,-1
 299 144 l 1,33,-1
220 297 m 1,47,-1
 251 297 l 2,48,49
 295 297 295 297 295 326 c 0,50,51
 295 354 295 354 248 354 c 2,52,-1
 220 354 l 1,53,-1
 220 297 l 1,47,-1
EndSplineSet
EndChar

StartChar: macron
Encoding: 175 175 115
Width: 500
Flags: W
LayerCount: 2
Fore
SplineSet
108 566 m 1,0,-1
 108 642 l 1,1,-1
 388 642 l 1,2,-1
 388 566 l 1,3,-1
 108 566 l 1,0,-1
EndSplineSet
EndChar

StartChar: degree
Encoding: 176 176 116
Width: 500
Flags: W
LayerCount: 2
Fore
SplineSet
256 382 m 256,0,1
 215 382 215 382 181.5 401 c 128,-1,2
 148 420 148 420 128.5 452.5 c 128,-1,3
 109 485 109 485 109 524 c 0,4,5
 109 564 109 564 129.5 596 c 128,-1,6
 150 628 150 628 183.5 647 c 128,-1,7
 217 666 217 666 256 666 c 0,8,9
 297 666 297 666 330.5 646.5 c 128,-1,10
 364 627 364 627 383.5 594.5 c 128,-1,11
 403 562 403 562 403 524 c 256,12,13
 403 486 403 486 383.5 453.5 c 128,-1,14
 364 421 364 421 330.5 401.5 c 128,-1,15
 297 382 297 382 256 382 c 256,0,1
256 463 m 256,16,17
 279 463 279 463 294 480.5 c 128,-1,18
 309 498 309 498 309 525 c 256,19,20
 309 552 309 552 294 570 c 128,-1,21
 279 588 279 588 256 588 c 256,22,23
 233 588 233 588 218.5 570 c 128,-1,24
 204 552 204 552 204 525 c 256,25,26
 204 498 204 498 218.5 480.5 c 128,-1,27
 233 463 233 463 256 463 c 256,16,17
EndSplineSet
EndChar

StartChar: plusminus
Encoding: 177 177 117
Width: 500
Flags: W
LayerCount: 2
Fore
SplineSet
207 151 m 1,0,-1
 207 328 l 1,1,-1
 40 328 l 1,2,-1
 40 415 l 1,3,-1
 207 415 l 1,4,-1
 207 577 l 1,5,-1
 302 577 l 1,6,-1
 302 415 l 1,7,-1
 464 415 l 1,8,-1
 464 328 l 1,9,-1
 302 328 l 1,10,-1
 302 151 l 1,11,-1
 207 151 l 1,0,-1
39 3 m 1,12,-1
 39 94 l 1,13,-1
 463 94 l 1,14,-1
 463 3 l 1,15,-1
 39 3 l 1,12,-1
EndSplineSet
EndChar

StartChar: uni00B2
Encoding: 178 178 118
Width: 500
Flags: W
LayerCount: 2
Fore
SplineSet
117 303 m 1,0,1
 183 362 183 362 225.5 399 c 128,-1,2
 268 436 268 436 288.5 464 c 128,-1,3
 309 492 309 492 309 525 c 0,4,5
 309 572 309 572 250 572 c 0,6,7
 215 572 215 572 192 557 c 1,8,9
 181 545 181 545 177.5 538 c 128,-1,10
 174 531 174 531 174 523 c 1,11,-1
 167 517 l 1,12,-1
 161 523 l 1,13,-1
 107 565 l 1,14,15
 130 601 130 601 168 619.5 c 128,-1,16
 206 638 206 638 251 638 c 0,17,18
 307 638 307 638 346 608 c 128,-1,19
 385 578 385 578 385 526 c 0,20,21
 385 487 385 487 366.5 455 c 128,-1,22
 348 423 348 423 314 389 c 128,-1,23
 280 355 280 355 232 311 c 1,24,-1
 340 311 l 2,25,26
 357 311 357 311 364 312.5 c 128,-1,27
 371 314 371 314 377 320 c 1,28,-1
 386 320 l 1,29,-1
 386 246 l 1,30,-1
 117 246 l 1,31,-1
 117 303 l 1,0,1
EndSplineSet
EndChar

StartChar: uni00B3
Encoding: 179 179 119
Width: 500
Flags: W
LayerCount: 2
Fore
SplineSet
240 239 m 0,0,1
 200 239 200 239 164 250.5 c 128,-1,2
 128 262 128 262 107 286 c 1,3,-1
 147 342 l 1,4,-1
 153 350 l 1,5,-1
 161 344 l 1,6,7
 162 336 162 336 166.5 329.5 c 128,-1,8
 171 323 171 323 184 313 c 0,9,10
 208 302 208 302 236 302 c 0,11,12
 267 302 267 302 284.5 317 c 128,-1,13
 302 332 302 332 302 357 c 0,14,15
 302 426 302 426 191 414 c 1,16,-1
 191 477 l 1,17,18
 250 475 250 475 271 490.5 c 128,-1,19
 292 506 292 506 292 527 c 256,20,21
 292 548 292 548 277.5 560.5 c 128,-1,22
 263 573 263 573 237 573 c 0,23,24
 216 573 216 573 196.5 566 c 128,-1,25
 177 559 177 559 162 543 c 1,26,-1
 116 590 l 1,27,28
 140 617 140 617 173.5 627.5 c 128,-1,29
 207 638 207 638 240 638 c 0,30,31
 297 638 297 638 334 610 c 128,-1,32
 371 582 371 582 371 538 c 0,33,34
 371 505 371 505 351.5 483 c 128,-1,35
 332 461 332 461 307 452 c 1,36,37
 335 442 335 442 358.5 419 c 128,-1,38
 382 396 382 396 382 354 c 0,39,40
 382 304 382 304 344.5 271.5 c 128,-1,41
 307 239 307 239 240 239 c 0,0,1
EndSplineSet
EndChar

StartChar: acute
Encoding: 180 180 120
Width: 500
Flags: W
LayerCount: 2
Fore
SplineSet
256 510 m 1,0,-1
 204 543 l 1,1,-1
 287 709 l 1,2,-1
 366 652 l 1,3,-1
 256 510 l 1,0,-1
EndSplineSet
EndChar

StartChar: uni00B5
Encoding: 181 181 121
Width: 500
Flags: W
LayerCount: 2
Fore
SplineSet
14 -154 m 1,0,1
 14 -116 14 -116 23 -22.5 c 128,-1,2
 32 71 32 71 32 204 c 2,3,-1
 32 465 l 1,4,-1
 143 465 l 1,5,-1
 143 183 l 2,6,7
 143 121 143 121 160.5 98.5 c 128,-1,8
 178 76 178 76 206 76 c 0,9,10
 271 76 271 76 271 181 c 2,11,-1
 271 465 l 1,12,-1
 380 465 l 1,13,-1
 380 125 l 2,14,15
 380 83 380 83 408 83 c 0,16,17
 418 83 418 83 429 92 c 128,-1,18
 440 101 440 101 445 112 c 2,19,-1
 453 127 l 1,20,-1
 495 48 l 1,21,22
 473 18 473 18 448 3.5 c 128,-1,23
 423 -11 423 -11 398 -11 c 0,24,25
 372 -11 372 -11 353 5.5 c 128,-1,26
 334 22 334 22 325 44 c 1,27,28
 312 19 312 19 284 5 c 128,-1,29
 256 -9 256 -9 222 -9 c 0,30,31
 192 -9 192 -9 163.5 3.5 c 128,-1,32
 135 16 135 16 120 44 c 1,33,34
 120 18 120 18 119.5 -18.5 c 128,-1,35
 119 -55 119 -55 118 -91.5 c 128,-1,36
 117 -128 117 -128 117 -154 c 1,37,-1
 14 -154 l 1,0,1
EndSplineSet
EndChar

StartChar: paragraph
Encoding: 182 182 122
Width: 500
Flags: W
LayerCount: 2
Fore
SplineSet
204 -69 m 1,0,-1
 204 317 l 1,1,2
 156 324 156 324 119 349.5 c 128,-1,3
 82 375 82 375 60.5 414 c 128,-1,4
 39 453 39 453 39 499 c 0,5,6
 39 543 39 543 62.5 581 c 128,-1,7
 86 619 86 619 140.5 642.5 c 128,-1,8
 195 666 195 666 289 666 c 2,9,-1
 462 666 l 1,10,-1
 462 -69 l 1,11,-1
 363 -69 l 1,12,-1
 363 577 l 1,13,-1
 304 577 l 1,14,-1
 304 -69 l 1,15,-1
 204 -69 l 1,0,-1
EndSplineSet
EndChar

StartChar: periodcentered
Encoding: 183 183 123
Width: 500
Flags: W
LayerCount: 2
Fore
SplineSet
239 258 m 256,0,1
 207 258 207 258 185 280 c 128,-1,2
 163 302 163 302 163 333 c 0,3,4
 163 365 163 365 185.5 386.5 c 128,-1,5
 208 408 208 408 239 408 c 256,6,7
 270 408 270 408 292.5 386.5 c 128,-1,8
 315 365 315 365 315 333 c 0,9,10
 315 302 315 302 293 280 c 128,-1,11
 271 258 271 258 239 258 c 256,0,1
EndSplineSet
EndChar

StartChar: cedilla
Encoding: 184 184 124
Width: 500
Flags: W
LayerCount: 2
Fore
SplineSet
270 -205 m 0,0,1
 239 -205 239 -205 208.5 -197 c 128,-1,2
 178 -189 178 -189 146 -164 c 1,3,-1
 183 -98 l 1,4,5
 209 -120 209 -120 233 -128.5 c 128,-1,6
 257 -137 257 -137 282 -137 c 0,7,8
 300 -137 300 -137 314 -130 c 128,-1,9
 328 -123 328 -123 328 -111 c 0,10,11
 328 -100 328 -100 315 -94.5 c 128,-1,12
 302 -89 302 -89 281 -89 c 2,13,-1
 232 -89 l 1,14,-1
 244 0 l 1,15,-1
 324 0 l 1,16,-1
 320 -31 l 1,17,18
 358 -35 358 -35 378 -55.5 c 128,-1,19
 398 -76 398 -76 398 -102 c 0,20,21
 398 -145 398 -145 364 -175 c 128,-1,22
 330 -205 330 -205 270 -205 c 0,0,1
EndSplineSet
EndChar

StartChar: uni00B9
Encoding: 185 185 125
Width: 500
Flags: W
LayerCount: 2
Fore
SplineSet
219 246 m 1,0,-1
 219 548 l 1,1,-1
 144 523 l 1,2,-1
 126 577 l 1,3,-1
 239 632 l 1,4,-1
 300 632 l 1,5,-1
 300 246 l 1,6,-1
 219 246 l 1,0,-1
EndSplineSet
EndChar

StartChar: ordmasculine
Encoding: 186 186 126
Width: 500
Flags: W
LayerCount: 2
Fore
SplineSet
249 259 m 0,0,1
 203 259 203 259 165.5 281.5 c 128,-1,2
 128 304 128 304 106.5 346.5 c 128,-1,3
 85 389 85 389 85 446 c 0,4,5
 85 502 85 502 107 544.5 c 128,-1,6
 129 587 129 587 166 611 c 128,-1,7
 203 635 203 635 249 635 c 0,8,9
 296 635 296 635 333.5 611 c 128,-1,10
 371 587 371 587 393 544.5 c 128,-1,11
 415 502 415 502 415 446 c 0,12,13
 415 389 415 389 393 347 c 128,-1,14
 371 305 371 305 333.5 282 c 128,-1,15
 296 259 296 259 249 259 c 0,0,1
249 334 m 0,16,17
 282 334 282 334 302.5 364.5 c 128,-1,18
 323 395 323 395 323 447 c 0,19,20
 323 501 323 501 302 530.5 c 128,-1,21
 281 560 281 560 249 560 c 0,22,23
 219 560 219 560 198 530.5 c 128,-1,24
 177 501 177 501 177 447 c 0,25,26
 177 395 177 395 197.5 364.5 c 128,-1,27
 218 334 218 334 249 334 c 0,16,17
69 221 m 1,28,-1
 433 221 l 1,29,-1
 433 135 l 1,30,-1
 69 135 l 1,31,-1
 69 221 l 1,28,-1
EndSplineSet
EndChar

StartChar: onequarter
Encoding: 188 188 128
Width: 500
Flags: W
LayerCount: 2
Fore
SplineSet
82 380 m 1,0,-1
 82 613 l 1,1,-1
 25 593 l 1,2,-1
 10 641 l 1,3,-1
 99 685 l 1,4,-1
 153 685 l 1,5,-1
 153 380 l 1,6,-1
 82 380 l 1,0,-1
123 -43 m 1,7,-1
 60 -4 l 1,8,-1
 370 671 l 1,9,-1
 434 630 l 1,10,-1
 123 -43 l 1,7,-1
380 -70 m 1,11,-1
 380 -1 l 1,12,-1
 253 -1 l 1,13,-1
 253 43 l 1,14,-1
 396 235 l 1,15,-1
 447 235 l 1,16,-1
 447 55 l 1,17,-1
 492 55 l 1,18,-1
 492 -1 l 1,19,-1
 447 -1 l 1,20,-1
 447 -70 l 1,21,-1
 380 -70 l 1,11,-1
325 54 m 1,22,-1
 383 54 l 1,23,-1
 383 133 l 1,24,-1
 325 54 l 1,22,-1
EndSplineSet
EndChar

StartChar: onehalf
Encoding: 189 189 129
Width: 500
Flags: W
LayerCount: 2
Fore
SplineSet
82 380 m 1,0,-1
 82 613 l 1,1,-1
 25 593 l 1,2,-1
 10 641 l 1,3,-1
 99 685 l 1,4,-1
 153 685 l 1,5,-1
 153 380 l 1,6,-1
 82 380 l 1,0,-1
123 -43 m 1,7,-1
 60 -4 l 1,8,-1
 370 671 l 1,9,-1
 434 630 l 1,10,-1
 123 -43 l 1,7,-1
273 -70 m 1,11,-1
 273 -21 l 1,12,13
 326 26 326 26 359 54.5 c 128,-1,14
 392 83 392 83 407.5 104.5 c 128,-1,15
 423 126 423 126 423 150 c 0,16,17
 423 166 423 166 413 174.5 c 128,-1,18
 403 183 403 183 379 183 c 0,19,20
 356 183 356 183 340 175 c 128,-1,21
 324 167 324 167 311 146 c 1,22,-1
 265 183 l 1,23,24
 304 241 304 241 380 241 c 0,25,26
 424 241 424 241 456.5 217 c 128,-1,27
 489 193 489 193 489 152 c 0,28,29
 489 121 489 121 476 97 c 128,-1,30
 463 73 463 73 437 47 c 128,-1,31
 411 21 411 21 373 -14 c 1,32,-1
 489 -14 l 1,33,-1
 489 -70 l 1,34,-1
 273 -70 l 1,11,-1
EndSplineSet
EndChar

StartChar: threequarters
Encoding: 190 190 130
Width: 500
Flags: W
LayerCount: 2
Fore
SplineSet
101 374 m 0,0,1
 69 374 69 374 39.5 383 c 128,-1,2
 10 392 10 392 -6 411 c 1,3,-1
 26 460 l 1,4,-1
 32 468 l 1,5,-1
 40 463 l 1,6,7
 42 455 42 455 46.5 449.5 c 128,-1,8
 51 444 51 444 65 434 c 0,9,10
 79 428 79 428 98 428 c 0,11,12
 121 428 121 428 134 439 c 128,-1,13
 147 450 147 450 147 468 c 0,14,15
 147 520 147 520 61 511 c 1,16,-1
 61 564 l 1,17,18
 107 563 107 563 124 573.5 c 128,-1,19
 141 584 141 584 141 599 c 0,20,21
 141 615 141 615 129.5 624.5 c 128,-1,22
 118 634 118 634 98 634 c 0,23,24
 82 634 82 634 66.5 628.5 c 128,-1,25
 51 623 51 623 39 610 c 1,26,-1
 0 652 l 1,27,28
 19 673 19 673 46.5 682 c 128,-1,29
 74 691 74 691 101 691 c 0,30,31
 147 691 147 691 177.5 668.5 c 128,-1,32
 208 646 208 646 208 611 c 0,33,34
 208 584 208 584 192 567 c 128,-1,35
 176 550 176 550 159 543 c 1,36,37
 179 536 179 536 198 517.5 c 128,-1,38
 217 499 217 499 217 465 c 0,39,40
 217 426 217 426 186 400 c 128,-1,41
 155 374 155 374 101 374 c 0,0,1
123 -43 m 1,42,-1
 60 -4 l 1,43,-1
 370 671 l 1,44,-1
 434 630 l 1,45,-1
 123 -43 l 1,42,-1
380 -1 m 1,46,-1
 253 -1 l 1,47,-1
 253 43 l 1,48,-1
 396 235 l 1,49,-1
 447 235 l 1,50,-1
 447 55 l 1,51,-1
 492 55 l 1,52,-1
 492 -1 l 1,53,-1
 447 -1 l 1,54,-1
 447 -70 l 1,55,-1
 380 -70 l 1,56,-1
 380 -1 l 1,46,-1
383 54 m 1,57,-1
 383 133 l 1,58,-1
 325 54 l 1,59,-1
 383 54 l 1,57,-1
EndSplineSet
EndChar

StartChar: AE
Encoding: 198 198 138
Width: 500
Flags: W
LayerCount: 2
Fore
SplineSet
0 0 m 1,0,-1
 192 623 l 1,1,-1
 498 623 l 1,2,-1
 498 532 l 1,3,-1
 341 532 l 1,4,-1
 341 370 l 1,5,-1
 473 370 l 1,6,-1
 473 279 l 1,7,-1
 341 279 l 1,8,-1
 341 91 l 1,9,-1
 496 91 l 1,10,-1
 496 0 l 1,11,-1
 237 0 l 1,12,-1
 237 159 l 1,13,-1
 152 159 l 1,14,-1
 108 0 l 1,15,-1
 0 0 l 1,0,-1
173 251 m 1,16,-1
 238 251 l 1,17,-1
 244 502 l 1,18,-1
 242 502 l 1,19,-1
 173 251 l 1,16,-1
EndSplineSet
EndChar

StartChar: Eth
Encoding: 208 208 148
Width: 500
Flags: W
LayerCount: 2
Fore
SplineSet
56 0 m 1,0,-1
 56 284 l 1,1,-1
 16 284 l 1,2,-1
 16 374 l 1,3,-1
 56 374 l 1,4,-1
 56 623 l 1,5,-1
 213 623 l 2,6,7
 274 623 274 623 317.5 607.5 c 128,-1,8
 361 592 361 592 390 568 c 128,-1,9
 419 544 419 544 435 518 c 0,10,11
 457 485 457 485 469.5 430 c 128,-1,12
 482 375 482 375 482 307 c 0,13,14
 482 212 482 212 453.5 143.5 c 128,-1,15
 425 75 425 75 363.5 37.5 c 128,-1,16
 302 0 302 0 201 0 c 2,17,-1
 56 0 l 1,0,-1
162 91 m 1,18,-1
 199 91 l 2,19,20
 288 91 288 91 330.5 145.5 c 128,-1,21
 373 200 373 200 373 304 c 0,22,23
 373 410 373 410 334.5 468.5 c 128,-1,24
 296 527 296 527 209 527 c 2,25,-1
 162 527 l 1,26,-1
 162 374 l 1,27,-1
 255 374 l 1,28,-1
 255 284 l 1,29,-1
 162 284 l 1,30,-1
 162 91 l 1,18,-1
EndSplineSet
EndChar

StartChar: multiply
Encoding: 215 215 155
Width: 500
Flags: W
LayerCount: 2
Fore
SplineSet
371 142 m 1,0,-1
 254 267 l 1,1,-1
 138 147 l 1,2,-1
 70 215 l 1,3,-1
 188 336 l 1,4,-1
 70 460 l 1,5,-1
 141 529 l 1,6,-1
 256 407 l 1,7,-1
 371 528 l 1,8,-1
 444 462 l 1,9,-1
 323 337 l 1,10,-1
 441 213 l 1,11,-1
 371 142 l 1,0,-1
EndSplineSet
EndChar

StartChar: Oslash
Encoding: 216 216 156
Width: 500
Flags: W
LayerCount: 2
Fore
SplineSet
88 -56 m 1,0,-1
 31 -27 l 1,1,-1
 82 67 l 1,2,3
 19 150 19 150 19 311 c 0,4,5
 19 462 19 462 78 547 c 128,-1,6
 137 632 137 632 252 632 c 0,7,8
 317 632 317 632 365 603 c 1,9,-1
 407 682 l 1,10,-1
 463 653 l 1,11,-1
 414 561 l 1,12,13
 484 477 484 477 484 311 c 0,14,15
 484 156 484 156 424.5 72 c 128,-1,16
 365 -12 365 -12 252 -12 c 0,17,18
 180 -12 180 -12 129 22 c 1,19,-1
 88 -56 l 1,0,-1
131 312 m 0,20,21
 131 238 131 238 145 186 c 1,22,-1
 317 512 l 1,23,24
 290 540 290 540 252 540 c 0,25,26
 194 540 194 540 162.5 480.5 c 128,-1,27
 131 421 131 421 131 312 c 0,20,21
252 80 m 0,28,29
 308 80 308 80 340 137.5 c 128,-1,30
 372 195 372 195 372 312 c 0,31,32
 372 393 372 393 354 447 c 1,33,-1
 178 115 l 1,34,35
 207 80 207 80 252 80 c 0,28,29
EndSplineSet
EndChar

StartChar: Thorn
Encoding: 222 222 162
Width: 500
Flags: W
LayerCount: 2
Fore
SplineSet
50 0 m 1,0,-1
 50 623 l 1,1,-1
 172 623 l 2,2,3
 174 621 174 621 174 618 c 0,4,5
 174 614 174 614 170 610 c 128,-1,6
 166 606 166 606 165 590 c 2,7,-1
 165 513 l 1,8,-1
 261 513 l 2,9,10
 335 513 335 513 381.5 488 c 128,-1,11
 428 463 428 463 449.5 421 c 128,-1,12
 471 379 471 379 471 329 c 0,13,14
 471 278 471 278 449.5 237 c 128,-1,15
 428 196 428 196 383 171.5 c 128,-1,16
 338 147 338 147 266 147 c 2,17,-1
 164 147 l 1,18,-1
 164 0 l 1,19,-1
 50 0 l 1,0,-1
164 238 m 1,20,-1
 258 238 l 2,21,22
 310 238 310 238 334 263.5 c 128,-1,23
 358 289 358 289 358 326 c 0,24,25
 358 361 358 361 333 390.5 c 128,-1,26
 308 420 308 420 259 420 c 2,27,-1
 165 420 l 1,28,-1
 164 238 l 1,20,-1
EndSplineSet
EndChar

StartChar: germandbls
Encoding: 223 223 163
Width: 500
Flags: W
LayerCount: 2
Fore
SplineSet
286 -13 m 0,0,1
 254 -13 254 -13 231.5 -5 c 128,-1,2
 209 3 209 3 183 18 c 1,3,-1
 226 103 l 1,4,5
 237 93 237 93 250.5 87 c 128,-1,6
 264 81 264 81 280 81 c 0,7,8
 303 81 303 81 320 97.5 c 128,-1,9
 337 114 337 114 346 140 c 128,-1,10
 355 166 355 166 355 195 c 0,11,12
 355 242 355 242 327 274.5 c 128,-1,13
 299 307 299 307 238 307 c 2,14,-1
 196 307 l 1,15,-1
 196 395 l 1,16,-1
 244 395 l 2,17,18
 277 395 277 395 300 420.5 c 128,-1,19
 323 446 323 446 323 488 c 0,20,21
 323 528 323 528 300 555.5 c 128,-1,22
 277 583 277 583 238 583 c 0,23,24
 198 583 198 583 173.5 544 c 128,-1,25
 149 505 149 505 149 439 c 2,26,-1
 149 0 l 1,27,-1
 41 0 l 1,28,-1
 41 431 l 2,29,30
 41 555 41 555 95.5 614 c 128,-1,31
 150 673 150 673 234 673 c 0,32,33
 292 673 292 673 335 648 c 128,-1,34
 378 623 378 623 401.5 583 c 128,-1,35
 425 543 425 543 425 497 c 0,36,37
 425 453 425 453 407.5 418 c 128,-1,38
 390 383 390 383 351 361 c 1,39,40
 403 344 403 344 433.5 298 c 128,-1,41
 464 252 464 252 464 185 c 0,42,43
 464 128 464 128 442 83.5 c 128,-1,44
 420 39 420 39 380 13 c 128,-1,45
 340 -13 340 -13 286 -13 c 0,0,1
EndSplineSet
EndChar

StartChar: ae
Encoding: 230 230 170
Width: 500
Flags: W
LayerCount: 2
Fore
SplineSet
146 -12 m 0,0,1
 87 -12 87 -12 44.5 24 c 128,-1,2
 2 60 2 60 2 129 c 0,3,4
 2 200 2 200 57 244.5 c 128,-1,5
 112 289 112 289 204 292 c 1,6,7
 204 340 204 340 185.5 367 c 128,-1,8
 167 394 167 394 140 394 c 0,9,10
 121 394 121 394 102.5 381.5 c 128,-1,11
 84 369 84 369 70 347 c 1,12,-1
 17 411 l 1,13,14
 43 444 43 444 77 460 c 128,-1,15
 111 476 111 476 151 476 c 0,16,17
 184 476 184 476 215 458.5 c 128,-1,18
 246 441 246 441 259 419 c 1,19,20
 275 442 275 442 300 459 c 128,-1,21
 325 476 325 476 353 476 c 0,22,23
 427 476 427 476 460.5 420 c 128,-1,24
 494 364 494 364 494 271 c 2,25,-1
 494 225 l 1,26,-1
 296 216 l 1,27,-1
 296 178 l 2,28,29
 296 130 296 130 317 100 c 128,-1,30
 338 70 338 70 375 70 c 0,31,32
 395 70 395 70 414.5 80.5 c 128,-1,33
 434 91 434 91 449 115 c 1,34,-1
 500 53 l 1,35,36
 445 -12 445 -12 370 -12 c 0,37,38
 336 -12 336 -12 306 4 c 128,-1,39
 276 20 276 20 256 49 c 1,40,41
 239 21 239 21 208.5 4.5 c 128,-1,42
 178 -12 178 -12 146 -12 c 0,0,1
296 295 m 1,43,-1
 414 298 l 1,44,45
 414 346 414 346 398 370 c 128,-1,46
 382 394 382 394 356 394 c 0,47,48
 331 394 331 394 313.5 367 c 128,-1,49
 296 340 296 340 296 295 c 1,43,-1
151 73 m 0,50,51
 182 73 182 73 194.5 104 c 128,-1,52
 207 135 207 135 207 212 c 1,53,54
 147 210 147 210 123 185.5 c 128,-1,55
 99 161 99 161 99 129 c 0,56,57
 99 73 99 73 151 73 c 0,50,51
EndSplineSet
EndChar

StartChar: eth
Encoding: 240 240 180
Width: 500
Flags: W
LayerCount: 2
Fore
SplineSet
255 -14 m 0,0,1
 192 -14 192 -14 142 15 c 128,-1,2
 92 44 92 44 63.5 96.5 c 128,-1,3
 35 149 35 149 35 220 c 0,4,5
 35 290 35 290 61.5 346.5 c 128,-1,6
 88 403 88 403 132.5 436.5 c 128,-1,7
 177 470 177 470 231 470 c 0,8,9
 295 470 295 470 331 432 c 1,10,11
 319 460 319 460 301.5 487 c 128,-1,12
 284 514 284 514 263 533 c 1,13,-1
 152 502 l 1,14,-1
 126 575 l 1,15,-1
 201 595 l 1,16,17
 180 612 180 612 160 626 c 128,-1,18
 140 640 140 640 111 651 c 1,19,-1
 227 679 l 1,20,21
 248 666 248 666 266.5 654.5 c 128,-1,22
 285 643 285 643 304 626 c 1,23,-1
 417 658 l 1,24,-1
 443 587 l 1,25,-1
 370 563 l 1,26,27
 417 506 417 506 443.5 425.5 c 128,-1,28
 470 345 470 345 470 252 c 0,29,30
 470 172 470 172 445 112.5 c 128,-1,31
 420 53 420 53 372.5 19.5 c 128,-1,32
 325 -14 325 -14 255 -14 c 0,0,1
257 77 m 0,33,34
 297 77 297 77 326.5 115.5 c 128,-1,35
 356 154 356 154 356 229 c 0,36,37
 356 281 356 281 341 313.5 c 128,-1,38
 326 346 326 346 303 361.5 c 128,-1,39
 280 377 280 377 255 377 c 256,40,41
 230 377 230 377 206 360.5 c 128,-1,42
 182 344 182 344 166.5 311 c 128,-1,43
 151 278 151 278 151 229 c 0,44,45
 151 161 151 161 183 119 c 128,-1,46
 215 77 215 77 257 77 c 0,33,34
EndSplineSet
EndChar

StartChar: divide
Encoding: 247 247 187
Width: 500
Flags: W
LayerCount: 2
Fore
SplineSet
255 420 m 0,0,1
 232 420 232 420 215.5 436.5 c 128,-1,2
 199 453 199 453 199 476 c 0,3,4
 199 500 199 500 216 517 c 128,-1,5
 233 534 233 534 255 534 c 0,6,7
 279 534 279 534 295.5 516.5 c 128,-1,8
 312 499 312 499 312 476 c 256,9,10
 312 453 312 453 295.5 436.5 c 128,-1,11
 279 420 279 420 255 420 c 0,0,1
62 264 m 1,12,-1
 62 363 l 1,13,-1
 439 363 l 1,14,-1
 439 264 l 1,15,-1
 62 264 l 1,12,-1
255 92 m 0,16,17
 232 92 232 92 215.5 108.5 c 128,-1,18
 199 125 199 125 199 148 c 0,19,20
 199 172 199 172 216 189 c 128,-1,21
 233 206 233 206 255 206 c 0,22,23
 279 206 279 206 295.5 188.5 c 128,-1,24
 312 171 312 171 312 148 c 256,25,26
 312 125 312 125 295.5 108.5 c 128,-1,27
 279 92 279 92 255 92 c 0,16,17
EndSplineSet
EndChar

StartChar: oslash
Encoding: 248 248 188
Width: 500
Flags: W
LayerCount: 2
Fore
SplineSet
139 -68 m 1,0,-1
 59 -25 l 1,1,-1
 99 49 l 1,2,3
 66 81 66 81 47 128 c 128,-1,4
 28 175 28 175 28 233 c 0,5,6
 28 302 28 302 57 357 c 128,-1,7
 86 412 86 412 136.5 444 c 128,-1,8
 187 476 187 476 249 476 c 0,9,10
 287 476 287 476 322 463 c 1,11,-1
 355 523 l 1,12,-1
 437 479 l 1,13,-1
 401 413 l 1,14,15
 434 380 434 380 453 333.5 c 128,-1,16
 472 287 472 287 472 233 c 0,17,18
 472 161 472 161 442.5 106 c 128,-1,19
 413 51 413 51 362.5 20.5 c 128,-1,20
 312 -10 312 -10 249 -10 c 0,21,22
 211 -10 211 -10 177 1 c 1,23,-1
 139 -68 l 1,0,-1
141 233 m 0,24,25
 141 189 141 189 155 154 c 1,26,-1
 278 381 l 1,27,28
 264 385 264 385 249 385 c 0,29,30
 203 385 203 385 172 344 c 128,-1,31
 141 303 141 303 141 233 c 0,24,25
249 80 m 0,32,33
 297 80 297 80 328 122.5 c 128,-1,34
 359 165 359 165 359 233 c 0,35,36
 359 277 359 277 345 311 c 1,37,-1
 222 84 l 1,38,39
 235 80 235 80 249 80 c 0,32,33
EndSplineSet
EndChar

StartChar: thorn
Encoding: 254 254 194
Width: 500
Flags: W
LayerCount: 2
Fore
SplineSet
47 671 m 1,0,-1
 168 671 l 1,1,-1
 168 662 l 1,2,3
 162 656 162 656 160.5 648.5 c 128,-1,4
 159 641 159 641 159 625 c 2,5,-1
 159 401 l 1,6,7
 181 440 181 440 215 458 c 128,-1,8
 249 476 249 476 290 476 c 0,9,10
 341 476 341 476 382.5 448.5 c 128,-1,11
 424 421 424 421 449 366.5 c 128,-1,12
 474 312 474 312 474 231 c 0,13,14
 474 149 474 149 448 95 c 128,-1,15
 422 41 422 41 379.5 14.5 c 128,-1,16
 337 -12 337 -12 288 -12 c 0,17,18
 251 -12 251 -12 217 1 c 128,-1,19
 183 14 183 14 163 40 c 1,20,-1
 163 -167 l 1,21,-1
 48 -167 l 1,22,-1
 47 671 l 1,0,-1
257 76 m 0,23,24
 286 76 286 76 310 91 c 128,-1,25
 334 106 334 106 348 141 c 128,-1,26
 362 176 362 176 362 237 c 0,27,28
 362 306 362 306 335.5 346 c 128,-1,29
 309 386 309 386 263 387 c 0,30,31
 215 388 215 388 188.5 349.5 c 128,-1,32
 162 311 162 311 162 224 c 0,33,34
 164 76 164 76 257 76 c 0,23,24
EndSplineSet
EndChar

StartChar: dcaron
Encoding: 271 271 211
Width: 500
Flags: W
LayerCount: 2
Fore
SplineSet
175 -11 m 0,0,1
 134 -11 134 -11 100 13 c 128,-1,2
 66 37 66 37 45.5 90.5 c 128,-1,3
 25 144 25 144 25 234 c 0,4,5
 25 365 25 365 67.5 421 c 128,-1,6
 110 477 110 477 176 477 c 0,7,8
 206 477 206 477 229.5 464 c 128,-1,9
 253 451 253 451 265 419 c 1,10,-1
 265 669 l 1,11,-1
 372 669 l 1,12,-1
 372 660 l 1,13,14
 367 654 367 654 365.5 646.5 c 128,-1,15
 364 639 364 639 364 623 c 2,16,-1
 363 65 l 2,17,18
 363 48 363 48 364 32.5 c 128,-1,19
 365 17 365 17 371 0 c 1,20,-1
 275 0 l 1,21,22
 269 14 269 14 267 24 c 128,-1,23
 265 34 265 34 265 50 c 1,24,25
 251 20 251 20 226.5 4.5 c 128,-1,26
 202 -11 202 -11 175 -11 c 0,0,1
433 668 m 0,27,28
 459 668 459 668 474.5 651 c 128,-1,29
 490 634 490 634 490 605 c 0,30,31
 490 569 490 569 473 532 c 128,-1,32
 456 495 456 495 428 453 c 1,33,-1
 377 487 l 1,34,35
 394 507 394 507 404 524.5 c 128,-1,36
 414 542 414 542 414 558 c 0,37,38
 414 568 414 568 406 575 c 128,-1,39
 398 582 398 582 389.5 592 c 128,-1,40
 381 602 381 602 381 622 c 0,41,42
 381 641 381 641 396 654.5 c 128,-1,43
 411 668 411 668 433 668 c 0,27,28
194 77 m 0,44,45
 264 77 264 77 264 233 c 0,46,47
 264 315 264 315 247 353.5 c 128,-1,48
 230 392 230 392 194 392 c 0,49,50
 160 392 160 392 141 355.5 c 128,-1,51
 122 319 122 319 122 239 c 0,52,53
 122 154 122 154 144 115.5 c 128,-1,54
 166 77 166 77 194 77 c 0,44,45
EndSplineSet
EndChar

StartChar: Hbar
Encoding: 294 294 234
Width: 500
Flags: W
LayerCount: 2
Fore
SplineSet
6 482 m 1,0,-1
 6 570 l 1,1,-1
 38 570 l 1,2,-1
 38 623 l 1,3,-1
 161 623 l 1,4,-1
 161 614 l 1,5,6
 155 608 155 608 153.5 600.5 c 128,-1,7
 152 593 152 593 152 577 c 2,8,-1
 152 570 l 1,9,-1
 344 570 l 1,10,-1
 344 623 l 1,11,-1
 467 623 l 1,12,-1
 467 614 l 1,13,14
 461 608 461 608 460 600.5 c 128,-1,15
 459 593 459 593 459 577 c 2,16,-1
 459 570 l 1,17,-1
 495 570 l 1,18,-1
 495 482 l 1,19,-1
 459 482 l 1,20,-1
 459 0 l 1,21,-1
 344 0 l 1,22,-1
 344 280 l 1,23,-1
 152 280 l 1,24,-1
 152 0 l 1,25,-1
 38 0 l 1,26,-1
 38 482 l 1,27,-1
 6 482 l 1,0,-1
152 370 m 1,28,-1
 344 370 l 1,29,-1
 344 482 l 1,30,-1
 152 482 l 1,31,-1
 152 370 l 1,28,-1
EndSplineSet
EndChar

StartChar: dotlessi
Encoding: 305 305 245
Width: 500
Flags: W
LayerCount: 2
Fore
SplineSet
84 0 m 1,0,-1
 84 89 l 1,1,-1
 198 89 l 1,2,-1
 198 376 l 1,3,-1
 90 376 l 1,4,-1
 90 465 l 1,5,-1
 312 465 l 1,6,-1
 312 89 l 1,7,-1
 416 89 l 1,8,-1
 416 0 l 1,9,-1
 84 0 l 1,0,-1
EndSplineSet
EndChar

StartChar: kgreenlandic
Encoding: 312 312 250
Width: 500
Flags: W
LayerCount: 2
Fore
SplineSet
204 211 m 1,0,-1
 167 174 l 1,1,-1
 167 0 l 1,2,-1
 52 0 l 1,3,-1
 52 465 l 1,4,-1
 175 465 l 1,5,-1
 175 456 l 1,6,7
 169 450 169 450 168 443 c 128,-1,8
 167 436 167 436 167 419 c 2,9,-1
 167 297 l 1,10,-1
 345 469 l 1,11,12
 360 466 360 466 380 464 c 128,-1,13
 400 462 400 462 413 462 c 2,14,-1
 467 462 l 1,15,-1
 282 281 l 1,16,-1
 492 1 l 1,17,-1
 363 -4 l 1,18,-1
 204 211 l 1,0,-1
EndSplineSet
EndChar

StartChar: Lcaron
Encoding: 317 317 255
Width: 500
Flags: W
LayerCount: 2
Fore
SplineSet
344 396 m 1,0,-1
 294 437 l 1,1,2
 317 458 317 458 328.5 478.5 c 128,-1,3
 340 499 340 499 340 512 c 256,4,5
 340 525 340 525 331 535 c 128,-1,6
 322 545 322 545 312.5 557.5 c 128,-1,7
 303 570 303 570 303 588 c 0,8,9
 303 615 303 615 321.5 629.5 c 128,-1,10
 340 644 340 644 365 644 c 0,11,12
 396 644 396 644 414.5 621.5 c 128,-1,13
 433 599 433 599 433 563 c 0,14,15
 433 487 433 487 344 396 c 1,0,-1
57 623 m 1,16,-1
 180 623 l 1,17,-1
 180 614 l 1,18,19
 174 608 174 608 172.5 600.5 c 128,-1,20
 171 593 171 593 171 577 c 2,21,-1
 171 92 l 1,22,-1
 457 92 l 1,23,-1
 457 0 l 1,24,-1
 57 0 l 1,25,-1
 57 623 l 1,16,-1
EndSplineSet
EndChar

StartChar: ldot
Encoding: 320 320 258
Width: 500
Flags: W
LayerCount: 2
Fore
SplineSet
57 0 m 1,0,-1
 57 89 l 1,1,-1
 164 89 l 1,2,-1
 164 586 l 1,3,-1
 63 586 l 1,4,-1
 63 675 l 1,5,-1
 278 675 l 1,6,-1
 278 89 l 1,7,-1
 425 89 l 1,8,-1
 425 0 l 1,9,-1
 57 0 l 1,0,-1
395 258 m 256,10,11
 363 258 363 258 341 280 c 128,-1,12
 319 302 319 302 319 333 c 0,13,14
 319 365 319 365 341.5 386.5 c 128,-1,15
 364 408 364 408 395 408 c 256,16,17
 426 408 426 408 448.5 386.5 c 128,-1,18
 471 365 471 365 471 333 c 0,19,20
 471 302 471 302 449 280 c 128,-1,21
 427 258 427 258 395 258 c 256,10,11
EndSplineSet
EndChar

StartChar: Lslash
Encoding: 321 321 259
Width: 500
Flags: W
LayerCount: 2
Fore
SplineSet
67 0 m 1,0,-1
 67 221 l 1,1,-1
 11 203 l 1,2,-1
 11 298 l 1,3,-1
 67 316 l 1,4,-1
 67 623 l 1,5,-1
 189 623 l 2,6,7
 191 621 191 621 191 618 c 0,8,9
 191 614 191 614 187 610 c 128,-1,10
 183 606 183 606 182 588 c 2,11,-1
 182 354 l 1,12,-1
 320 399 l 2,13,14
 330 402 330 402 339 406 c 128,-1,15
 348 410 348 410 356 417 c 1,16,-1
 356 312 l 1,17,-1
 182 255 l 1,18,-1
 182 92 l 1,19,-1
 465 92 l 1,20,-1
 465 0 l 1,21,-1
 67 0 l 1,0,-1
EndSplineSet
EndChar

StartChar: lslash
Encoding: 322 322 260
Width: 500
Flags: W
LayerCount: 2
Fore
SplineSet
67 0 m 1,0,-1
 67 89 l 1,1,-1
 194 89 l 1,2,-1
 194 253 l 1,3,-1
 121 228 l 1,4,-1
 121 331 l 1,5,-1
 194 356 l 1,6,-1
 194 582 l 1,7,-1
 73 582 l 1,8,-1
 73 671 l 1,9,-1
 308 671 l 1,10,-1
 308 395 l 1,11,-1
 391 423 l 1,12,-1
 391 319 l 1,13,-1
 308 290 l 1,14,-1
 308 89 l 1,15,-1
 435 89 l 1,16,-1
 435 0 l 1,17,-1
 67 0 l 1,0,-1
EndSplineSet
EndChar

StartChar: Eng
Encoding: 330 330 267
Width: 500
Flags: W
LayerCount: 2
Fore
SplineSet
369 623 m 1,0,-1
 473 623 l 1,1,2
 473 609 473 609 469.5 601 c 128,-1,3
 466 593 466 593 466 580 c 2,4,-1
 466 0 l 2,5,6
 466 -61 466 -61 444.5 -106 c 128,-1,7
 423 -151 423 -151 387.5 -175 c 128,-1,8
 352 -199 352 -199 308 -199 c 0,9,10
 250 -199 250 -199 191 -157 c 1,11,-1
 243 -66 l 1,12,13
 254 -66 254 -66 259 -73.5 c 128,-1,14
 264 -81 264 -81 272 -89 c 128,-1,15
 280 -97 280 -97 301 -97 c 0,16,17
 363 -97 363 -97 364 1 c 1,18,-1
 136 437 l 1,19,-1
 136 0 l 1,20,-1
 34 0 l 1,21,-1
 34 623 l 1,22,-1
 152 623 l 1,23,-1
 369 213 l 1,24,-1
 369 623 l 1,0,-1
EndSplineSet
EndChar

StartChar: eng
Encoding: 331 331 268
Width: 500
Flags: W
LayerCount: 2
Fore
SplineSet
268 -179 m 0,0,1
 240 -179 240 -179 208.5 -167.5 c 128,-1,2
 177 -156 177 -156 152 -134 c 1,3,-1
 198 -44 l 1,4,5
 205 -46 205 -46 208 -55 c 128,-1,6
 211 -64 211 -64 222 -72 c 128,-1,7
 233 -80 233 -80 264 -80 c 0,8,9
 344 -80 344 -80 344 43 c 2,10,-1
 344 282 l 2,11,12
 344 336 344 336 321.5 360.5 c 128,-1,13
 299 385 299 385 269 385 c 0,14,15
 225 385 225 385 195.5 353 c 128,-1,16
 166 321 166 321 166 270 c 2,17,-1
 166 0 l 1,18,-1
 53 0 l 1,19,-1
 53 465 l 1,20,-1
 166 465 l 1,21,-1
 166 401 l 1,22,23
 190 433 190 433 226.5 454 c 128,-1,24
 263 475 263 475 302 475 c 0,25,26
 344 475 344 475 378.5 456 c 128,-1,27
 413 437 413 437 433.5 395 c 128,-1,28
 454 353 454 353 454 283 c 2,29,-1
 454 53 l 2,30,31
 454 -28 454 -28 428.5 -79.5 c 128,-1,32
 403 -131 403 -131 361 -155 c 128,-1,33
 319 -179 319 -179 268 -179 c 0,0,1
EndSplineSet
EndChar

StartChar: OE
Encoding: 338 338 275
Width: 500
Flags: W
LayerCount: 2
Fore
SplineSet
177 -7 m 0,0,1
 98 -7 98 -7 50.5 70.5 c 128,-1,2
 3 148 3 148 3 312 c 0,3,4
 3 471 3 471 49 551.5 c 128,-1,5
 95 632 95 632 180 632 c 0,6,7
 194 632 194 632 210 626 c 128,-1,8
 226 620 226 620 239 609 c 1,9,-1
 239 624 l 1,10,-1
 493 624 l 1,11,-1
 493 533 l 1,12,-1
 338 533 l 1,13,-1
 338 370 l 1,14,-1
 469 370 l 1,15,-1
 469 279 l 1,16,-1
 338 279 l 1,17,-1
 338 91 l 1,18,-1
 491 91 l 1,19,-1
 491 0 l 1,20,-1
 238 0 l 1,21,-1
 238 16 l 1,22,23
 208 -7 208 -7 177 -7 c 0,0,1
188 89 m 0,24,25
 207 89 207 89 218.5 104 c 128,-1,26
 230 119 230 119 233 144 c 2,27,-1
 233 477 l 1,28,29
 228 503 228 503 215 521 c 128,-1,30
 202 539 202 539 180 539 c 0,31,32
 160 539 160 539 144 519 c 128,-1,33
 128 499 128 499 119 449.5 c 128,-1,34
 110 400 110 400 110 313 c 0,35,36
 110 206 110 206 128.5 147.5 c 128,-1,37
 147 89 147 89 188 89 c 0,24,25
EndSplineSet
EndChar

StartChar: oe
Encoding: 339 339 276
Width: 500
Flags: W
LayerCount: 2
Fore
SplineSet
362 -12 m 0,0,1
 334 -12 334 -12 307 -3.5 c 128,-1,2
 280 5 280 5 257 26 c 1,3,4
 235 4 235 4 211.5 -4 c 128,-1,5
 188 -12 188 -12 162 -12 c 0,6,7
 124 -12 124 -12 88.5 9.5 c 128,-1,8
 53 31 53 31 30 84 c 128,-1,9
 7 137 7 137 7 232 c 0,10,11
 7 320 7 320 29.5 373.5 c 128,-1,12
 52 427 52 427 88.5 451 c 128,-1,13
 125 475 125 475 168 475 c 0,14,15
 223 475 223 475 258 434 c 1,16,17
 291 475 291 475 347 475 c 0,18,19
 416 475 416 475 455 425 c 128,-1,20
 494 375 494 375 494 283 c 2,21,-1
 494 211 l 1,22,-1
 285 211 l 1,23,24
 286 154 286 154 297 123.5 c 128,-1,25
 308 93 308 93 326.5 81.5 c 128,-1,26
 345 70 345 70 370 70 c 0,27,28
 392 70 392 70 411.5 77.5 c 128,-1,29
 431 85 431 85 448 106 c 1,30,-1
 490 47 l 1,31,32
 462 16 462 16 432.5 2 c 128,-1,33
 403 -12 403 -12 362 -12 c 0,0,1
286 288 m 1,34,-1
 415 288 l 1,35,36
 414 338 414 338 400.5 363 c 128,-1,37
 387 388 387 388 354 388 c 0,38,39
 323 388 323 388 305.5 359 c 128,-1,40
 288 330 288 330 286 288 c 1,34,-1
170 74 m 0,41,42
 187 74 187 74 198 83.5 c 128,-1,43
 209 93 209 93 209 106 c 0,44,45
 209 111 209 111 208 115 c 128,-1,46
 207 119 207 119 206 128 c 0,47,48
 203 153 203 153 200 176 c 128,-1,49
 197 199 197 199 197 240 c 0,50,51
 197 295 197 295 203.5 321 c 128,-1,52
 210 347 210 347 210 354 c 0,53,54
 210 365 210 365 199.5 376.5 c 128,-1,55
 189 388 189 388 169 388 c 0,56,57
 141 388 141 388 120.5 353.5 c 128,-1,58
 100 319 100 319 100 244 c 0,59,60
 100 166 100 166 115 120 c 128,-1,61
 130 74 130 74 170 74 c 0,41,42
EndSplineSet
EndChar

StartChar: Tbar
Encoding: 358 358 295
Width: 500
Flags: W
LayerCount: 2
Fore
SplineSet
191 0 m 1,0,-1
 191 278 l 1,1,-1
 71 278 l 1,2,-1
 71 350 l 1,3,-1
 191 350 l 1,4,-1
 191 528 l 1,5,-1
 23 528 l 1,6,-1
 23 623 l 1,7,-1
 476 623 l 1,8,-1
 476 528 l 1,9,-1
 299 528 l 1,10,-1
 299 350 l 1,11,-1
 418 350 l 1,12,-1
 418 278 l 1,13,-1
 299 278 l 1,14,-1
 299 0 l 1,15,-1
 191 0 l 1,0,-1
EndSplineSet
EndChar

StartChar: tbar
Encoding: 359 359 296
Width: 500
Flags: W
LayerCount: 2
Fore
SplineSet
53 206 m 1,0,-1
 53 295 l 1,1,-1
 149 295 l 1,2,-1
 152 376 l 1,3,-1
 57 376 l 1,4,-1
 59 465 l 1,5,-1
 156 465 l 1,6,-1
 160 575 l 1,7,-1
 277 590 l 1,8,-1
 286 591 l 1,9,-1
 287 582 l 1,10,11
 282 575 282 575 278.5 567.5 c 128,-1,12
 275 560 275 560 274 544 c 2,13,-1
 267 465 l 1,14,-1
 417 465 l 1,15,-1
 416 376 l 1,16,-1
 266 376 l 1,17,-1
 263 295 l 1,18,-1
 411 295 l 1,19,-1
 411 206 l 1,20,-1
 259 206 l 1,21,22
 260 131 260 131 277.5 106 c 128,-1,23
 295 81 295 81 325 81 c 0,24,25
 357 81 357 81 382.5 94 c 128,-1,26
 408 107 408 107 430 124 c 1,27,-1
 454 42 l 1,28,29
 419 17 419 17 381 3.5 c 128,-1,30
 343 -10 343 -10 299 -10 c 0,31,32
 224 -10 224 -10 185.5 37.5 c 128,-1,33
 147 85 147 85 146 206 c 1,34,-1
 53 206 l 1,0,-1
EndSplineSet
EndChar

StartChar: florin
Encoding: 402 402 321
Width: 500
Flags: W
LayerCount: 2
Fore
SplineSet
110 -175 m 0,0,1
 53 -175 53 -175 8 -126 c 1,2,-1
 64 -38 l 1,3,4
 71 -39 71 -39 72 -48.5 c 128,-1,5
 73 -58 73 -58 80 -67 c 128,-1,6
 87 -76 87 -76 111 -76 c 0,7,8
 134 -76 134 -76 145 -46.5 c 128,-1,9
 156 -17 156 -17 160 33 c 2,10,-1
 182 309 l 1,11,-1
 71 309 l 1,12,-1
 71 399 l 1,13,-1
 187 399 l 1,14,-1
 194 479 l 2,15,16
 203 582 203 582 247 630 c 128,-1,17
 291 678 291 678 362 678 c 0,18,19
 437 678 437 678 491 613 c 1,20,-1
 449 524 l 1,21,22
 441 524 441 524 439.5 528.5 c 128,-1,23
 438 533 438 533 435 541 c 0,24,25
 429 561 429 561 412 574.5 c 128,-1,26
 395 588 395 588 373 588 c 0,27,28
 345 588 345 588 326 562 c 128,-1,29
 307 536 307 536 303 467 c 2,30,-1
 299 399 l 1,31,-1
 410 399 l 1,32,-1
 410 309 l 1,33,-1
 291 309 l 1,34,-1
 268 29 l 2,35,36
 258 -76 258 -76 214.5 -125.5 c 128,-1,37
 171 -175 171 -175 110 -175 c 0,0,1
EndSplineSet
EndChar

StartChar: uni0198
Encoding: 408 408 322
Width: 500
Flags: W
LayerCount: 2
Fore
SplineSet
40 623 m 1,0,-1
 163 623 l 1,1,-1
 163 614 l 1,2,3
 157 608 157 608 155.5 600.5 c 128,-1,4
 154 593 154 593 154 577 c 2,5,-1
 154 385 l 1,6,7
 213 472 213 472 257.5 526 c 128,-1,8
 302 580 302 580 341 604.5 c 128,-1,9
 380 629 380 629 423 629 c 0,10,11
 439 629 439 629 453 625.5 c 128,-1,12
 467 622 467 622 476 615 c 1,13,-1
 476 509 l 1,14,-1
 476 500 l 1,15,-1
 467 500 l 1,16,17
 461 505 461 505 455 511.5 c 128,-1,18
 449 518 449 518 433 522 c 0,19,20
 430 523 430 523 427 523 c 128,-1,21
 424 523 424 523 420 523 c 0,22,23
 388 523 388 523 349 490 c 128,-1,24
 310 457 310 457 249 373 c 1,25,-1
 479 1 l 1,26,-1
 355 -5 l 1,27,-1
 183 278 l 1,28,29
 169 258 169 258 154 235 c 1,30,-1
 154 0 l 1,31,-1
 40 0 l 1,32,-1
 40 623 l 1,0,-1
EndSplineSet
EndChar

StartChar: uni01B8
Encoding: 440 440 327
Width: 500
Flags: W
LayerCount: 2
Fore
SplineSet
267 -19 m 0,0,1
 200 -19 200 -19 151 7 c 128,-1,2
 102 33 102 33 75 76.5 c 128,-1,3
 48 120 48 120 48 173 c 0,4,5
 48 254 48 254 95.5 307 c 128,-1,6
 143 360 143 360 224 378 c 1,7,-1
 67 540 l 1,8,-1
 67 623 l 1,9,-1
 415 623 l 1,10,-1
 415 526 l 1,11,-1
 203 526 l 1,12,-1
 335 386 l 1,13,-1
 335 296 l 1,14,15
 268 298 268 298 229.5 283 c 128,-1,16
 191 268 191 268 175.5 241 c 128,-1,17
 160 214 160 214 160 179 c 0,18,19
 160 129 160 129 193.5 103.5 c 128,-1,20
 227 78 227 78 274 78 c 0,21,22
 308 78 308 78 333 86 c 128,-1,23
 358 94 358 94 378 112 c 0,24,25
 388 125 388 125 391 132 c 128,-1,26
 394 139 394 139 393 147 c 1,27,-1
 399 155 l 1,28,-1
 406 149 l 1,29,-1
 453 62 l 1,30,31
 383 -19 383 -19 267 -19 c 0,0,1
EndSplineSet
EndChar

StartChar: uni01C7
Encoding: 455 455 329
Width: 500
Flags: W
LayerCount: 2
Fore
SplineSet
284 -179 m 0,0,1
 200 -179 200 -179 147 -112 c 1,2,-1
 217 -33 l 1,3,4
 227 -42 227 -42 224.5 -47 c 128,-1,5
 222 -52 222 -52 231 -62 c 0,6,7
 237 -70 237 -70 250 -79 c 128,-1,8
 263 -88 263 -88 284 -88 c 0,9,10
 318 -88 318 -88 334 -54 c 128,-1,11
 350 -20 350 -20 350 52 c 2,12,-1
 350 533 l 1,13,-1
 250 533 l 1,14,-1
 250 623 l 1,15,-1
 462 623 l 1,16,-1
 462 39 l 2,17,18
 462 -37 462 -37 437.5 -85.5 c 128,-1,19
 413 -134 413 -134 372.5 -156.5 c 128,-1,20
 332 -179 332 -179 284 -179 c 0,0,1
48 0 m 1,21,-1
 48 623 l 1,22,-1
 170 623 l 1,23,24
 170 616 170 616 168 614 c 128,-1,25
 166 612 166 612 164 607.5 c 128,-1,26
 162 603 162 603 162 588 c 2,27,-1
 162 90 l 1,28,-1
 286 90 l 1,29,-1
 286 0 l 1,30,-1
 48 0 l 1,21,-1
EndSplineSet
EndChar

StartChar: uni01C8
Encoding: 456 456 330
Width: 500
Flags: W
LayerCount: 2
Fore
SplineSet
392 542 m 0,0,1
 362 542 362 542 341.5 562 c 128,-1,2
 321 582 321 582 321 610 c 0,3,4
 321 639 321 639 341 658.5 c 128,-1,5
 361 678 361 678 392 678 c 0,6,7
 420 678 420 678 441.5 657.5 c 128,-1,8
 463 637 463 637 463 610 c 0,9,10
 463 582 463 582 441.5 562 c 128,-1,11
 420 542 420 542 392 542 c 0,0,1
61 0 m 1,12,-1
 61 623 l 1,13,-1
 183 623 l 1,14,15
 183 613 183 613 179.5 607 c 128,-1,16
 176 601 176 601 176 588 c 2,17,-1
 176 94 l 1,18,-1
 279 94 l 1,19,-1
 279 0 l 1,20,-1
 61 0 l 1,12,-1
262 -177 m 0,21,22
 227 -177 227 -177 195.5 -164.5 c 128,-1,23
 164 -152 164 -152 141 -128 c 1,24,-1
 210 -37 l 1,25,26
 214 -42 214 -42 214.5 -47.5 c 128,-1,27
 215 -53 215 -53 218.5 -59.5 c 128,-1,28
 222 -66 222 -66 236 -74 c 0,29,30
 241 -77 241 -77 248 -79.5 c 128,-1,31
 255 -82 255 -82 265 -82 c 0,32,33
 296 -82 296 -82 317.5 -58.5 c 128,-1,34
 339 -35 339 -35 339 19 c 2,35,-1
 339 376 l 1,36,-1
 237 376 l 1,37,-1
 237 467 l 1,38,-1
 452 467 l 1,39,-1
 452 23 l 2,40,41
 452 -48 452 -48 426.5 -92 c 128,-1,42
 401 -136 401 -136 358 -156.5 c 128,-1,43
 315 -177 315 -177 262 -177 c 0,21,22
EndSplineSet
EndChar

StartChar: uni01C9
Encoding: 457 457 331
Width: 500
Flags: W
LayerCount: 2
Fore
SplineSet
392 542 m 0,0,1
 362 542 362 542 341.5 562 c 128,-1,2
 321 582 321 582 321 610 c 0,3,4
 321 639 321 639 341 658.5 c 128,-1,5
 361 678 361 678 392 678 c 0,6,7
 420 678 420 678 441.5 658 c 128,-1,8
 463 638 463 638 463 610 c 256,9,10
 463 582 463 582 441.5 562 c 128,-1,11
 420 542 420 542 392 542 c 0,0,1
25 0 m 1,12,-1
 25 89 l 1,13,-1
 74 89 l 1,14,-1
 74 586 l 1,15,-1
 31 586 l 1,16,-1
 31 675 l 1,17,-1
 186 675 l 1,18,-1
 186 89 l 1,19,-1
 282 89 l 1,20,-1
 282 0 l 1,21,-1
 25 0 l 1,12,-1
262 -177 m 0,22,23
 194 -177 194 -177 147 -128 c 1,24,-1
 203 -41 l 1,25,26
 209 -43 209 -43 209.5 -48 c 128,-1,27
 210 -53 210 -53 213.5 -59.5 c 128,-1,28
 217 -66 217 -66 233 -74 c 0,29,30
 239 -77 239 -77 247 -79.5 c 128,-1,31
 255 -82 255 -82 265 -82 c 0,32,33
 296 -82 296 -82 317.5 -58.5 c 128,-1,34
 339 -35 339 -35 339 19 c 2,35,-1
 339 376 l 1,36,-1
 237 376 l 1,37,-1
 237 465 l 1,38,-1
 452 465 l 1,39,-1
 452 23 l 2,40,41
 452 -48 452 -48 426.5 -92 c 128,-1,42
 401 -136 401 -136 358 -156.5 c 128,-1,43
 315 -177 315 -177 262 -177 c 0,22,23
EndSplineSet
EndChar

StartChar: uni0237
Encoding: 567 567 378
Width: 500
Flags: W
LayerCount: 2
Fore
SplineSet
191 -176 m 0,0,1
 97 -176 97 -176 35 -105 c 1,2,-1
 96 -23 l 1,3,-1
 102 -16 l 1,4,-1
 110 -21 l 1,5,6
 112 -29 112 -29 114 -37 c 128,-1,7
 116 -45 116 -45 127 -58 c 0,8,9
 139 -69 139 -69 154.5 -75.5 c 128,-1,10
 170 -82 170 -82 191 -82 c 0,11,12
 266 -82 266 -82 266 19 c 2,13,-1
 266 376 l 1,14,-1
 104 376 l 1,15,-1
 104 465 l 1,16,-1
 381 465 l 1,17,-1
 381 29 l 2,18,19
 381 -44 381 -44 354 -89.5 c 128,-1,20
 327 -135 327 -135 283.5 -155.5 c 128,-1,21
 240 -176 240 -176 191 -176 c 0,0,1
EndSplineSet
EndChar

StartChar: uni024D
Encoding: 589 589 379
Width: 500
Flags: W
LayerCount: 2
Fore
SplineSet
28 156 m 1,0,-1
 28 245 l 1,1,-1
 89 245 l 1,2,-1
 89 465 l 1,3,-1
 206 465 l 1,4,-1
 205 390 l 1,5,6
 224 430 224 430 261 453 c 128,-1,7
 298 476 298 476 339 476 c 0,8,9
 417 476 417 476 468 423 c 1,10,-1
 420 328 l 1,11,-1
 417 320 l 1,12,-1
 408 324 l 1,13,14
 405 332 405 332 402 340.5 c 128,-1,15
 399 349 399 349 387 360 c 0,16,17
 373 371 373 371 357.5 377 c 128,-1,18
 342 383 342 383 324 383 c 0,19,20
 276 383 276 383 240 350 c 128,-1,21
 204 317 204 317 204 245 c 1,22,-1
 323 245 l 1,23,-1
 323 156 l 1,24,-1
 204 156 l 1,25,-1
 204 0 l 1,26,-1
 89 0 l 1,27,-1
 89 156 l 1,28,-1
 28 156 l 1,0,-1
EndSplineSet
EndChar

StartChar: uni027B
Encoding: 635 635 381
Width: 500
Flags: W
LayerCount: 2
Fore
SplineSet
407 -177 m 0,0,1
 330 -177 330 -177 296.5 -132.5 c 128,-1,2
 263 -88 263 -88 260 9 c 2,3,-1
 260 71 l 1,4,5
 242 34 242 34 206 12 c 128,-1,6
 170 -10 170 -10 132 -10 c 0,7,8
 65 -10 65 -10 11 41 c 1,9,-1
 55 128 l 1,10,-1
 58 136 l 1,11,-1
 67 132 l 1,12,13
 70 125 70 125 74 117.5 c 128,-1,14
 78 110 78 110 91 100 c 0,15,16
 102 92 102 92 114 88.5 c 128,-1,17
 126 85 126 85 143 85 c 0,18,19
 168 85 168 85 195.5 102 c 128,-1,20
 223 119 223 119 241.5 149.5 c 128,-1,21
 260 180 260 180 260 223 c 2,22,-1
 260 467 l 1,23,-1
 373 467 l 1,24,-1
 372 8 l 2,25,26
 372 -84 372 -84 422 -84 c 0,27,28
 430 -84 430 -84 437.5 -83 c 128,-1,29
 445 -82 445 -82 452 -78 c 0,30,31
 461 -75 461 -75 463 -70 c 128,-1,32
 465 -65 465 -65 469 -62 c 1,33,-1
 493 -149 l 1,34,35
 476 -162 476 -162 454.5 -169.5 c 128,-1,36
 433 -177 433 -177 407 -177 c 0,0,1
EndSplineSet
EndChar

StartChar: uni029A
Encoding: 666 666 383
Width: 500
Flags: W
LayerCount: 2
Fore
SplineSet
229 -17 m 0,0,1
 129 -17 129 -17 79 24.5 c 128,-1,2
 29 66 29 66 29 129 c 0,3,4
 29 172 29 172 52.5 201 c 128,-1,5
 76 230 76 230 115 247 c 1,6,7
 81 265 81 265 64.5 293 c 128,-1,8
 48 321 48 321 48 355 c 0,9,10
 48 386 48 386 70 414.5 c 128,-1,11
 92 443 92 443 132.5 461 c 128,-1,12
 173 479 173 479 229 479 c 0,13,14
 345 479 345 479 407 411.5 c 128,-1,15
 469 344 469 344 469 233 c 0,16,17
 469 118 469 118 406 50.5 c 128,-1,18
 343 -17 343 -17 229 -17 c 0,0,1
232 74 m 0,19,20
 296 74 296 74 328 112.5 c 128,-1,21
 360 151 360 151 360 233 c 0,22,23
 360 305 360 305 333 346 c 128,-1,24
 306 387 306 387 240 387 c 0,25,26
 198 387 198 387 178.5 370 c 128,-1,27
 159 353 159 353 159 331 c 0,28,29
 159 311 159 311 175 294.5 c 128,-1,30
 191 278 191 278 233 278 c 0,31,32
 245 278 245 278 253 278.5 c 128,-1,33
 261 279 261 279 273 281 c 1,34,-1
 273 197 l 1,35,36
 260 198 260 198 254.5 198.5 c 128,-1,37
 249 199 249 199 244 199 c 128,-1,38
 239 199 239 199 228 199 c 0,39,40
 180 199 180 199 158.5 181.5 c 128,-1,41
 137 164 137 164 137 141 c 0,42,43
 137 116 137 116 161 95 c 128,-1,44
 185 74 185 74 232 74 c 0,19,20
EndSplineSet
EndChar

StartChar: uni02BC
Encoding: 700 700 387
Width: 500
Flags: W
LayerCount: 2
Fore
SplineSet
226 438 m 1,0,-1
 168 488 l 1,1,2
 193 511 193 511 207.5 529.5 c 128,-1,3
 222 548 222 548 222 562 c 0,4,5
 222 571 222 571 213 579 c 128,-1,6
 204 587 204 587 195 597.5 c 128,-1,7
 186 608 186 608 186 623 c 0,8,9
 186 649 186 649 205 666.5 c 128,-1,10
 224 684 224 684 253 684 c 0,11,12
 281 684 281 684 303.5 662 c 128,-1,13
 326 640 326 640 326 605 c 0,14,15
 326 538 326 538 226 438 c 1,0,-1
EndSplineSet
EndChar

StartChar: uni02BF
Encoding: 703 703 389
Width: 500
Flags: W
LayerCount: 2
Fore
SplineSet
309 460 m 1,0,1
 259 460 259 460 225 493 c 128,-1,2
 191 526 191 526 191 573 c 0,3,4
 191 605 191 605 207.5 631 c 128,-1,5
 224 657 224 657 250.5 672 c 128,-1,6
 277 687 277 687 309 687 c 1,7,-1
 309 624 l 1,8,9
 290 624 290 624 278.5 610 c 128,-1,10
 267 596 267 596 267 574 c 256,11,12
 267 552 267 552 278.5 538 c 128,-1,13
 290 524 290 524 309 524 c 1,14,-1
 309 460 l 1,0,1
EndSplineSet
EndChar

StartChar: circumflex
Encoding: 710 710 390
Width: 500
Flags: W
LayerCount: 2
Fore
SplineSet
349 513 m 1,0,-1
 254 610 l 1,1,-1
 153 512 l 1,2,-1
 104 555 l 1,3,-1
 239 697 l 1,4,-1
 271 697 l 1,5,-1
 400 556 l 1,6,-1
 349 513 l 1,0,-1
EndSplineSet
EndChar

StartChar: caron
Encoding: 711 711 391
Width: 500
Flags: W
LayerCount: 2
Fore
SplineSet
239 513 m 1,0,-1
 124 655 l 1,1,-1
 179 702 l 1,2,-1
 258 610 l 1,3,-1
 340 701 l 1,4,-1
 386 654 l 1,5,-1
 271 513 l 1,6,-1
 239 513 l 1,0,-1
EndSplineSet
EndChar

StartChar: uni02C8
Encoding: 712 712 392
Width: 500
Flags: W
LayerCount: 2
Fore
SplineSet
317 445 m 1,0,-1
 216 445 l 1,1,-1
 216 665 l 1,2,-1
 317 665 l 1,3,-1
 317 445 l 1,0,-1
EndSplineSet
EndChar

StartChar: uni02C9
Encoding: 713 713 393
Width: 500
Flags: W
LayerCount: 2
Fore
SplineSet
108 553 m 1,0,-1
 108 641 l 1,1,-1
 388 641 l 1,2,-1
 388 553 l 1,3,-1
 108 553 l 1,0,-1
EndSplineSet
EndChar

StartChar: uni02CA
Encoding: 714 714 394
Width: 500
Flags: W
LayerCount: 2
Fore
SplineSet
255 552 m 1,0,-1
 183 552 l 1,1,-1
 277 704 l 1,2,-1
 375 704 l 1,3,-1
 255 552 l 1,0,-1
EndSplineSet
EndChar

StartChar: uni02CB
Encoding: 715 715 395
Width: 500
Flags: W
LayerCount: 2
Fore
SplineSet
279 517 m 1,0,-1
 174 658 l 1,1,-1
 255 714 l 1,2,-1
 335 550 l 1,3,-1
 279 517 l 1,0,-1
EndSplineSet
EndChar

StartChar: uni02CC
Encoding: 716 716 396
Width: 500
Flags: W
LayerCount: 2
Fore
SplineSet
301 -190 m 1,0,-1
 200 -190 l 1,1,-1
 200 30 l 1,2,-1
 301 30 l 1,3,-1
 301 -190 l 1,0,-1
EndSplineSet
EndChar

StartChar: breve
Encoding: 728 728 397
Width: 500
Flags: W
LayerCount: 2
Fore
SplineSet
250 518 m 0,0,1
 211 518 211 518 169 537.5 c 128,-1,2
 127 557 127 557 85 601 c 1,3,-1
 146 675 l 1,4,5
 167 638 167 638 196 621 c 128,-1,6
 225 604 225 604 253 604 c 0,7,8
 279 604 279 604 308 619.5 c 128,-1,9
 337 635 337 635 363 675 c 1,10,-1
 411 603 l 1,11,12
 378 562 378 562 334.5 540 c 128,-1,13
 291 518 291 518 250 518 c 0,0,1
EndSplineSet
EndChar

StartChar: dotaccent
Encoding: 729 729 398
Width: 500
Flags: W
LayerCount: 2
Fore
SplineSet
254 542 m 0,0,1
 224 542 224 542 203.5 562 c 128,-1,2
 183 582 183 582 183 610 c 0,3,4
 183 639 183 639 203 658.5 c 128,-1,5
 223 678 223 678 254 678 c 0,6,7
 282 678 282 678 303.5 658 c 128,-1,8
 325 638 325 638 325 610 c 256,9,10
 325 582 325 582 303.5 562 c 128,-1,11
 282 542 282 542 254 542 c 0,0,1
EndSplineSet
EndChar

StartChar: ring
Encoding: 730 730 399
Width: 500
Flags: W
LayerCount: 2
Fore
SplineSet
249 512 m 0,0,1
 207 512 207 512 176.5 541.5 c 128,-1,2
 146 571 146 571 146 612 c 256,3,4
 146 653 146 653 176.5 682 c 128,-1,5
 207 711 207 711 249 711 c 0,6,7
 292 711 292 711 323 682 c 128,-1,8
 354 653 354 653 354 612 c 256,9,10
 354 571 354 571 323 541.5 c 128,-1,11
 292 512 292 512 249 512 c 0,0,1
250 576 m 256,12,13
 263 576 263 576 272.5 586.5 c 128,-1,14
 282 597 282 597 282 613 c 256,15,16
 282 629 282 629 272.5 640 c 128,-1,17
 263 651 263 651 250 651 c 256,18,19
 237 651 237 651 227.5 640 c 128,-1,20
 218 629 218 629 218 613 c 256,21,22
 218 597 218 597 227.5 586.5 c 128,-1,23
 237 576 237 576 250 576 c 256,12,13
EndSplineSet
EndChar

StartChar: ogonek
Encoding: 731 731 400
Width: 500
Flags: W
LayerCount: 2
Fore
SplineSet
392 -150 m 1,0,-1
 347 -238 l 1,1,2
 280 -221 280 -221 247.5 -191 c 128,-1,3
 215 -161 215 -161 215 -126 c 0,4,5
 215 -89 215 -89 250.5 -48 c 128,-1,6
 286 -7 286 -7 353 27 c 1,7,-1
 393 0 l 1,8,9
 325 -57 325 -57 325 -96 c 256,10,11
 325 -135 325 -135 392 -150 c 1,0,-1
EndSplineSet
EndChar

StartChar: hungarumlaut
Encoding: 733 733 402
Width: 500
Flags: W
LayerCount: 2
Fore
SplineSet
332 517 m 1,0,-1
 273 553 l 1,1,-1
 356 714 l 1,2,-1
 437 658 l 1,3,-1
 332 517 l 1,0,-1
177 517 m 1,4,-1
 118 553 l 1,5,-1
 201 714 l 1,6,-1
 282 658 l 1,7,-1
 177 517 l 1,4,-1
EndSplineSet
EndChar

StartChar: uni0302
Encoding: 770 770 405
Width: 0
Flags: W
LayerCount: 2
Fore
SplineSet
136 501 m 1,0,-1
 83 549 l 1,1,-1
 228 688 l 1,2,-1
 266 688 l 1,3,-1
 411 549 l 1,4,-1
 358 501 l 1,5,-1
 246 604 l 1,6,-1
 136 501 l 1,0,-1
EndSplineSet
EndChar

StartChar: tildecomb
Encoding: 771 771 406
Width: 0
Flags: W
LayerCount: 2
Fore
SplineSet
369 668 m 1,0,-1
 429 637 l 1,1,2
 409 595 409 595 385 576 c 128,-1,3
 361 557 361 557 331 557 c 0,4,5
 302 557 302 557 282.5 566.5 c 128,-1,6
 263 576 263 576 250 588 c 128,-1,7
 237 600 237 600 225 609.5 c 128,-1,8
 213 619 213 619 199 619 c 0,9,10
 182 619 182 619 169 606.5 c 128,-1,11
 156 594 156 594 146 570 c 1,12,-1
 84 599 l 1,13,14
 117 686 117 686 195 686 c 0,15,16
 221 686 221 686 239 677 c 128,-1,17
 257 668 257 668 270.5 656 c 128,-1,18
 284 644 284 644 296.5 635 c 128,-1,19
 309 626 309 626 324 626 c 0,20,21
 341 626 341 626 350 636.5 c 128,-1,22
 359 647 359 647 369 668 c 1,0,-1
EndSplineSet
EndChar

StartChar: uni0306
Encoding: 774 774 408
Width: 0
Flags: W
LayerCount: 2
Fore
SplineSet
339 668 m 1,0,-1
 409 636 l 1,1,2
 385 585 385 585 346.5 557.5 c 128,-1,3
 308 530 308 530 258 530 c 256,4,5
 208 530 208 530 169.5 557.5 c 128,-1,6
 131 585 131 585 107 636 c 1,7,-1
 177 668 l 1,8,9
 193 632 193 632 212 614 c 128,-1,10
 231 596 231 596 258 596 c 0,11,12
 313 596 313 596 339 668 c 1,0,-1
EndSplineSet
EndChar

StartChar: hookabovecomb
Encoding: 777 777 411
Width: 0
Flags: W
LayerCount: 2
Fore
SplineSet
354 643 m 0,0,1
 354 621 354 621 344 606.5 c 128,-1,2
 334 592 334 592 320.5 580 c 128,-1,3
 307 568 307 568 296.5 556.5 c 128,-1,4
 286 545 286 545 286 529 c 2,5,-1
 286 521 l 1,6,-1
 216 521 l 1,7,-1
 216 549 l 2,8,9
 216 564 216 564 225.5 576.5 c 128,-1,10
 235 589 235 589 247.5 599 c 128,-1,11
 260 609 260 609 269.5 618.5 c 128,-1,12
 279 628 279 628 279 638 c 0,13,14
 279 652 279 652 270 659.5 c 128,-1,15
 261 667 261 667 247 667 c 0,16,17
 228 667 228 667 214 659.5 c 128,-1,18
 200 652 200 652 191 630 c 1,19,-1
 150 684 l 1,20,21
 169 708 169 708 197 719 c 128,-1,22
 225 730 225 730 252 730 c 0,23,24
 297 729 297 729 325.5 705 c 128,-1,25
 354 681 354 681 354 643 c 0,0,1
EndSplineSet
EndChar

StartChar: uni030C
Encoding: 780 780 414
Width: 0
Flags: W
LayerCount: 2
Fore
SplineSet
141 704 m 1,0,-1
 251 601 l 1,1,-1
 363 704 l 1,2,-1
 416 655 l 1,3,-1
 271 516 l 1,4,-1
 233 516 l 1,5,-1
 88 655 l 1,6,-1
 141 704 l 1,0,-1
EndSplineSet
EndChar

StartChar: uni031B
Encoding: 795 795 418
Width: 0
Flags: W
LayerCount: 2
Fore
SplineSet
485 561 m 1,0,1
 485 466 485 466 457 431 c 128,-1,2
 429 396 429 396 376 396 c 1,3,-1
 376 465 l 1,4,5
 388 465 388 465 393.5 488 c 128,-1,6
 399 511 399 511 399 561 c 1,7,-1
 485 561 l 1,0,1
EndSplineSet
EndChar

StartChar: uni0328
Encoding: 808 808 423
Width: 0
Flags: W
LayerCount: 2
Fore
SplineSet
292 -150 m 1,0,-1
 247 -238 l 1,1,2
 180 -221 180 -221 147.5 -191 c 128,-1,3
 115 -161 115 -161 115 -126 c 0,4,5
 115 -89 115 -89 150.5 -48 c 128,-1,6
 186 -7 186 -7 253 27 c 1,7,-1
 293 0 l 1,8,9
 225 -57 225 -57 225 -96 c 256,10,11
 225 -135 225 -135 292 -150 c 1,0,-1
EndSplineSet
EndChar

StartChar: uni0335
Encoding: 821 821 426
Width: 0
Flags: W
LayerCount: 2
Fore
SplineSet
114 285 m 1,0,-1
 114 356 l 1,1,-1
 389 356 l 1,2,-1
 389 285 l 1,3,-1
 114 285 l 1,0,-1
EndSplineSet
EndChar

StartChar: uni0375
Encoding: 885 885 428
Width: 500
Flags: W
LayerCount: 2
Fore
SplineSet
236 -76 m 1,0,-1
 174 -76 l 1,1,-1
 239 116 l 1,2,-1
 332 116 l 1,3,-1
 236 -76 l 1,0,-1
EndSplineSet
EndChar

StartChar: uni1E9E
Encoding: 7838 7838 502
Width: 500
Flags: W
LayerCount: 2
Fore
SplineSet
291 -13 m 0,0,1
 259 -13 259 -13 233 -4.5 c 128,-1,2
 207 4 207 4 187 18 c 1,3,-1
 223 102 l 1,4,5
 247 81 247 81 278 81 c 0,6,7
 311 81 311 81 334.5 110.5 c 128,-1,8
 358 140 358 140 358 186 c 0,9,10
 358 215 358 215 347 241 c 128,-1,11
 336 267 336 267 309.5 284 c 128,-1,12
 283 301 283 301 238 301 c 2,13,-1
 208 301 l 1,14,-1
 208 389 l 1,15,-1
 320 496 l 1,16,17
 318 534 318 534 300 558.5 c 128,-1,18
 282 583 282 583 244 583 c 0,19,20
 210 583 210 583 182 553 c 128,-1,21
 154 523 154 523 154 462 c 2,22,-1
 154 0 l 1,23,-1
 41 0 l 1,24,-1
 41 447 l 2,25,26
 41 526 41 526 68.5 575.5 c 128,-1,27
 96 625 96 625 141.5 649 c 128,-1,28
 187 673 187 673 241 673 c 0,29,30
 301 673 301 673 342 647 c 128,-1,31
 383 621 383 621 404 577.5 c 128,-1,32
 425 534 425 534 425 483 c 1,33,-1
 315 381 l 1,34,35
 391 362 391 362 429.5 308.5 c 128,-1,36
 468 255 468 255 468 182 c 0,37,38
 468 93 468 93 419.5 40 c 128,-1,39
 371 -13 371 -13 291 -13 c 0,0,1
EndSplineSet
EndChar

StartChar: endash
Encoding: 8211 8211 600
Width: 500
Flags: W
LayerCount: 2
Fore
SplineSet
64 271 m 1,0,-1
 64 365 l 1,1,-1
 439 365 l 1,2,-1
 439 271 l 1,3,-1
 64 271 l 1,0,-1
EndSplineSet
EndChar

StartChar: emdash
Encoding: 8212 8212 601
Width: 500
Flags: W
LayerCount: 2
Fore
SplineSet
10 271 m 1,0,-1
 10 365 l 1,1,-1
 490 365 l 1,2,-1
 490 271 l 1,3,-1
 10 271 l 1,0,-1
EndSplineSet
EndChar

StartChar: quoteleft
Encoding: 8216 8216 603
Width: 500
Flags: W
LayerCount: 2
Fore
SplineSet
282 648 m 1,0,-1
 337 597 l 1,1,2
 309 571 309 571 291.5 545.5 c 128,-1,3
 274 520 274 520 274 496 c 0,4,5
 274 479 274 479 285.5 468 c 128,-1,6
 297 457 297 457 308.5 444.5 c 128,-1,7
 320 432 320 432 320 410 c 0,8,9
 320 381 320 381 299.5 360 c 128,-1,10
 279 339 279 339 246 339 c 0,11,12
 214 339 214 339 188.5 365 c 128,-1,13
 163 391 163 391 163 431 c 0,14,15
 163 527 163 527 282 648 c 1,0,-1
EndSplineSet
EndChar

StartChar: quoteright
Encoding: 8217 8217 604
Width: 500
Flags: W
LayerCount: 2
Fore
SplineSet
204 339 m 1,0,-1
 148 390 l 1,1,2
 176 417 176 417 193.5 442 c 128,-1,3
 211 467 211 467 211 492 c 0,4,5
 211 509 211 509 199.5 519.5 c 128,-1,6
 188 530 188 530 176.5 542.5 c 128,-1,7
 165 555 165 555 165 578 c 0,8,9
 165 607 165 607 185.5 627.5 c 128,-1,10
 206 648 206 648 240 648 c 0,11,12
 271 648 271 648 296.5 622.5 c 128,-1,13
 322 597 322 597 322 556 c 0,14,15
 322 461 322 461 204 339 c 1,0,-1
EndSplineSet
EndChar

StartChar: quotedblleft
Encoding: 8220 8220 606
Width: 500
Flags: W
LayerCount: 2
Fore
SplineSet
387 648 m 1,0,-1
 442 597 l 1,1,2
 414 571 414 571 396.5 545.5 c 128,-1,3
 379 520 379 520 379 496 c 0,4,5
 379 479 379 479 390.5 468 c 128,-1,6
 402 457 402 457 413.5 444.5 c 128,-1,7
 425 432 425 432 425 410 c 0,8,9
 425 381 425 381 404.5 360 c 128,-1,10
 384 339 384 339 351 339 c 0,11,12
 319 339 319 339 293.5 365 c 128,-1,13
 268 391 268 391 268 431 c 0,14,15
 268 527 268 527 387 648 c 1,0,-1
182 648 m 1,16,-1
 237 597 l 1,17,18
 209 571 209 571 191.5 545.5 c 128,-1,19
 174 520 174 520 174 496 c 0,20,21
 174 479 174 479 185.5 468 c 128,-1,22
 197 457 197 457 208.5 444.5 c 128,-1,23
 220 432 220 432 220 410 c 0,24,25
 220 381 220 381 199.5 360 c 128,-1,26
 179 339 179 339 146 339 c 0,27,28
 114 339 114 339 88.5 365 c 128,-1,29
 63 391 63 391 63 431 c 0,30,31
 63 527 63 527 182 648 c 1,16,-1
EndSplineSet
EndChar

StartChar: dagger
Encoding: 8224 8224 609
Width: 500
Flags: W
LayerCount: 2
Fore
SplineSet
197 -150 m 1,0,-1
 197 382 l 1,1,-1
 40 382 l 1,2,-1
 40 472 l 1,3,-1
 197 472 l 1,4,-1
 197 652 l 1,5,-1
 300 652 l 1,6,-1
 300 472 l 1,7,-1
 455 472 l 1,8,-1
 455 382 l 1,9,-1
 300 382 l 1,10,-1
 300 -150 l 1,11,-1
 197 -150 l 1,0,-1
EndSplineSet
EndChar

StartChar: daggerdbl
Encoding: 8225 8225 610
Width: 500
Flags: W
LayerCount: 2
Fore
SplineSet
197 -150 m 1,0,-1
 197 45 l 1,1,-1
 40 45 l 1,2,-1
 40 135 l 1,3,-1
 197 135 l 1,4,-1
 197 381 l 1,5,-1
 40 381 l 1,6,-1
 40 471 l 1,7,-1
 197 471 l 1,8,-1
 197 651 l 1,9,-1
 300 651 l 1,10,-1
 300 471 l 1,11,-1
 455 471 l 1,12,-1
 455 381 l 1,13,-1
 300 381 l 1,14,-1
 300 135 l 1,15,-1
 455 135 l 1,16,-1
 455 45 l 1,17,-1
 300 45 l 1,18,-1
 300 -150 l 1,19,-1
 197 -150 l 1,0,-1
EndSplineSet
EndChar

StartChar: bullet
Encoding: 8226 8226 611
Width: 500
Flags: W
LayerCount: 2
Fore
SplineSet
250 188 m 0,0,1
 220 188 220 188 195 202.5 c 128,-1,2
 170 217 170 217 155 242 c 128,-1,3
 140 267 140 267 140 296 c 0,4,5
 140 326 140 326 155.5 351 c 128,-1,6
 171 376 171 376 196 390.5 c 128,-1,7
 221 405 221 405 250 405 c 0,8,9
 280 405 280 405 305 390.5 c 128,-1,10
 330 376 330 376 345.5 351 c 128,-1,11
 361 326 361 326 361 296 c 0,12,13
 361 267 361 267 346 242 c 128,-1,14
 331 217 331 217 306 202.5 c 128,-1,15
 281 188 281 188 250 188 c 0,0,1
EndSplineSet
EndChar

StartChar: ellipsis
Encoding: 8230 8230 612
Width: 500
Flags: W
LayerCount: 2
Fore
SplineSet
417 -11 m 256,0,1
 389 -11 389 -11 369 9 c 128,-1,2
 349 29 349 29 349 57 c 0,3,4
 349 84 349 84 369 104 c 128,-1,5
 389 124 389 124 417 124 c 256,6,7
 445 124 445 124 465 104 c 128,-1,8
 485 84 485 84 485 57 c 0,9,10
 485 29 485 29 465 9 c 128,-1,11
 445 -11 445 -11 417 -11 c 256,0,1
243 -11 m 256,12,13
 215 -11 215 -11 195 9 c 128,-1,14
 175 29 175 29 175 57 c 0,15,16
 175 84 175 84 195 104 c 128,-1,17
 215 124 215 124 243 124 c 256,18,19
 271 124 271 124 291 104 c 128,-1,20
 311 84 311 84 311 57 c 0,21,22
 311 29 311 29 291 9 c 128,-1,23
 271 -11 271 -11 243 -11 c 256,12,13
71 -11 m 256,24,25
 43 -11 43 -11 23 9 c 128,-1,26
 3 29 3 29 3 57 c 0,27,28
 3 84 3 84 23 104 c 128,-1,29
 43 124 43 124 71 124 c 256,30,31
 99 124 99 124 119 104 c 128,-1,32
 139 84 139 84 139 57 c 0,33,34
 139 29 139 29 119 9 c 128,-1,35
 99 -11 99 -11 71 -11 c 256,24,25
EndSplineSet
EndChar

StartChar: perthousand
Encoding: 8240 8240 613
Width: 500
Flags: W
LayerCount: 2
Fore
SplineSet
128 392 m 0,0,1
 85 392 85 392 54.5 426.5 c 128,-1,2
 24 461 24 461 24 513 c 0,3,4
 24 547 24 547 38 574.5 c 128,-1,5
 52 602 52 602 76 618.5 c 128,-1,6
 100 635 100 635 128 635 c 0,7,8
 172 635 172 635 202 600 c 128,-1,9
 232 565 232 565 232 513 c 0,10,11
 232 478 232 478 217.5 451 c 128,-1,12
 203 424 203 424 179.5 408 c 128,-1,13
 156 392 156 392 128 392 c 0,0,1
129 455 m 0,14,15
 143 455 143 455 154.5 469 c 128,-1,16
 166 483 166 483 166 512 c 0,17,18
 166 537 166 537 155.5 553.5 c 128,-1,19
 145 570 145 570 127 570 c 0,20,21
 113 570 113 570 101 557 c 128,-1,22
 89 544 89 544 89 514 c 0,23,24
 89 483 89 483 101.5 469 c 128,-1,25
 114 455 114 455 129 455 c 0,14,15
20 222 m 1,26,-1
 20 288 l 1,27,-1
 480 538 l 1,28,-1
 480 472 l 1,29,-1
 20 222 l 1,26,-1
128 -10 m 0,30,31
 85 -10 85 -10 54.5 24.5 c 128,-1,32
 24 59 24 59 24 111 c 0,33,34
 24 145 24 145 38 172.5 c 128,-1,35
 52 200 52 200 76 216.5 c 128,-1,36
 100 233 100 233 128 233 c 0,37,38
 172 233 172 233 202 198 c 128,-1,39
 232 163 232 163 232 111 c 0,40,41
 232 77 232 77 217.5 49.5 c 128,-1,42
 203 22 203 22 179.5 6 c 128,-1,43
 156 -10 156 -10 128 -10 c 0,30,31
368 -10 m 0,44,45
 325 -10 325 -10 294.5 24.5 c 128,-1,46
 264 59 264 59 264 111 c 0,47,48
 264 145 264 145 278 172.5 c 128,-1,49
 292 200 292 200 315.5 216.5 c 128,-1,50
 339 233 339 233 368 233 c 0,51,52
 412 233 412 233 442 198 c 128,-1,53
 472 163 472 163 472 111 c 0,54,55
 472 77 472 77 457.5 49.5 c 128,-1,56
 443 22 443 22 419 6 c 128,-1,57
 395 -10 395 -10 368 -10 c 0,44,45
129 53 m 0,58,59
 143 53 143 53 154.5 67 c 128,-1,60
 166 81 166 81 166 110 c 0,61,62
 166 135 166 135 155.5 151.5 c 128,-1,63
 145 168 145 168 127 168 c 0,64,65
 113 168 113 168 101 155 c 128,-1,66
 89 142 89 142 89 112 c 0,67,68
 89 81 89 81 101.5 67 c 128,-1,69
 114 53 114 53 129 53 c 0,58,59
369 53 m 0,70,71
 383 53 383 53 394.5 67 c 128,-1,72
 406 81 406 81 406 110 c 0,73,74
 406 135 406 135 395.5 151.5 c 128,-1,75
 385 168 385 168 367 168 c 0,76,77
 353 168 353 168 341 155 c 128,-1,78
 329 142 329 142 329 112 c 0,79,80
 329 81 329 81 341.5 67 c 128,-1,81
 354 53 354 53 369 53 c 0,70,71
EndSplineSet
EndChar

StartChar: minute
Encoding: 8242 8242 614
Width: 500
Flags: W
LayerCount: 2
Fore
SplineSet
271 523 m 1,0,-1
 209 523 l 1,1,-1
 232 715 l 1,2,-1
 329 715 l 1,3,-1
 271 523 l 1,0,-1
EndSplineSet
EndChar

StartChar: guilsinglleft
Encoding: 8249 8249 616
Width: 500
Flags: W
LayerCount: 2
Fore
SplineSet
289 43 m 1,0,-1
 122 223 l 1,1,-1
 122 257 l 1,2,-1
 286 416 l 1,3,-1
 352 348 l 1,4,-1
 238 239 l 1,5,-1
 357 111 l 1,6,-1
 289 43 l 1,0,-1
EndSplineSet
Substitution2: "'rtla' Right to Left Alternates lookup 0 subtable" guilsinglright
EndChar

StartChar: guilsinglright
Encoding: 8250 8250 617
Width: 500
Flags: W
LayerCount: 2
Fore
SplineSet
193 43 m 1,0,-1
 125 111 l 1,1,-1
 244 239 l 1,2,-1
 130 348 l 1,3,-1
 196 416 l 1,4,-1
 360 257 l 1,5,-1
 360 223 l 1,6,-1
 193 43 l 1,0,-1
EndSplineSet
Substitution2: "'rtla' Right to Left Alternates lookup 0 subtable" guilsinglleft
EndChar

StartChar: fraction
Encoding: 8260 8260 618
Width: 500
Flags: W
LayerCount: 2
Fore
SplineSet
123 -43 m 1,0,-1
 60 -4 l 1,1,-1
 370 671 l 1,2,-1
 434 630 l 1,3,-1
 123 -43 l 1,0,-1
EndSplineSet
EndChar

StartChar: uni2070
Encoding: 8304 8304 619
Width: 500
Flags: W
LayerCount: 2
Fore
SplineSet
250 239 m 256,0,1
 183 239 183 239 143 290.5 c 128,-1,2
 103 342 103 342 103 437 c 256,3,4
 103 532 103 532 143 585 c 128,-1,5
 183 638 183 638 250 638 c 256,6,7
 317 638 317 638 357 585 c 128,-1,8
 397 532 397 532 397 437 c 256,9,10
 397 342 397 342 357 290.5 c 128,-1,11
 317 239 317 239 250 239 c 256,0,1
177 437 m 0,12,13
 177 415 177 415 179 396 c 1,14,-1
 308 531 l 1,15,16
 290 575 290 575 250 575 c 0,17,18
 214 575 214 575 195.5 538.5 c 128,-1,19
 177 502 177 502 177 437 c 0,12,13
250 299 m 0,20,21
 287 299 287 299 305 335 c 128,-1,22
 323 371 323 371 323 437 c 0,23,24
 323 459 323 459 321 478 c 1,25,-1
 191 343 l 1,26,27
 210 299 210 299 250 299 c 0,20,21
EndSplineSet
EndChar

StartChar: uni2074
Encoding: 8308 8308 620
Width: 500
Flags: W
LayerCount: 2
Fore
SplineSet
271 246 m 1,0,-1
 271 335 l 1,1,-1
 105 335 l 1,2,-1
 105 386 l 1,3,-1
 289 632 l 1,4,-1
 348 632 l 1,5,-1
 348 400 l 1,6,-1
 404 400 l 1,7,-1
 404 334 l 1,8,-1
 348 334 l 1,9,-1
 348 246 l 1,10,-1
 271 246 l 1,0,-1
189 398 m 1,11,-1
 273 398 l 1,12,-1
 273 513 l 1,13,-1
 189 398 l 1,11,-1
EndSplineSet
EndChar

StartChar: uni2075
Encoding: 8309 8309 621
Width: 500
Flags: W
LayerCount: 2
Fore
SplineSet
252 239 m 0,0,1
 206 239 206 239 170 254 c 128,-1,2
 134 269 134 269 115 300 c 1,3,-1
 170 345 l 1,4,-1
 177 352 l 1,5,-1
 183 345 l 1,6,7
 183 336 183 336 187.5 330.5 c 128,-1,8
 192 325 192 325 204 314 c 1,9,10
 225 303 225 303 251 303 c 0,11,12
 281 303 281 303 300 321.5 c 128,-1,13
 319 340 319 340 319 368 c 0,14,15
 319 400 319 400 300.5 419.5 c 128,-1,16
 282 439 282 439 249 439 c 0,17,18
 205 439 205 439 181 410 c 1,19,-1
 132 424 l 1,20,-1
 147 632 l 1,21,-1
 377 632 l 1,22,-1
 377 569 l 1,23,-1
 214 569 l 1,24,-1
 209 489 l 1,25,26
 221 496 221 496 238 500 c 128,-1,27
 255 504 255 504 269 504 c 0,28,29
 325 504 325 504 360 471.5 c 128,-1,30
 395 439 395 439 395 375 c 0,31,32
 395 312 395 312 355 275.5 c 128,-1,33
 315 239 315 239 252 239 c 0,0,1
EndSplineSet
EndChar

StartChar: uni2076
Encoding: 8310 8310 622
Width: 500
Flags: W
LayerCount: 2
Fore
SplineSet
256 239 m 0,0,1
 187 239 187 239 150 289.5 c 128,-1,2
 113 340 113 340 113 423 c 0,3,4
 113 525 113 525 158 582 c 128,-1,5
 203 639 203 639 273 639 c 0,6,7
 302 639 302 639 331.5 630 c 128,-1,8
 361 621 361 621 383 600 c 1,9,-1
 342 552 l 1,10,-1
 335 545 l 1,11,-1
 328 551 l 1,12,13
 327 559 327 559 320.5 561.5 c 128,-1,14
 314 564 314 564 299 571 c 0,15,16
 292 573 292 573 281 573 c 0,17,18
 263 573 263 573 244 565.5 c 128,-1,19
 225 558 225 558 210.5 536.5 c 128,-1,20
 196 515 196 515 192 472 c 1,21,22
 206 486 206 486 226.5 494 c 128,-1,23
 247 502 247 502 269 502 c 0,24,25
 321 502 321 502 355.5 471 c 128,-1,26
 390 440 390 440 390 376 c 0,27,28
 390 317 390 317 352.5 278 c 128,-1,29
 315 239 315 239 256 239 c 0,0,1
258 303 m 0,30,31
 283 303 283 303 299.5 323 c 128,-1,32
 316 343 316 343 316 375 c 0,33,34
 316 409 316 409 297.5 424.5 c 128,-1,35
 279 440 279 440 257 440 c 0,36,37
 237 440 237 440 221.5 429.5 c 128,-1,38
 206 419 206 419 193 402 c 1,39,40
 192 354 192 354 210 328 c 128,-1,41
 228 302 228 302 258 303 c 0,30,31
EndSplineSet
EndChar

StartChar: uni2077
Encoding: 8311 8311 623
Width: 500
Flags: W
LayerCount: 2
Fore
SplineSet
163 246 m 1,0,1
 193 329 193 329 225 407 c 128,-1,2
 257 485 257 485 293 564 c 1,3,-1
 122 564 l 1,4,-1
 122 632 l 1,5,-1
 384 632 l 1,6,-1
 384 588 l 1,7,8
 344 504 344 504 309 420.5 c 128,-1,9
 274 337 274 337 244 246 c 1,10,-1
 163 246 l 1,0,1
EndSplineSet
EndChar

StartChar: uni2078
Encoding: 8312 8312 624
Width: 500
Flags: W
LayerCount: 2
Fore
SplineSet
250 239 m 0,0,1
 185 239 185 239 146 269 c 128,-1,2
 107 299 107 299 107 346 c 0,3,4
 107 384 107 384 128 410 c 128,-1,5
 149 436 149 436 183 453 c 1,6,7
 158 467 158 467 142.5 489.5 c 128,-1,8
 127 512 127 512 127 538 c 0,9,10
 127 581 127 581 161.5 610 c 128,-1,11
 196 639 196 639 254 639 c 0,12,13
 314 639 314 639 346.5 611 c 128,-1,14
 379 583 379 583 379 542 c 0,15,16
 379 510 379 510 365.5 487 c 128,-1,17
 352 464 352 464 327 449 c 1,18,19
 394 416 394 416 394 349 c 0,20,21
 394 300 394 300 354 269.5 c 128,-1,22
 314 239 314 239 250 239 c 0,0,1
264 473 m 1,23,24
 303 497 303 497 303 534 c 0,25,26
 303 551 303 551 289.5 562.5 c 128,-1,27
 276 574 276 574 252 574 c 0,28,29
 229 574 229 574 216 563 c 128,-1,30
 203 552 203 552 203 536 c 0,31,32
 203 515 203 515 221 499.5 c 128,-1,33
 239 484 239 484 264 473 c 1,23,24
251 304 m 0,34,35
 282 304 282 304 298.5 318 c 128,-1,36
 315 332 315 332 315 353 c 0,37,38
 315 377 315 377 293 394.5 c 128,-1,39
 271 412 271 412 236 422 c 1,40,41
 213 410 213 410 199.5 394 c 128,-1,42
 186 378 186 378 186 355 c 256,43,44
 186 332 186 332 203.5 318 c 128,-1,45
 221 304 221 304 251 304 c 0,34,35
EndSplineSet
EndChar

StartChar: uni2079
Encoding: 8313 8313 625
Width: 500
Flags: W
LayerCount: 2
Fore
SplineSet
232 239 m 0,0,1
 200 239 200 239 169 246.5 c 128,-1,2
 138 254 138 254 113 273 c 1,3,-1
 154 333 l 1,4,-1
 159 341 l 1,5,-1
 167 335 l 1,6,7
 169 327 169 327 174.5 322 c 128,-1,8
 180 317 180 317 194 309 c 0,9,10
 210 303 210 303 229 303 c 0,11,12
 260 303 260 303 281 327.5 c 128,-1,13
 302 352 302 352 309 396 c 1,14,15
 279 380 279 380 240 380 c 0,16,17
 185 380 185 380 147 414 c 128,-1,18
 109 448 109 448 109 506 c 0,19,20
 109 544 109 544 128 574 c 128,-1,21
 147 604 147 604 179 621 c 128,-1,22
 211 638 211 638 250 638 c 0,23,24
 386 638 386 638 386 456 c 0,25,26
 386 350 386 350 346.5 294.5 c 128,-1,27
 307 239 307 239 232 239 c 0,0,1
184 502 m 0,28,29
 185 473 185 473 203 458 c 128,-1,30
 221 443 221 443 247 443 c 0,31,32
 266 443 266 443 282.5 447.5 c 128,-1,33
 299 452 299 452 312 465 c 1,34,35
 310 527 310 527 294 551.5 c 128,-1,36
 278 576 278 576 247 576 c 0,37,38
 219 576 219 576 201.5 556 c 128,-1,39
 184 536 184 536 184 502 c 0,28,29
EndSplineSet
EndChar

StartChar: colonmonetary
Encoding: 8353 8353 638
Width: 500
Flags: W
LayerCount: 2
Fore
SplineSet
104 -71 m 1,0,-1
 133 38 l 1,1,2
 87 75 87 75 59 142 c 128,-1,3
 31 209 31 209 31 308 c 0,4,5
 31 400 31 400 53.5 462.5 c 128,-1,6
 76 525 76 525 113 562 c 128,-1,7
 150 599 150 599 194.5 615.5 c 128,-1,8
 239 632 239 632 283 632 c 0,9,10
 288 632 288 632 292 632 c 2,11,-1
 304 675 l 1,12,-1
 344 675 l 1,13,-1
 332 628 l 1,14,15
 347 625 347 625 361 620 c 1,16,-1
 376 675 l 1,17,-1
 417 675 l 1,18,-1
 398 604 l 1,19,20
 452 572 452 572 480 510 c 1,21,-1
 409 457 l 1,22,-1
 401 452 l 1,23,-1
 396 460 l 1,24,25
 397 467 397 467 394.5 474.5 c 128,-1,26
 392 482 392 482 384 496 c 0,27,28
 378 503 378 503 372 508 c 1,29,-1
 259 85 l 1,30,31
 270 82 270 82 282 82 c 0,32,33
 319 82 319 82 346 98 c 128,-1,34
 373 114 373 114 395 151 c 1,35,-1
 473 93 l 1,36,37
 438 36 438 36 390.5 12.5 c 128,-1,38
 343 -11 343 -11 279 -11 c 0,39,40
 256 -11 256 -11 234 -7 c 1,41,-1
 217 -71 l 1,42,-1
 176 -71 l 1,43,-1
 196 3 l 1,44,45
 181 8 181 8 167 15 c 1,46,-1
 144 -71 l 1,47,-1
 104 -71 l 1,0,-1
196 124 m 1,48,49
 208 110 208 110 222 101 c 1,50,-1
 338 532 l 1,51,52
 324 538 324 538 308 540 c 1,53,-1
 196 124 l 1,48,49
143 313 m 0,54,55
 143 270 143 270 149.5 234 c 128,-1,56
 156 198 156 198 168 170 c 1,57,-1
 267 539 l 1,58,59
 216 528 216 528 179.5 471 c 128,-1,60
 143 414 143 414 143 313 c 0,54,55
EndSplineSet
EndChar

StartChar: uni20A6
Encoding: 8358 8358 641
Width: 500
Flags: W
LayerCount: 2
Fore
SplineSet
14 287 m 1,0,-1
 14 338 l 1,1,-1
 57 338 l 1,2,-1
 57 623 l 1,3,-1
 163 623 l 1,4,-1
 295 338 l 1,5,-1
 351 338 l 1,6,-1
 348 623 l 1,7,-1
 447 623 l 1,8,-1
 447 614 l 1,9,10
 442 608 442 608 440.5 600.5 c 128,-1,11
 439 593 439 593 439 577 c 2,12,-1
 439 338 l 1,13,-1
 489 338 l 1,14,-1
 489 287 l 1,15,-1
 439 287 l 1,16,-1
 439 0 l 1,17,-1
 345 0 l 1,18,-1
 216 287 l 1,19,-1
 148 287 l 1,20,-1
 148 0 l 1,21,-1
 57 0 l 1,22,-1
 57 287 l 1,23,-1
 14 287 l 1,0,-1
148 437 m 1,24,-1
 148 338 l 1,25,-1
 193 338 l 1,26,-1
 148 437 l 1,24,-1
353 213 m 1,27,-1
 352 287 l 1,28,-1
 318 287 l 1,29,-1
 353 213 l 1,27,-1
EndSplineSet
EndChar

StartChar: peseta
Encoding: 8359 8359 642
Width: 500
Flags: W
LayerCount: 2
Fore
SplineSet
34 623 m 1,0,-1
 129 623 l 2,1,2
 186 623 186 623 223 601.5 c 128,-1,3
 260 580 260 580 278 545.5 c 128,-1,4
 296 511 296 511 296 471 c 0,5,6
 296 404 296 404 252.5 359.5 c 128,-1,7
 209 315 209 315 134 315 c 2,8,-1
 111 315 l 1,9,-1
 111 0 l 1,10,-1
 34 0 l 1,11,-1
 34 623 l 1,0,-1
126 377 m 2,12,13
 173 377 173 377 193.5 401 c 128,-1,14
 214 425 214 425 214 469 c 0,15,16
 214 510 214 510 193.5 533.5 c 128,-1,17
 173 557 173 557 127 557 c 2,18,-1
 111 557 l 1,19,-1
 111 377 l 1,20,-1
 126 377 l 2,12,13
253 -12 m 0,21,22
 203 -12 203 -12 183.5 18.5 c 128,-1,23
 164 49 164 49 167 110 c 2,24,-1
 172 203 l 1,25,-1
 128 203 l 1,26,-1
 135 261 l 1,27,-1
 176 261 l 1,28,-1
 176 304 l 1,29,-1
 239 316 l 1,30,-1
 249 317 l 1,31,-1
 250 308 l 1,32,33
 246 301 246 301 242.5 293.5 c 128,-1,34
 239 286 239 286 239 269 c 2,35,-1
 239 261 l 1,36,-1
 286 261 l 1,37,-1
 279 203 l 1,38,-1
 235 203 l 1,39,-1
 232 111 l 2,40,41
 230 76 230 76 237 61 c 128,-1,42
 244 46 244 46 265 46 c 0,43,44
 278 46 278 46 288 54 c 1,45,-1
 305 87 l 1,46,-1
 308 95 l 1,47,-1
 315 92 l 1,48,49
 317 85 317 85 319.5 77.5 c 128,-1,50
 322 70 322 70 331 61 c 0,51,52
 344 52 344 52 358 48.5 c 128,-1,53
 372 45 372 45 388 45 c 0,54,55
 428 45 428 45 428 70 c 0,56,57
 428 81 428 81 418 88.5 c 128,-1,58
 408 96 408 96 381 105 c 0,59,60
 348 115 348 115 323.5 134.5 c 128,-1,61
 299 154 299 154 299 191 c 0,62,63
 299 225 299 225 323 245.5 c 128,-1,64
 347 266 347 266 387 266 c 0,65,66
 415 266 415 266 438.5 258 c 128,-1,67
 462 250 462 250 483 228 c 1,68,-1
 452 184 l 1,69,-1
 446 176 l 1,70,-1
 442 179 l 1,71,72
 441 187 441 187 438.5 191 c 128,-1,73
 436 195 436 195 427 202 c 0,74,75
 410 212 410 212 391 212 c 0,76,77
 358 212 358 212 358 192 c 0,78,79
 358 182 358 182 368 173.5 c 128,-1,80
 378 165 378 165 408 155 c 0,81,82
 453 140 453 140 470 122 c 128,-1,83
 487 104 487 104 487 76 c 0,84,85
 487 39 487 39 462.5 13 c 128,-1,86
 438 -13 438 -13 392 -13 c 0,87,88
 349 -14 349 -14 313 7 c 1,89,90
 299 -4 299 -4 284 -8 c 128,-1,91
 269 -12 269 -12 253 -12 c 0,21,22
EndSplineSet
EndChar

StartChar: uni20A9
Encoding: 8361 8361 643
Width: 500
Flags: W
LayerCount: 2
Fore
SplineSet
106 0 m 1,0,-1
 72 286 l 1,1,-1
 14 286 l 1,2,-1
 14 337 l 1,3,-1
 66 337 l 1,4,-1
 32 623 l 1,5,-1
 120 623 l 1,6,-1
 148 337 l 1,7,-1
 180 337 l 1,8,-1
 230 574 l 1,9,-1
 283 574 l 1,10,-1
 334 337 l 1,11,-1
 364 337 l 1,12,-1
 385 623 l 1,13,-1
 468 623 l 1,14,-1
 435 337 l 1,15,-1
 489 337 l 1,16,-1
 489 286 l 1,17,-1
 429 286 l 1,18,-1
 396 0 l 1,19,-1
 332 0 l 1,20,-1
 273 286 l 1,21,-1
 232 286 l 1,22,-1
 171 0 l 1,23,-1
 106 0 l 1,0,-1
252 384 m 1,24,-1
 242 337 l 1,25,-1
 262 337 l 1,26,-1
 252 384 l 1,24,-1
158 232 m 1,27,-1
 169 286 l 1,28,-1
 153 286 l 1,29,-1
 158 232 l 1,27,-1
356 233 m 1,30,-1
 360 286 l 1,31,-1
 345 286 l 1,32,-1
 356 233 l 1,30,-1
EndSplineSet
EndChar

StartChar: dong
Encoding: 8363 8363 644
Width: 500
Flags: W
LayerCount: 2
Fore
SplineSet
222 103 m 0,0,1
 181 103 181 103 146 124.5 c 128,-1,2
 111 146 111 146 89.5 189 c 128,-1,3
 68 232 68 232 68 297 c 0,4,5
 68 392 68 392 113 439.5 c 128,-1,6
 158 487 158 487 223 487 c 0,7,8
 251 487 251 487 275 477 c 128,-1,9
 299 467 299 467 313 444 c 1,10,-1
 313 517 l 1,11,-1
 187 517 l 1,12,-1
 187 583 l 1,13,-1
 313 583 l 1,14,-1
 313 641 l 1,15,-1
 409 641 l 1,16,-1
 409 633 l 1,17,18
 402 626 402 626 402 604 c 2,19,-1
 402 583 l 1,20,-1
 462 583 l 1,21,-1
 462 517 l 1,22,-1
 402 517 l 1,23,-1
 402 161 l 2,24,25
 402 149 402 149 403 136.5 c 128,-1,26
 404 124 404 124 410 112 c 1,27,-1
 321 112 l 1,28,29
 315 124 315 124 314.5 132 c 128,-1,30
 314 140 314 140 314 152 c 1,31,32
 298 127 298 127 274.5 115 c 128,-1,33
 251 103 251 103 222 103 c 0,0,1
238 174 m 0,34,35
 311 174 311 174 311 296 c 0,36,37
 311 419 311 419 235 419 c 0,38,39
 197 419 197 419 176.5 386.5 c 128,-1,40
 156 354 156 354 156 298 c 0,41,42
 156 240 156 240 180 207 c 128,-1,43
 204 174 204 174 238 174 c 0,34,35
88 63 m 1,44,-1
 433 63 l 1,45,-1
 433 0 l 1,46,-1
 88 0 l 1,47,-1
 88 63 l 1,44,-1
EndSplineSet
EndChar

StartChar: Euro
Encoding: 8364 8364 645
Width: 500
Flags: W
LayerCount: 2
Fore
SplineSet
316 -15 m 0,0,1
 225 -15 225 -15 163 39 c 128,-1,2
 101 93 101 93 81 194 c 1,3,-1
 19 194 l 1,4,-1
 40 284 l 1,5,-1
 72 284 l 1,6,7
 72 295 72 295 72.5 309 c 128,-1,8
 73 323 73 323 74 335 c 1,9,-1
 20 335 l 1,10,-1
 41 426 l 1,11,-1
 88 426 l 1,12,13
 105 500 105 500 141 544.5 c 128,-1,14
 177 589 177 589 225 609.5 c 128,-1,15
 273 630 273 630 325 630 c 0,16,17
 418 630 418 630 479 563 c 1,18,-1
 444 470 l 1,19,20
 434 477 434 477 425.5 488.5 c 128,-1,21
 417 500 417 500 405.5 512 c 128,-1,22
 394 524 394 524 374 532.5 c 128,-1,23
 354 541 354 541 321 541 c 0,24,25
 278 541 278 541 241.5 512 c 128,-1,26
 205 483 205 483 193 426 c 1,27,-1
 428 426 l 1,28,-1
 395 335 l 1,29,-1
 179 335 l 1,30,31
 177 324 177 324 177 312.5 c 128,-1,32
 177 301 177 301 177 284 c 1,33,-1
 376 284 l 1,34,-1
 342 194 l 1,35,-1
 187 194 l 1,36,37
 199 134 199 134 234.5 105.5 c 128,-1,38
 270 77 270 77 320 77 c 0,39,40
 350 77 350 77 377 89 c 128,-1,41
 404 101 404 101 428 128 c 1,42,-1
 474 49 l 1,43,44
 439 15 439 15 401 0 c 128,-1,45
 363 -15 363 -15 316 -15 c 0,0,1
EndSplineSet
EndChar

StartChar: uni20AD
Encoding: 8365 8365 646
Width: 500
Flags: W
LayerCount: 2
Fore
SplineSet
5 321 m 1,0,-1
 5 384 l 1,1,-1
 45 384 l 1,2,-1
 45 623 l 1,3,-1
 164 623 l 1,4,-1
 164 614 l 1,5,6
 158 608 158 608 157 600.5 c 128,-1,7
 156 593 156 593 156 577 c 2,8,-1
 156 368 l 1,9,-1
 363 629 l 1,10,11
 378 625 378 625 401 624 c 128,-1,12
 424 623 424 623 436 623 c 2,13,-1
 488 623 l 1,14,-1
 295 384 l 1,15,-1
 469 384 l 1,16,-1
 469 321 l 1,17,-1
 302 321 l 1,18,-1
 500 1 l 1,19,-1
 371 -4 l 1,20,-1
 197 282 l 1,21,-1
 156 228 l 1,22,-1
 156 0 l 1,23,-1
 45 0 l 1,24,-1
 45 321 l 1,25,-1
 5 321 l 1,0,-1
EndSplineSet
EndChar

StartChar: uni20B1
Encoding: 8369 8369 647
Width: 500
Flags: W
LayerCount: 2
Fore
SplineSet
45 0 m 1,0,-1
 45 385 l 1,1,-1
 13 385 l 1,2,-1
 13 426 l 1,3,-1
 45 426 l 1,4,-1
 45 453 l 1,5,-1
 13 453 l 1,6,-1
 13 494 l 1,7,-1
 45 494 l 1,8,-1
 45 623 l 1,9,-1
 258 623 l 2,10,11
 346 623 346 623 396 586 c 128,-1,12
 446 549 446 549 462 494 c 1,13,-1
 498 494 l 1,14,-1
 498 453 l 1,15,-1
 468 453 l 1,16,17
 469 447 469 447 469 440 c 256,18,19
 469 433 469 433 468 426 c 1,20,-1
 498 426 l 1,21,-1
 498 385 l 1,22,-1
 461 385 l 1,23,24
 445 331 445 331 396.5 296 c 128,-1,25
 348 261 348 261 263 261 c 2,26,-1
 160 261 l 1,27,-1
 160 0 l 1,28,-1
 45 0 l 1,0,-1
160 525 m 1,29,-1
 160 494 l 1,30,-1
 335 494 l 1,31,32
 309 525 309 525 256 525 c 2,33,-1
 160 525 l 1,29,-1
353 440 m 0,34,35
 353 449 353 449 351 457 c 1,36,-1
 160 457 l 1,37,-1
 160 426 l 1,38,-1
 352 426 l 1,39,40
 353 433 353 433 353 440 c 0,34,35
160 355 m 1,41,-1
 255 355 l 2,42,43
 312 355 312 355 337 389 c 1,44,-1
 160 389 l 1,45,-1
 160 355 l 1,41,-1
EndSplineSet
EndChar

StartChar: uni20B2
Encoding: 8370 8370 648
Width: 500
Flags: W
LayerCount: 2
Fore
SplineSet
213 -71 m 1,0,-1
 213 -12 l 1,1,2
 118 9 118 9 67.5 96.5 c 128,-1,3
 17 184 17 184 17 312 c 0,4,5
 17 392 17 392 35 448.5 c 128,-1,6
 53 505 53 505 82 542.5 c 128,-1,7
 111 580 111 580 145 601.5 c 128,-1,8
 179 623 179 623 213 631 c 1,9,-1
 213 675 l 1,10,-1
 288 675 l 1,11,-1
 288 639 l 1,12,13
 360 635 360 635 402 602 c 128,-1,14
 444 569 444 569 467 517 c 1,15,-1
 406 446 l 1,16,17
 399 448 399 448 393 462.5 c 128,-1,18
 387 477 387 477 376 495 c 128,-1,19
 365 513 365 513 344.5 528 c 128,-1,20
 324 543 324 543 288 547 c 1,21,-1
 288 75 l 1,22,23
 307 77 307 77 325 84 c 128,-1,24
 343 91 343 91 359 103 c 1,25,-1
 359 220 l 1,26,-1
 316 220 l 1,27,-1
 316 315 l 1,28,-1
 465 315 l 1,29,-1
 465 53 l 1,30,31
 424 19 424 19 380.5 2 c 128,-1,32
 337 -15 337 -15 288 -17 c 1,33,-1
 288 -71 l 1,34,-1
 213 -71 l 1,0,-1
131 319 m 0,35,36
 131 235 131 235 153.5 176.5 c 128,-1,37
 176 118 176 118 213 92 c 1,38,-1
 213 532 l 1,39,40
 179 511 179 511 155 459.5 c 128,-1,41
 131 408 131 408 131 319 c 0,35,36
EndSplineSet
EndChar

StartChar: uni20B5
Encoding: 8373 8373 649
Width: 500
Flags: W
LayerCount: 2
Fore
SplineSet
244 -71 m 1,0,-1
 244 -9 l 1,1,2
 184 -1 184 -1 136 35.5 c 128,-1,3
 88 72 88 72 59.5 139.5 c 128,-1,4
 31 207 31 207 31 308 c 0,5,6
 31 417 31 417 62.5 485 c 128,-1,7
 94 553 94 553 143 587 c 128,-1,8
 192 621 192 621 244 629 c 1,9,-1
 244 675 l 1,10,-1
 324 675 l 1,11,-1
 324 629 l 1,12,13
 379 621 379 621 418.5 590 c 128,-1,14
 458 559 458 559 480 510 c 1,15,-1
 409 457 l 1,16,-1
 401 452 l 1,17,-1
 396 460 l 1,18,19
 397 467 397 467 394.5 474.5 c 128,-1,20
 392 482 392 482 384 496 c 0,21,22
 370 513 370 513 355 522.5 c 128,-1,23
 340 532 340 532 324 536 c 1,24,-1
 324 88 l 1,25,26
 366 102 366 102 395 151 c 1,27,-1
 473 93 l 1,28,29
 445 47 445 47 408 23 c 128,-1,30
 371 -1 371 -1 324 -8 c 1,31,-1
 324 -71 l 1,32,-1
 244 -71 l 1,0,-1
143 313 m 0,33,34
 143 222 143 222 171 164 c 128,-1,35
 199 106 199 106 244 89 c 1,36,-1
 244 531 l 1,37,38
 202 513 202 513 172.5 458 c 128,-1,39
 143 403 143 403 143 313 c 0,33,34
EndSplineSet
EndChar

StartChar: uni20B9
Encoding: 8377 8377 650
Width: 500
Flags: W
LayerCount: 2
Fore
SplineSet
55 347 m 1,0,-1
 175 347 l 2,1,2
 214 347 214 347 236 361.5 c 128,-1,3
 258 376 258 376 266 402 c 1,4,-1
 55 402 l 1,5,-1
 55 471 l 1,6,-1
 267 471 l 1,7,8
 260 500 260 500 237.5 516 c 128,-1,9
 215 532 215 532 175 532 c 2,10,-1
 55 532 l 1,11,-1
 55 623 l 1,12,-1
 456 623 l 1,13,-1
 456 556 l 1,14,-1
 310 556 l 1,15,16
 365 528 365 528 380 471 c 1,17,-1
 456 471 l 1,18,-1
 456 402 l 1,19,-1
 384 402 l 1,20,21
 377 355 377 355 346 320.5 c 128,-1,22
 315 286 315 286 267 271 c 1,23,-1
 413 0 l 1,24,-1
 287 0 l 1,25,-1
 158 258 l 1,26,-1
 55 258 l 1,27,-1
 55 347 l 1,0,-1
EndSplineSet
EndChar

StartChar: uni20BA
Encoding: 8378 8378 651
Width: 500
Flags: W
LayerCount: 2
Fore
SplineSet
105 0 m 1,0,-1
 105 282 l 1,1,-1
 25 254 l 1,2,-1
 25 321 l 1,3,-1
 105 349 l 1,4,-1
 105 395 l 1,5,-1
 25 367 l 1,6,-1
 25 434 l 1,7,-1
 105 462 l 1,8,-1
 105 623 l 1,9,-1
 227 623 l 1,10,11
 227 613 227 613 224.5 610 c 128,-1,12
 222 607 222 607 220 588 c 2,13,-1
 220 503 l 1,14,-1
 366 554 l 1,15,-1
 366 487 l 1,16,-1
 220 436 l 1,17,-1
 220 390 l 1,18,-1
 366 441 l 1,19,-1
 366 374 l 1,20,-1
 220 323 l 1,21,-1
 220 94 l 1,22,23
 250 94 250 94 280 98.5 c 128,-1,24
 310 103 310 103 335 117 c 128,-1,25
 360 131 360 131 375 158.5 c 128,-1,26
 390 186 390 186 390 233 c 1,27,-1
 484 233 l 1,28,29
 484 169 484 169 458 116 c 128,-1,30
 432 63 432 63 373.5 31.5 c 128,-1,31
 315 0 315 0 220 0 c 2,32,-1
 105 0 l 1,0,-1
EndSplineSet
EndChar

StartChar: uni20BC
Encoding: 8380 8380 652
Width: 500
Flags: W
LayerCount: 2
Fore
SplineSet
207 89 m 1,0,-1
 207 519 l 1,1,2
 163 508 163 508 146 472.5 c 128,-1,3
 129 437 129 437 129 384 c 2,4,-1
 129 35 l 2,5,6
 129 17 129 17 132.5 14.5 c 128,-1,7
 136 12 136 12 136 0 c 1,8,-1
 37 0 l 1,9,-1
 37 383 l 2,10,11
 37 481 37 481 80 541.5 c 128,-1,12
 123 602 123 602 207 614 c 1,13,-1
 207 675 l 1,14,-1
 294 675 l 1,15,-1
 294 614 l 1,16,17
 372 602 372 602 417.5 544.5 c 128,-1,18
 463 487 463 487 463 380 c 2,19,-1
 463 0 l 1,20,-1
 373 0 l 1,21,-1
 373 381 l 2,22,23
 373 435 373 435 356 471 c 128,-1,24
 339 507 339 507 294 519 c 1,25,-1
 294 89 l 1,26,-1
 207 89 l 1,0,-1
EndSplineSet
EndChar

StartChar: uni20BD
Encoding: 8381 8381 653
Width: 500
Flags: W
LayerCount: 2
Fore
SplineSet
58 0 m 1,0,-1
 58 111 l 1,1,-1
 16 111 l 1,2,-1
 16 205 l 1,3,-1
 58 205 l 1,4,-1
 58 261 l 1,5,-1
 16 261 l 1,6,-1
 16 355 l 1,7,-1
 58 355 l 1,8,-1
 58 623 l 1,9,-1
 271 623 l 2,10,11
 343 623 343 623 389.5 598 c 128,-1,12
 436 573 436 573 459 531.5 c 128,-1,13
 482 490 482 490 482 440 c 0,14,15
 482 391 482 391 459.5 350.5 c 128,-1,16
 437 310 437 310 391.5 285.5 c 128,-1,17
 346 261 346 261 276 261 c 2,18,-1
 173 261 l 1,19,-1
 173 205 l 1,20,-1
 301 205 l 1,21,-1
 301 111 l 1,22,-1
 173 111 l 1,23,-1
 173 0 l 1,24,-1
 58 0 l 1,0,-1
173 355 m 1,25,-1
 268 355 l 2,26,27
 316 355 316 355 341 379 c 128,-1,28
 366 403 366 403 366 440 c 256,29,30
 366 477 366 477 341 501 c 128,-1,31
 316 525 316 525 269 525 c 2,32,-1
 173 525 l 1,33,-1
 173 355 l 1,25,-1
EndSplineSet
EndChar

StartChar: uni2113
Encoding: 8467 8467 654
Width: 500
Flags: W
LayerCount: 2
Fore
SplineSet
288 82 m 0,0,1
 322 82 322 82 338.5 110 c 128,-1,2
 355 138 355 138 357 186 c 1,3,-1
 461 186 l 1,4,5
 459 96 459 96 411 44 c 128,-1,6
 363 -8 363 -8 270 -8 c 0,7,8
 183 -8 183 -8 140.5 44 c 128,-1,9
 98 96 98 96 98 185 c 2,10,-1
 98 225 l 1,11,12
 74 217 74 217 51.5 210.5 c 128,-1,13
 29 204 29 204 7 199 c 1,14,-1
 7 288 l 1,15,16
 30 294 30 294 52.5 301 c 128,-1,17
 75 308 75 308 98 315 c 1,18,-1
 98 509 l 2,19,20
 98 592 98 592 143.5 641.5 c 128,-1,21
 189 691 189 691 278 691 c 0,22,23
 366 691 366 691 406.5 642 c 128,-1,24
 447 593 447 593 447 519 c 0,25,26
 447 437 447 437 390.5 369.5 c 128,-1,27
 334 302 334 302 215 260 c 1,28,-1
 215 181 l 2,29,30
 215 127 215 127 237 104.5 c 128,-1,31
 259 82 259 82 288 82 c 0,0,1
340 522 m 0,32,33
 340 556 340 556 326 581 c 128,-1,34
 312 606 312 606 278 606 c 0,35,36
 252 606 252 606 233.5 588.5 c 128,-1,37
 215 571 215 571 215 529 c 2,38,-1
 215 354 l 1,39,40
 265 379 265 379 302.5 420 c 128,-1,41
 340 461 340 461 340 522 c 0,32,33
EndSplineSet
EndChar

StartChar: uni2116
Encoding: 8470 8470 655
Width: 500
Flags: W
LayerCount: 2
Fore
SplineSet
391 442 m 0,0,1
 356 442 356 442 332.5 468 c 128,-1,2
 309 494 309 494 309 535 c 0,3,4
 309 578 309 578 334 606 c 128,-1,5
 359 634 359 634 394 634 c 0,6,7
 426 634 426 634 450.5 609.5 c 128,-1,8
 475 585 475 585 475 539 c 256,9,10
 475 493 475 493 450 467.5 c 128,-1,11
 425 442 425 442 391 442 c 0,0,1
31 0 m 1,12,-1
 31 623 l 1,13,-1
 118 623 l 1,14,-1
 206 262 l 1,15,-1
 206 623 l 1,16,-1
 294 623 l 1,17,18
 294 612 294 612 290.5 606.5 c 128,-1,19
 287 601 287 601 287 588 c 2,20,-1
 287 0 l 1,21,-1
 213 0 l 1,22,-1
 112 392 l 1,23,-1
 112 0 l 1,24,-1
 31 0 l 1,12,-1
392 490 m 256,25,26
 405 490 405 490 414 502 c 128,-1,27
 423 514 423 514 423 537 c 0,28,29
 423 561 423 561 414.5 574 c 128,-1,30
 406 587 406 587 393 587 c 256,31,32
 380 587 380 587 371 574 c 128,-1,33
 362 561 362 561 362 538 c 256,34,35
 362 515 362 515 370.5 502.5 c 128,-1,36
 379 490 379 490 392 490 c 256,25,26
310 357 m 1,37,-1
 310 416 l 1,38,-1
 474 416 l 1,39,-1
 474 357 l 1,40,-1
 310 357 l 1,37,-1
EndSplineSet
EndChar

StartChar: trademark
Encoding: 8482 8482 656
Width: 500
Flags: W
LayerCount: 2
Fore
SplineSet
93 320 m 1,0,-1
 93 572 l 1,1,-1
 18 572 l 1,2,-1
 18 636 l 1,3,-1
 237 636 l 1,4,-1
 237 572 l 1,5,-1
 165 572 l 1,6,-1
 165 320 l 1,7,-1
 93 320 l 1,0,-1
252 320 m 1,8,-1
 252 636 l 1,9,-1
 310 636 l 1,10,-1
 367 507 l 1,11,-1
 428 636 l 1,12,-1
 483 636 l 1,13,-1
 483 320 l 1,14,-1
 412 320 l 1,15,-1
 412 492 l 1,16,-1
 379 423 l 1,17,-1
 349 423 l 1,18,-1
 321 489 l 1,19,-1
 321 320 l 1,20,-1
 252 320 l 1,8,-1
EndSplineSet
EndChar

StartChar: uni2124
Encoding: 8484 8484 657
Width: 500
Flags: W
LayerCount: 2
Fore
SplineSet
464 623 m 1,0,-1
 464 556 l 1,1,-1
 243 74 l 1,2,-1
 417 74 l 2,3,4
 433 74 433 74 440.5 76 c 128,-1,5
 448 78 448 78 454 83 c 1,6,-1
 463 83 l 1,7,-1
 463 0 l 1,8,-1
 50 0 l 1,9,-1
 50 67 l 1,10,-1
 268 548 l 1,11,-1
 52 548 l 1,12,-1
 52 623 l 1,13,-1
 464 623 l 1,0,-1
391 548 m 1,14,-1
 339 548 l 1,15,-1
 121 74 l 1,16,-1
 176 74 l 1,17,-1
 391 548 l 1,14,-1
EndSplineSet
EndChar

StartChar: uni2126
Encoding: 8486 8486 658
Width: 500
Flags: W
LayerCount: 2
Fore
SplineSet
254 559 m 0,0,1
 196 559 196 559 166 510 c 128,-1,2
 136 461 136 461 136 369 c 0,3,4
 136 281 136 281 159.5 220.5 c 128,-1,5
 183 160 183 160 223 129 c 1,6,-1
 223 0 l 1,7,-1
 17 0 l 1,8,-1
 17 98 l 1,9,-1
 122 98 l 1,10,11
 75 143 75 143 47 217.5 c 128,-1,12
 19 292 19 292 19 389 c 0,13,14
 19 526 19 526 81.5 600.5 c 128,-1,15
 144 675 144 675 252 675 c 0,16,17
 356 675 356 675 420 601.5 c 128,-1,18
 484 528 484 528 484 389 c 0,19,20
 484 194 484 194 380 98 c 1,21,-1
 487 98 l 1,22,-1
 487 0 l 1,23,-1
 279 0 l 1,24,-1
 279 129 l 1,25,26
 326 162 326 162 347.5 223 c 128,-1,27
 369 284 369 284 369 370 c 0,28,29
 369 462 369 462 339.5 510.5 c 128,-1,30
 310 559 310 559 254 559 c 0,0,1
EndSplineSet
EndChar

StartChar: estimated
Encoding: 8494 8494 659
Width: 500
Flags: W
LayerCount: 2
Fore
SplineSet
252 -7 m 0,0,1
 178 -7 178 -7 127.5 27 c 128,-1,2
 77 61 77 61 51 116.5 c 128,-1,3
 25 172 25 172 25 235 c 256,4,5
 25 298 25 298 45 343.5 c 128,-1,6
 65 389 65 389 98 419 c 128,-1,7
 131 449 131 449 171.5 463 c 128,-1,8
 212 477 212 477 252 477 c 0,9,10
 317 477 317 477 368 447.5 c 128,-1,11
 419 418 419 418 449 364 c 128,-1,12
 479 310 479 310 479 235 c 1,13,-1
 125 235 l 1,14,-1
 125 82 l 1,15,16
 145 62 145 62 179 45.5 c 128,-1,17
 213 29 213 29 252 29 c 0,18,19
 316 29 316 29 354 55.5 c 128,-1,20
 392 82 392 82 422 129 c 1,21,-1
 452 112 l 1,22,23
 432 80 432 80 406 52.5 c 128,-1,24
 380 25 380 25 343.5 9 c 128,-1,25
 307 -7 307 -7 252 -7 c 0,0,1
380 271 m 1,26,-1
 380 390 l 1,27,28
 364 407 364 407 330.5 424 c 128,-1,29
 297 441 297 441 251 441 c 0,30,31
 208 441 208 441 176.5 426 c 128,-1,32
 145 411 145 411 125 391 c 1,33,-1
 125 271 l 1,34,-1
 380 271 l 1,26,-1
EndSplineSet
EndChar

StartChar: arrowup
Encoding: 8593 8593 661
Width: 500
Flags: W
LayerCount: 2
Fore
SplineSet
197 0 m 1,0,-1
 197 422 l 1,1,-1
 107 308 l 1,2,-1
 26 377 l 1,3,-1
 221 615 l 1,4,-1
 280 615 l 1,5,-1
 475 377 l 1,6,-1
 394 308 l 1,7,-1
 305 421 l 1,8,-1
 305 0 l 1,9,-1
 197 0 l 1,0,-1
EndSplineSet
EndChar

StartChar: arrowright
Encoding: 8594 8594 662
Width: 500
Flags: W
LayerCount: 2
Fore
SplineSet
12 350 m 1,0,-1
 285 350 l 1,1,-1
 171 440 l 1,2,-1
 240 521 l 1,3,-1
 478 326 l 1,4,-1
 478 267 l 1,5,-1
 240 72 l 1,6,-1
 171 153 l 1,7,-1
 284 242 l 1,8,-1
 12 242 l 1,9,-1
 12 350 l 1,0,-1
EndSplineSet
EndChar

StartChar: arrowboth
Encoding: 8596 8596 664
Width: 500
Flags: W
LayerCount: 2
Fore
SplineSet
351 490 m 1,0,-1
 490 319 l 1,1,-1
 490 273 l 1,2,-1
 351 102 l 1,3,-1
 274 145 l 1,4,-1
 346 242 l 1,5,-1
 152 242 l 1,6,-1
 225 145 l 1,7,-1
 148 102 l 1,8,-1
 10 273 l 1,9,-1
 10 319 l 1,10,-1
 149 490 l 1,11,-1
 226 450 l 1,12,-1
 151 350 l 1,13,-1
 347 350 l 1,14,-1
 274 450 l 1,15,-1
 351 490 l 1,0,-1
EndSplineSet
EndChar

StartChar: arrowupdn
Encoding: 8597 8597 665
Width: 500
Flags: W
LayerCount: 2
Fore
SplineSet
443 195 m 1,0,-1
 272 56 l 1,1,-1
 226 56 l 1,2,-1
 55 195 l 1,3,-1
 98 272 l 1,4,-1
 195 200 l 1,5,-1
 195 418 l 1,6,-1
 98 345 l 1,7,-1
 55 422 l 1,8,-1
 226 560 l 1,9,-1
 272 560 l 1,10,-1
 443 421 l 1,11,-1
 403 344 l 1,12,-1
 303 419 l 1,13,-1
 303 199 l 1,14,-1
 403 272 l 1,15,-1
 443 195 l 1,0,-1
EndSplineSet
EndChar

StartChar: uni2197
Encoding: 8599 8599 667
Width: 500
Flags: W
LayerCount: 2
Fore
SplineSet
17 204 m 1,0,-1
 275 463 l 1,1,-1
 131 446 l 1,2,-1
 123 552 l 1,3,-1
 429 582 l 1,4,-1
 471 540 l 1,5,-1
 440 234 l 1,6,-1
 334 243 l 1,7,-1
 351 386 l 1,8,-1
 94 127 l 1,9,-1
 17 204 l 1,0,-1
EndSplineSet
EndChar

StartChar: uni21E7
Encoding: 8679 8679 671
Width: 500
Flags: W
LayerCount: 2
Fore
SplineSet
140 0 m 1,0,-1
 140 365 l 1,1,-1
 34 365 l 1,2,-1
 34 409 l 1,3,-1
 238 636 l 1,4,-1
 265 636 l 1,5,-1
 468 409 l 1,6,-1
 468 365 l 1,7,-1
 363 365 l 1,8,-1
 363 0 l 1,9,-1
 140 0 l 1,0,-1
192 52 m 1,10,-1
 311 52 l 1,11,-1
 311 418 l 1,12,-1
 390 418 l 1,13,-1
 251 573 l 1,14,-1
 113 418 l 1,15,-1
 192 418 l 1,16,-1
 192 52 l 1,10,-1
EndSplineSet
EndChar

StartChar: uni21E8
Encoding: 8680 8680 672
Width: 500
Flags: W
LayerCount: 2
Fore
SplineSet
10 395 m 1,0,-1
 219 395 l 1,1,-1
 219 501 l 1,2,-1
 263 501 l 1,3,-1
 490 297 l 1,4,-1
 490 270 l 1,5,-1
 263 67 l 1,6,-1
 219 67 l 1,7,-1
 219 172 l 1,8,-1
 10 172 l 1,9,-1
 10 395 l 1,0,-1
62 343 m 1,10,-1
 62 224 l 1,11,-1
 272 224 l 1,12,-1
 272 146 l 1,13,-1
 427 284 l 1,14,-1
 272 422 l 1,15,-1
 272 343 l 1,16,-1
 62 343 l 1,10,-1
EndSplineSet
EndChar

StartChar: uni21EA
Encoding: 8682 8682 674
Width: 500
Flags: W
LayerCount: 2
Fore
SplineSet
140 196 m 1,0,-1
 140 353 l 1,1,-1
 34 353 l 1,2,-1
 34 409 l 1,3,-1
 232 636 l 1,4,-1
 271 636 l 1,5,-1
 468 409 l 1,6,-1
 468 353 l 1,7,-1
 363 353 l 1,8,-1
 363 196 l 1,9,-1
 140 196 l 1,0,-1
192 248 m 1,10,-1
 311 248 l 1,11,-1
 311 406 l 1,12,-1
 404 406 l 1,13,-1
 251 579 l 1,14,-1
 98 406 l 1,15,-1
 192 406 l 1,16,-1
 192 248 l 1,10,-1
140 -52 m 1,17,-1
 140 115 l 1,18,-1
 363 115 l 1,19,-1
 363 -52 l 1,20,-1
 140 -52 l 1,17,-1
192 0 m 1,21,-1
 311 0 l 1,22,-1
 311 63 l 1,23,-1
 192 63 l 1,24,-1
 192 0 l 1,21,-1
EndSplineSet
EndChar

StartChar: partialdiff
Encoding: 8706 8706 675
Width: 500
Flags: W
LayerCount: 2
Fore
SplineSet
224 -11 m 0,0,1
 130 -11 130 -11 81 42 c 128,-1,2
 32 95 32 95 23 175 c 0,3,4
 18 225 18 225 27.5 274 c 128,-1,5
 37 323 37 323 63 363.5 c 128,-1,6
 89 404 89 404 132 428.5 c 128,-1,7
 175 453 175 453 235 453 c 0,8,9
 276 453 276 453 308.5 437 c 128,-1,10
 341 421 341 421 366 392 c 1,11,12
 367 402 367 402 366 411.5 c 128,-1,13
 365 421 365 421 364 431 c 0,14,15
 359 496 359 496 326.5 538 c 128,-1,16
 294 580 294 580 227 580 c 0,17,18
 201 580 201 580 167 573 c 128,-1,19
 133 566 133 566 106 550 c 1,20,-1
 96 635 l 1,21,22
 126 648 126 648 160.5 654.5 c 128,-1,23
 195 661 195 661 228 661 c 0,24,25
 311 661 311 661 363.5 629 c 128,-1,26
 416 597 416 597 443 540.5 c 128,-1,27
 470 484 470 484 478 410 c 0,28,29
 484 355 484 355 480 296.5 c 128,-1,30
 476 238 476 238 459.5 183 c 128,-1,31
 443 128 443 128 413 84.5 c 128,-1,32
 383 41 383 41 336 15 c 128,-1,33
 289 -11 289 -11 224 -11 c 0,0,1
227 70 m 0,34,35
 272 70 272 70 301 103.5 c 128,-1,36
 330 137 330 137 345.5 191 c 128,-1,37
 361 245 361 245 365 305 c 1,38,39
 330 375 330 375 265 375 c 0,40,41
 229 375 229 375 203 356.5 c 128,-1,42
 177 338 177 338 161.5 307.5 c 128,-1,43
 146 277 146 277 140.5 241.5 c 128,-1,44
 135 206 135 206 139 171 c 0,45,46
 145 119 145 119 168.5 94.5 c 128,-1,47
 192 70 192 70 227 70 c 0,34,35
EndSplineSet
EndChar

StartChar: emptyset
Encoding: 8709 8709 676
Width: 500
Flags: W
LayerCount: 2
Fore
SplineSet
63 103 m 1,0,-1
 15 155 l 1,1,-1
 68 204 l 1,2,3
 51 230 51 230 41 261 c 128,-1,4
 31 292 31 292 31 326 c 0,5,6
 31 387 31 387 61 436.5 c 128,-1,7
 91 486 91 486 140.5 515.5 c 128,-1,8
 190 545 190 545 250 545 c 0,9,10
 288 545 288 545 323 532.5 c 128,-1,11
 358 520 358 520 386 498 c 1,12,-1
 439 547 l 1,13,-1
 486 495 l 1,14,-1
 434 447 l 1,15,16
 452 421 452 421 461.5 390.5 c 128,-1,17
 471 360 471 360 471 326 c 0,18,19
 471 266 471 266 441 216 c 128,-1,20
 411 166 411 166 361 136 c 128,-1,21
 311 106 311 106 250 106 c 0,22,23
 212 106 212 106 178 118.5 c 128,-1,24
 144 131 144 131 116 152 c 1,25,-1
 63 103 l 1,0,-1
114 326 m 0,26,27
 114 292 114 292 130 261 c 1,28,-1
 324 441 l 1,29,30
 290 462 290 462 250 462 c 0,31,32
 212 462 212 462 181.5 443.5 c 128,-1,33
 151 425 151 425 132.5 394 c 128,-1,34
 114 363 114 363 114 326 c 0,26,27
250 188 m 0,35,36
 288 188 288 188 319.5 207 c 128,-1,37
 351 226 351 226 369.5 257 c 128,-1,38
 388 288 388 288 388 326 c 0,39,40
 388 360 388 360 372 389 c 1,41,-1
 178 209 l 1,42,43
 211 188 211 188 250 188 c 0,35,36
EndSplineSet
EndChar

StartChar: uni2206
Encoding: 8710 8710 677
Width: 500
Flags: W
LayerCount: 2
Fore
SplineSet
321 675 m 1,0,-1
 477 65 l 1,1,-1
 477 0 l 1,2,-1
 22 0 l 1,3,-1
 22 66 l 1,4,-1
 180 675 l 1,5,-1
 321 675 l 1,0,-1
359 93 m 1,6,-1
 252 582 l 1,7,-1
 250 582 l 1,8,-1
 140 93 l 1,9,-1
 359 93 l 1,6,-1
EndSplineSet
EndChar

StartChar: element
Encoding: 8712 8712 678
Width: 500
Flags: W
LayerCount: 2
Fore
SplineSet
280 -8 m 2,0,1
 168 -8 168 -8 103 55 c 128,-1,2
 38 118 38 118 38 225 c 0,3,4
 38 297 38 297 68.5 351 c 128,-1,5
 99 405 99 405 153 435 c 128,-1,6
 207 465 207 465 278 465 c 2,7,-1
 455 465 l 1,8,-1
 455 401 l 1,9,-1
 294 401 l 2,10,11
 205 401 205 401 159 366.5 c 128,-1,12
 113 332 113 332 105 258 c 1,13,-1
 455 258 l 1,14,-1
 455 194 l 1,15,-1
 105 194 l 1,16,17
 112 120 112 120 156.5 88 c 128,-1,18
 201 56 201 56 294 56 c 2,19,-1
 455 56 l 1,20,-1
 455 -8 l 1,21,-1
 280 -8 l 2,0,1
EndSplineSet
EndChar

StartChar: product
Encoding: 8719 8719 679
Width: 500
Flags: W
LayerCount: 2
Fore
SplineSet
42 -190 m 1,0,-1
 42 623 l 1,1,-1
 463 623 l 1,2,3
 463 614 463 614 460.5 609.5 c 128,-1,4
 458 605 458 605 456 588 c 2,5,-1
 456 -190 l 1,6,-1
 341 -190 l 1,7,-1
 341 533 l 1,8,-1
 157 533 l 1,9,-1
 157 -190 l 1,10,-1
 42 -190 l 1,0,-1
EndSplineSet
EndChar

StartChar: summation
Encoding: 8721 8721 680
Width: 500
Flags: W
LayerCount: 2
Fore
SplineSet
19 -171 m 1,0,-1
 19 -90 l 1,1,-1
 220 249 l 1,2,-1
 25 587 l 1,3,-1
 25 668 l 1,4,-1
 466 668 l 1,5,-1
 466 575 l 1,6,-1
 144 575 l 1,7,-1
 326 251 l 1,8,-1
 132 -78 l 1,9,-1
 481 -78 l 1,10,-1
 481 -171 l 1,11,-1
 19 -171 l 1,0,-1
EndSplineSet
EndChar

StartChar: minus
Encoding: 8722 8722 681
Width: 500
Flags: W
LayerCount: 2
Fore
SplineSet
40 280 m 1,0,-1
 40 368 l 1,1,-1
 464 368 l 1,2,-1
 464 280 l 1,3,-1
 40 280 l 1,0,-1
EndSplineSet
Substitution2: "<10,1> Superiors lookup 88 subtable" uni207B
EndChar

StartChar: uni2215
Encoding: 8725 8725 682
Width: 500
Flags: W
LayerCount: 2
Fore
SplineSet
130 -157 m 1,0,-1
 50 -134 l 1,1,-1
 378 787 l 1,2,-1
 458 763 l 1,3,-1
 130 -157 l 1,0,-1
EndSplineSet
EndChar

StartChar: asteriskmath
Encoding: 8727 8727 683
Width: 500
Flags: W
LayerCount: 2
Fore
SplineSet
155 121 m 1,0,-1
 65 193 l 1,1,-1
 187 323 l 1,2,-1
 31 368 l 1,3,-1
 71 470 l 1,4,-1
 210 395 l 1,5,-1
 188 556 l 1,6,-1
 321 556 l 1,7,-1
 293 395 l 1,8,-1
 428 463 l 1,9,-1
 469 364 l 1,10,-1
 314 324 l 1,11,-1
 432 193 l 1,12,-1
 341 122 l 1,13,-1
 250 272 l 1,14,-1
 155 121 l 1,0,-1
EndSplineSet
EndChar

StartChar: radical
Encoding: 8730 8730 685
Width: 500
Flags: W
LayerCount: 2
Fore
SplineSet
188 -7 m 1,0,-1
 93 261 l 1,1,-1
 10 261 l 1,2,-1
 10 346 l 1,3,-1
 158 346 l 1,4,-1
 223 150 l 1,5,-1
 391 675 l 1,6,-1
 492 675 l 1,7,-1
 270 -7 l 1,8,-1
 188 -7 l 1,0,-1
EndSplineSet
EndChar

StartChar: infinity
Encoding: 8734 8734 686
Width: 500
Flags: W
LayerCount: 2
Fore
SplineSet
487 299 m 0,0,1
 487 264 487 264 471.5 234.5 c 128,-1,2
 456 205 456 205 428 187 c 128,-1,3
 400 169 400 169 364 169 c 0,4,5
 296 169 296 169 251 232 c 1,6,7
 227 204 227 204 199 187 c 128,-1,8
 171 170 171 170 142 170 c 0,9,10
 88 170 88 170 52.5 206.5 c 128,-1,11
 17 243 17 243 17 301 c 0,12,13
 17 356 17 356 51.5 394 c 128,-1,14
 86 432 86 432 142 432 c 0,15,16
 173 432 173 432 201.5 417.5 c 128,-1,17
 230 403 230 403 253 369 c 1,18,19
 275 399 275 399 302 415 c 128,-1,20
 329 431 329 431 364 431 c 0,21,22
 418 431 418 431 452.5 395 c 128,-1,23
 487 359 487 359 487 299 c 0,0,1
205 301 m 1,24,25
 178 350 178 350 145 350 c 0,26,27
 124 350 124 350 112 336 c 128,-1,28
 100 322 100 322 100 301 c 0,29,30
 100 282 100 282 112 267.5 c 128,-1,31
 124 253 124 253 146 253 c 0,32,33
 163 253 163 253 177 265.5 c 128,-1,34
 191 278 191 278 205 301 c 1,24,25
404 301 m 0,35,36
 404 321 404 321 391.5 334.5 c 128,-1,37
 379 348 379 348 359 348 c 0,38,39
 328 348 328 348 297 301 c 1,40,41
 327 251 327 251 360 251 c 0,42,43
 379 251 379 251 391.5 265 c 128,-1,44
 404 279 404 279 404 301 c 0,35,36
EndSplineSet
EndChar

StartChar: integral
Encoding: 8747 8747 687
Width: 500
Flags: W
LayerCount: 2
Fore
SplineSet
138 -240 m 0,0,1
 93 -240 93 -240 53 -222 c 1,2,-1
 53 -128 l 1,3,4
 69 -135 69 -135 86.5 -140 c 128,-1,5
 104 -145 104 -145 120 -145 c 0,6,7
 154 -145 154 -145 172 -122 c 128,-1,8
 190 -99 190 -99 190 -48 c 2,9,-1
 190 573 l 2,10,11
 190 671 190 671 235 715.5 c 128,-1,12
 280 760 280 760 360 760 c 0,13,14
 385 760 385 760 405 755.5 c 128,-1,15
 425 751 425 751 443 743 c 1,16,-1
 443 649 l 1,17,18
 427 655 427 655 408.5 660 c 128,-1,19
 390 665 390 665 375 665 c 0,20,21
 341 665 341 665 323 643 c 128,-1,22
 305 621 305 621 305 561 c 2,23,-1
 305 -58 l 2,24,25
 305 -152 305 -152 259 -196 c 128,-1,26
 213 -240 213 -240 138 -240 c 0,0,1
EndSplineSet
EndChar

StartChar: notequal
Encoding: 8800 8800 689
Width: 500
Flags: W
LayerCount: 2
Fore
SplineSet
43 168 m 1,0,-1
 43 255 l 1,1,-1
 175 255 l 1,2,-1
 245 376 l 1,3,-1
 43 376 l 1,4,-1
 43 464 l 1,5,-1
 295 464 l 1,6,-1
 385 620 l 1,7,-1
 446 585 l 1,8,-1
 376 464 l 1,9,-1
 461 464 l 1,10,-1
 461 376 l 1,11,-1
 325 376 l 1,12,-1
 255 255 l 1,13,-1
 461 255 l 1,14,-1
 461 168 l 1,15,-1
 205 168 l 1,16,-1
 116 13 l 1,17,-1
 55 46 l 1,18,-1
 125 168 l 1,19,-1
 43 168 l 1,0,-1
EndSplineSet
EndChar

StartChar: lessequal
Encoding: 8804 8804 690
Width: 500
Flags: W
LayerCount: 2
Fore
SplineSet
468 139 m 1,0,-1
 31 335 l 1,1,-1
 31 393 l 1,2,-1
 468 592 l 1,3,-1
 468 493 l 1,4,-1
 153 363 l 1,5,-1
 468 238 l 1,6,-1
 468 139 l 1,0,-1
44 22 m 1,7,-1
 44 104 l 1,8,-1
 468 104 l 1,9,-1
 468 22 l 1,10,-1
 44 22 l 1,7,-1
EndSplineSet
EndChar

StartChar: circleplus
Encoding: 8853 8853 692
Width: 500
Flags: W
LayerCount: 2
Fore
SplineSet
249 86 m 256,0,1
 188 86 188 86 138 116.5 c 128,-1,2
 88 147 88 147 58 197 c 128,-1,3
 28 247 28 247 28 308 c 256,4,5
 28 369 28 369 58 419 c 128,-1,6
 88 469 88 469 138 499.5 c 128,-1,7
 188 530 188 530 249 530 c 256,8,9
 310 530 310 530 360 499.5 c 128,-1,10
 410 469 410 469 440.5 419 c 128,-1,11
 471 369 471 369 471 308 c 256,12,13
 471 247 471 247 440.5 197 c 128,-1,14
 410 147 410 147 360 116.5 c 128,-1,15
 310 86 310 86 249 86 c 256,0,1
249 148 m 256,16,17
 293 148 293 148 329.5 170 c 128,-1,18
 366 192 366 192 387.5 228 c 128,-1,19
 409 264 409 264 409 308 c 256,20,21
 409 352 409 352 387.5 388 c 128,-1,22
 366 424 366 424 329.5 445.5 c 128,-1,23
 293 467 293 467 249 467 c 256,24,25
 205 467 205 467 169 445.5 c 128,-1,26
 133 424 133 424 111.5 388 c 128,-1,27
 90 352 90 352 90 308 c 256,28,29
 90 264 90 264 111.5 228 c 128,-1,30
 133 192 133 192 169 170 c 128,-1,31
 205 148 205 148 249 148 c 256,16,17
220 176 m 1,32,-1
 220 280 l 1,33,-1
 122 280 l 1,34,-1
 122 342 l 1,35,-1
 220 342 l 1,36,-1
 220 436 l 1,37,-1
 283 436 l 1,38,-1
 283 342 l 1,39,-1
 378 342 l 1,40,-1
 378 280 l 1,41,-1
 283 280 l 1,42,-1
 283 176 l 1,43,-1
 220 176 l 1,32,-1
EndSplineSet
EndChar

StartChar: house
Encoding: 8962 8962 693
Width: 500
Flags: W
LayerCount: 2
Fore
SplineSet
472 328 m 1,0,-1
 472 0 l 1,1,-1
 28 0 l 1,2,-1
 28 328 l 1,3,-1
 250 463 l 1,4,-1
 472 328 l 1,0,-1
80 298 m 1,5,-1
 80 52 l 1,6,-1
 420 52 l 1,7,-1
 420 298 l 1,8,-1
 250 401 l 1,9,-1
 80 298 l 1,5,-1
EndSplineSet
EndChar

StartChar: uni2318
Encoding: 8984 8984 694
Width: 500
Flags: W
LayerCount: 2
Fore
SplineSet
117 2 m 0,0,1
 77 2 77 2 47.5 31.5 c 128,-1,2
 18 61 18 61 18 101 c 0,3,4
 18 142 18 142 47.5 170.5 c 128,-1,5
 77 199 77 199 117 199 c 2,6,-1
 163 199 l 1,7,-1
 163 268 l 1,8,-1
 117 268 l 2,9,10
 77 268 77 268 47.5 297 c 128,-1,11
 18 326 18 326 18 366 c 0,12,13
 18 407 18 407 47.5 436 c 128,-1,14
 77 465 77 465 117 465 c 0,15,16
 158 465 158 465 186.5 436 c 128,-1,17
 215 407 215 407 215 366 c 2,18,-1
 215 320 l 1,19,-1
 285 320 l 1,20,-1
 285 366 l 2,21,22
 285 407 285 407 314 436 c 128,-1,23
 343 465 343 465 383 465 c 0,24,25
 424 465 424 465 453 436 c 128,-1,26
 482 407 482 407 482 366 c 0,27,28
 482 326 482 326 453 297 c 128,-1,29
 424 268 424 268 383 268 c 2,30,-1
 337 268 l 1,31,-1
 337 199 l 1,32,-1
 383 199 l 2,33,34
 424 199 424 199 453 170.5 c 128,-1,35
 482 142 482 142 482 101 c 0,36,37
 482 61 482 61 453 31.5 c 128,-1,38
 424 2 424 2 383 2 c 0,39,40
 343 2 343 2 314 31.5 c 128,-1,41
 285 61 285 61 285 101 c 2,42,-1
 285 147 l 1,43,-1
 215 147 l 1,44,-1
 215 101 l 2,45,46
 215 61 215 61 186.5 31.5 c 128,-1,47
 158 2 158 2 117 2 c 0,0,1
117 320 m 2,48,-1
 163 320 l 1,49,-1
 163 366 l 2,50,51
 163 386 163 386 151 399.5 c 128,-1,52
 139 413 139 413 117 413 c 0,53,54
 97 413 97 413 83.5 399.5 c 128,-1,55
 70 386 70 386 70 366 c 256,56,57
 70 346 70 346 83.5 333 c 128,-1,58
 97 320 97 320 117 320 c 2,48,-1
337 320 m 1,59,-1
 383 320 l 2,60,61
 403 320 403 320 416.5 333 c 128,-1,62
 430 346 430 346 430 366 c 256,63,64
 430 386 430 386 416.5 399.5 c 128,-1,65
 403 413 403 413 383 413 c 0,66,67
 361 413 361 413 349 399.5 c 128,-1,68
 337 386 337 386 337 366 c 2,69,-1
 337 320 l 1,59,-1
215 199 m 1,70,-1
 285 199 l 1,71,-1
 285 268 l 1,72,-1
 215 268 l 1,73,-1
 215 199 l 1,70,-1
117 54 m 0,74,75
 139 54 139 54 151 67.5 c 128,-1,76
 163 81 163 81 163 101 c 2,77,-1
 163 147 l 1,78,-1
 117 147 l 2,79,80
 97 147 97 147 83.5 134 c 128,-1,81
 70 121 70 121 70 101 c 256,82,83
 70 81 70 81 83.5 67.5 c 128,-1,84
 97 54 97 54 117 54 c 0,74,75
383 54 m 0,85,86
 403 54 403 54 416.5 67.5 c 128,-1,87
 430 81 430 81 430 101 c 256,88,89
 430 121 430 121 416.5 134 c 128,-1,90
 403 147 403 147 383 147 c 2,91,-1
 337 147 l 1,92,-1
 337 101 l 2,93,94
 337 81 337 81 349 67.5 c 128,-1,95
 361 54 361 54 383 54 c 0,85,86
EndSplineSet
EndChar

StartChar: uni2325
Encoding: 8997 8997 695
Width: 500
Flags: W
LayerCount: 2
Fore
SplineSet
341 -4 m 1,0,-1
 127 410 l 1,1,-1
 0 410 l 1,2,-1
 0 463 l 1,3,-1
 158 463 l 1,4,-1
 372 49 l 1,5,-1
 500 49 l 1,6,-1
 500 -4 l 1,7,-1
 341 -4 l 1,0,-1
323 410 m 1,8,-1
 323 463 l 1,9,-1
 500 463 l 1,10,-1
 500 410 l 1,11,-1
 323 410 l 1,8,-1
EndSplineSet
EndChar

StartChar: uni2327
Encoding: 8999 8999 697
Width: 500
Flags: W
LayerCount: 2
Fore
SplineSet
61 522 m 1,0,-1
 439 522 l 1,1,-1
 439 78 l 1,2,-1
 61 78 l 1,3,-1
 61 522 l 1,0,-1
113 130 m 1,4,-1
 387 130 l 1,5,-1
 387 470 l 1,6,-1
 113 470 l 1,7,-1
 113 130 l 1,4,-1
218 300 m 1,8,-1
 143 375 l 1,9,-1
 175 407 l 1,10,-1
 250 332 l 1,11,-1
 325 407 l 1,12,-1
 357 375 l 1,13,-1
 282 300 l 1,14,-1
 357 225 l 1,15,-1
 325 193 l 1,16,-1
 250 268 l 1,17,-1
 175 193 l 1,18,-1
 143 225 l 1,19,-1
 218 300 l 1,8,-1
EndSplineSet
EndChar

StartChar: uni232B
Encoding: 9003 9003 698
Width: 500
Flags: W
LayerCount: 2
Fore
SplineSet
134 522 m 1,0,-1
 462 522 l 1,1,-1
 462 78 l 1,2,-1
 134 78 l 1,3,-1
 2 300 l 1,4,-1
 134 522 l 1,0,-1
162 130 m 1,5,-1
 410 130 l 1,6,-1
 410 470 l 1,7,-1
 162 470 l 1,8,-1
 61 300 l 1,9,-1
 162 130 l 1,5,-1
238 300 m 1,10,-1
 163 375 l 1,11,-1
 195 407 l 1,12,-1
 270 332 l 1,13,-1
 345 407 l 1,14,-1
 377 375 l 1,15,-1
 302 300 l 1,16,-1
 377 225 l 1,17,-1
 345 193 l 1,18,-1
 270 268 l 1,19,-1
 195 193 l 1,20,-1
 163 225 l 1,21,-1
 238 300 l 1,10,-1
EndSplineSet
EndChar

StartChar: uni238B
Encoding: 9099 9099 699
Width: 500
Flags: W
LayerCount: 2
Fore
SplineSet
249 517 m 1,0,1
 307 517 307 517 354 488.5 c 128,-1,2
 401 460 401 460 429.5 413 c 128,-1,3
 458 366 458 366 458 308 c 0,4,5
 458 251 458 251 429.5 203.5 c 128,-1,6
 401 156 401 156 354 127.5 c 128,-1,7
 307 99 307 99 249 99 c 0,8,9
 192 99 192 99 144.5 127.5 c 128,-1,10
 97 156 97 156 69 203.5 c 128,-1,11
 41 251 41 251 41 308 c 1,12,-1
 93 308 l 1,13,14
 93 266 93 266 113.5 230.5 c 128,-1,15
 134 195 134 195 169.5 173 c 128,-1,16
 205 151 205 151 249 151 c 256,17,18
 293 151 293 151 328.5 172.5 c 128,-1,19
 364 194 364 194 385 229.5 c 128,-1,20
 406 265 406 265 406 308 c 256,21,22
 406 351 406 351 385 386.5 c 128,-1,23
 364 422 364 422 328.5 443.5 c 128,-1,24
 293 465 293 465 249 465 c 1,25,-1
 249 517 l 1,0,1
85 394 m 1,26,-1
 41 394 l 1,27,-1
 41 504 l 1,28,-1
 55 517 l 1,29,-1
 166 517 l 1,30,-1
 166 473 l 1,31,-1
 119 473 l 1,32,-1
 264 328 l 1,33,-1
 230 294 l 1,34,-1
 85 439 l 1,35,-1
 85 394 l 1,26,-1
EndSplineSet
EndChar

StartChar: uni23CE
Encoding: 9166 9166 700
Width: 500
Flags: W
LayerCount: 2
Fore
SplineSet
314 457 m 1,0,-1
 466 457 l 1,1,-1
 466 123 l 1,2,-1
 184 123 l 1,3,-1
 184 33 l 1,4,-1
 166 33 l 1,5,-1
 27 188 l 1,6,-1
 27 214 l 1,7,-1
 166 355 l 1,8,-1
 186 355 l 1,9,-1
 186 267 l 1,10,-1
 314 267 l 1,11,-1
 314 457 l 1,0,-1
366 405 m 1,12,-1
 366 215 l 1,13,-1
 145 215 l 1,14,-1
 145 265 l 1,15,-1
 81 199 l 1,16,-1
 143 129 l 1,17,-1
 143 175 l 1,18,-1
 414 175 l 1,19,-1
 414 405 l 1,20,-1
 366 405 l 1,12,-1
EndSplineSet
EndChar

StartChar: uni2423
Encoding: 9251 9251 701
Width: 500
Flags: W
LayerCount: 2
Fore
SplineSet
41 -91 m 1,0,-1
 41 71 l 1,1,-1
 130 71 l 1,2,-1
 130 -13 l 1,3,-1
 368 -13 l 1,4,-1
 368 71 l 1,5,-1
 459 71 l 1,6,-1
 459 -91 l 1,7,-1
 41 -91 l 1,0,-1
EndSplineSet
EndChar

StartChar: lighthorzbxd
Encoding: 9472 9472 702
Width: 500
Flags: W
LayerCount: 2
Fore
SplineSet
-80 222 m 1,0,-1
 -80 378 l 1,1,-1
 580 378 l 1,2,-1
 580 222 l 1,3,-1
 -80 222 l 1,0,-1
EndSplineSet
EndChar

StartChar: heavyhorzbxd
Encoding: 9473 9473 703
Width: 500
Flags: W
LayerCount: 2
Fore
SplineSet
-80 144 m 1,0,-1
 -80 456 l 1,1,-1
 580 456 l 1,2,-1
 580 144 l 1,3,-1
 -80 144 l 1,0,-1
EndSplineSet
EndChar

StartChar: lightvertbxd
Encoding: 9474 9474 704
Width: 500
Flags: W
LayerCount: 2
Fore
SplineSet
172 -400 m 1,0,-1
 172 1000 l 1,1,-1
 328 1000 l 1,2,-1
 328 -400 l 1,3,-1
 172 -400 l 1,0,-1
EndSplineSet
EndChar

StartChar: heavyvertbxd
Encoding: 9475 9475 705
Width: 500
Flags: W
LayerCount: 2
Fore
SplineSet
94 -400 m 1,0,-1
 94 1000 l 1,1,-1
 406 1000 l 1,2,-1
 406 -400 l 1,3,-1
 94 -400 l 1,0,-1
EndSplineSet
EndChar

StartChar: lighttrpldashhorzbxd
Encoding: 9476 9476 706
Width: 500
Flags: W
LayerCount: 2
Fore
SplineSet
28 222 m 1,0,-1
 28 378 l 1,1,-1
 139 378 l 1,2,-1
 139 222 l 1,3,-1
 28 222 l 1,0,-1
194 222 m 1,4,-1
 194 378 l 1,5,-1
 306 378 l 1,6,-1
 306 222 l 1,7,-1
 194 222 l 1,4,-1
361 222 m 1,8,-1
 361 378 l 1,9,-1
 472 378 l 1,10,-1
 472 222 l 1,11,-1
 361 222 l 1,8,-1
EndSplineSet
EndChar

StartChar: heavytrpldashhorzbxd
Encoding: 9477 9477 707
Width: 500
Flags: W
LayerCount: 2
Fore
SplineSet
28 144 m 1,0,-1
 28 456 l 1,1,-1
 139 456 l 1,2,-1
 139 144 l 1,3,-1
 28 144 l 1,0,-1
194 144 m 1,4,-1
 194 456 l 1,5,-1
 306 456 l 1,6,-1
 306 144 l 1,7,-1
 194 144 l 1,4,-1
361 144 m 1,8,-1
 361 456 l 1,9,-1
 472 456 l 1,10,-1
 472 144 l 1,11,-1
 361 144 l 1,8,-1
EndSplineSet
EndChar

StartChar: lighttrpldashvertbxd
Encoding: 9478 9478 708
Width: 500
Flags: W
LayerCount: 2
Fore
SplineSet
172 611 m 1,0,-1
 172 922 l 1,1,-1
 328 922 l 1,2,-1
 328 611 l 1,3,-1
 172 611 l 1,0,-1
172 144 m 1,4,-1
 172 456 l 1,5,-1
 328 456 l 1,6,-1
 328 144 l 1,7,-1
 172 144 l 1,4,-1
172 -322 m 1,8,-1
 172 -11 l 1,9,-1
 328 -11 l 1,10,-1
 328 -322 l 1,11,-1
 172 -322 l 1,8,-1
EndSplineSet
EndChar

StartChar: heavytrpldashvertbxd
Encoding: 9479 9479 709
Width: 500
Flags: W
LayerCount: 2
Fore
SplineSet
94 611 m 1,0,-1
 94 922 l 1,1,-1
 406 922 l 1,2,-1
 406 611 l 1,3,-1
 94 611 l 1,0,-1
94 144 m 1,4,-1
 94 456 l 1,5,-1
 406 456 l 1,6,-1
 406 144 l 1,7,-1
 94 144 l 1,4,-1
94 -322 m 1,8,-1
 94 -11 l 1,9,-1
 406 -11 l 1,10,-1
 406 -322 l 1,11,-1
 94 -322 l 1,8,-1
EndSplineSet
EndChar

StartChar: lightquaddashhorzbxd
Encoding: 9480 9480 710
Width: 500
Flags: W
LayerCount: 2
Fore
SplineSet
16 222 m 1,0,-1
 16 378 l 1,1,-1
 109 378 l 1,2,-1
 109 222 l 1,3,-1
 16 222 l 1,0,-1
141 222 m 1,4,-1
 141 378 l 1,5,-1
 234 378 l 1,6,-1
 234 222 l 1,7,-1
 141 222 l 1,4,-1
266 222 m 1,8,-1
 266 378 l 1,9,-1
 359 378 l 1,10,-1
 359 222 l 1,11,-1
 266 222 l 1,8,-1
391 222 m 1,12,-1
 391 378 l 1,13,-1
 484 378 l 1,14,-1
 484 222 l 1,15,-1
 391 222 l 1,12,-1
EndSplineSet
EndChar

StartChar: heavyquaddashhorzbxd
Encoding: 9481 9481 711
Width: 500
Flags: W
LayerCount: 2
Fore
SplineSet
16 144 m 1,0,-1
 16 456 l 1,1,-1
 109 456 l 1,2,-1
 109 144 l 1,3,-1
 16 144 l 1,0,-1
141 144 m 1,4,-1
 141 456 l 1,5,-1
 234 456 l 1,6,-1
 234 144 l 1,7,-1
 141 144 l 1,4,-1
266 144 m 1,8,-1
 266 456 l 1,9,-1
 359 456 l 1,10,-1
 359 144 l 1,11,-1
 266 144 l 1,8,-1
391 144 m 1,12,-1
 391 456 l 1,13,-1
 484 456 l 1,14,-1
 484 144 l 1,15,-1
 391 144 l 1,12,-1
EndSplineSet
EndChar

StartChar: lightquaddashvertbxd
Encoding: 9482 9482 712
Width: 500
Flags: W
LayerCount: 2
Fore
SplineSet
172 694 m 1,0,-1
 172 956 l 1,1,-1
 328 956 l 1,2,-1
 328 694 l 1,3,-1
 172 694 l 1,0,-1
172 344 m 1,4,-1
 172 606 l 1,5,-1
 328 606 l 1,6,-1
 328 344 l 1,7,-1
 172 344 l 1,4,-1
172 -6 m 1,8,-1
 172 256 l 1,9,-1
 328 256 l 1,10,-1
 328 -6 l 1,11,-1
 172 -6 l 1,8,-1
172 -356 m 1,12,-1
 172 -94 l 1,13,-1
 328 -94 l 1,14,-1
 328 -356 l 1,15,-1
 172 -356 l 1,12,-1
EndSplineSet
EndChar

StartChar: heavyquaddashvertbxd
Encoding: 9483 9483 713
Width: 500
Flags: W
LayerCount: 2
Fore
SplineSet
94 694 m 1,0,-1
 94 956 l 1,1,-1
 406 956 l 1,2,-1
 406 694 l 1,3,-1
 94 694 l 1,0,-1
94 344 m 1,4,-1
 94 606 l 1,5,-1
 406 606 l 1,6,-1
 406 344 l 1,7,-1
 94 344 l 1,4,-1
94 -6 m 1,8,-1
 94 256 l 1,9,-1
 406 256 l 1,10,-1
 406 -6 l 1,11,-1
 94 -6 l 1,8,-1
94 -356 m 1,12,-1
 94 -94 l 1,13,-1
 406 -94 l 1,14,-1
 406 -356 l 1,15,-1
 94 -356 l 1,12,-1
EndSplineSet
EndChar

StartChar: lightdnrightbxd
Encoding: 9484 9484 714
Width: 500
Flags: W
LayerCount: 2
Fore
SplineSet
172 -400 m 1,0,-1
 172 378 l 1,1,-1
 580 378 l 1,2,-1
 580 222 l 1,3,-1
 328 222 l 1,4,-1
 328 -400 l 1,5,-1
 172 -400 l 1,0,-1
EndSplineSet
EndChar

StartChar: dnlightrightheavybxd
Encoding: 9485 9485 715
Width: 500
Flags: W
LayerCount: 2
Fore
SplineSet
172 -400 m 1,0,-1
 172 456 l 1,1,-1
 580 456 l 1,2,-1
 580 144 l 1,3,-1
 328 144 l 1,4,-1
 328 -400 l 1,5,-1
 172 -400 l 1,0,-1
EndSplineSet
EndChar

StartChar: dnheavyrightlightbxd
Encoding: 9486 9486 716
Width: 500
Flags: W
LayerCount: 2
Fore
SplineSet
94 -400 m 1,0,-1
 94 378 l 1,1,-1
 580 378 l 1,2,-1
 580 222 l 1,3,-1
 406 222 l 1,4,-1
 406 -400 l 1,5,-1
 94 -400 l 1,0,-1
EndSplineSet
EndChar

StartChar: heavydnrightbxd
Encoding: 9487 9487 717
Width: 500
Flags: W
LayerCount: 2
Fore
SplineSet
94 -400 m 1,0,-1
 94 456 l 1,1,-1
 580 456 l 1,2,-1
 580 144 l 1,3,-1
 406 144 l 1,4,-1
 406 -400 l 1,5,-1
 94 -400 l 1,0,-1
EndSplineSet
EndChar

StartChar: lightdnleftbxd
Encoding: 9488 9488 718
Width: 500
Flags: W
LayerCount: 2
Fore
SplineSet
172 -400 m 1,0,-1
 172 222 l 1,1,-1
 -80 222 l 1,2,-1
 -80 378 l 1,3,-1
 328 378 l 1,4,-1
 328 -400 l 1,5,-1
 172 -400 l 1,0,-1
EndSplineSet
EndChar

StartChar: dnlightleftheavybxd
Encoding: 9489 9489 719
Width: 500
Flags: W
LayerCount: 2
Fore
SplineSet
172 -400 m 1,0,-1
 172 144 l 1,1,-1
 -80 144 l 1,2,-1
 -80 456 l 1,3,-1
 328 456 l 1,4,-1
 328 -400 l 1,5,-1
 172 -400 l 1,0,-1
EndSplineSet
EndChar

StartChar: dnheavyleftlightbxd
Encoding: 9490 9490 720
Width: 500
Flags: W
LayerCount: 2
Fore
SplineSet
94 -400 m 1,0,-1
 94 222 l 1,1,-1
 -80 222 l 1,2,-1
 -80 378 l 1,3,-1
 406 378 l 1,4,-1
 406 -400 l 1,5,-1
 94 -400 l 1,0,-1
EndSplineSet
EndChar

StartChar: heavydnleftbxd
Encoding: 9491 9491 721
Width: 500
Flags: W
LayerCount: 2
Fore
SplineSet
94 -400 m 1,0,-1
 94 144 l 1,1,-1
 -80 144 l 1,2,-1
 -80 456 l 1,3,-1
 406 456 l 1,4,-1
 406 -400 l 1,5,-1
 94 -400 l 1,0,-1
EndSplineSet
EndChar

StartChar: lightuprightbxd
Encoding: 9492 9492 722
Width: 500
Flags: W
LayerCount: 2
Fore
SplineSet
172 222 m 1,0,-1
 172 1000 l 1,1,-1
 328 1000 l 1,2,-1
 328 378 l 1,3,-1
 580 378 l 1,4,-1
 580 222 l 1,5,-1
 172 222 l 1,0,-1
EndSplineSet
EndChar

StartChar: uplightrightheavybxd
Encoding: 9493 9493 723
Width: 500
Flags: W
LayerCount: 2
Fore
SplineSet
172 144 m 1,0,-1
 172 1000 l 1,1,-1
 328 1000 l 1,2,-1
 328 456 l 1,3,-1
 580 456 l 1,4,-1
 580 144 l 1,5,-1
 172 144 l 1,0,-1
EndSplineSet
EndChar

StartChar: upheavyrightlightbxd
Encoding: 9494 9494 724
Width: 500
Flags: W
LayerCount: 2
Fore
SplineSet
94 222 m 1,0,-1
 94 1000 l 1,1,-1
 406 1000 l 1,2,-1
 406 378 l 1,3,-1
 580 378 l 1,4,-1
 580 222 l 1,5,-1
 94 222 l 1,0,-1
EndSplineSet
EndChar

StartChar: heavyuprightbxd
Encoding: 9495 9495 725
Width: 500
Flags: W
LayerCount: 2
Fore
SplineSet
94 144 m 1,0,-1
 94 1000 l 1,1,-1
 406 1000 l 1,2,-1
 406 456 l 1,3,-1
 580 456 l 1,4,-1
 580 144 l 1,5,-1
 94 144 l 1,0,-1
EndSplineSet
EndChar

StartChar: lightupleftbxd
Encoding: 9496 9496 726
Width: 500
Flags: W
LayerCount: 2
Fore
SplineSet
-80 222 m 1,0,-1
 -80 378 l 1,1,-1
 172 378 l 1,2,-1
 172 1000 l 1,3,-1
 328 1000 l 1,4,-1
 328 222 l 1,5,-1
 -80 222 l 1,0,-1
EndSplineSet
EndChar

StartChar: uplightleftheavybxd
Encoding: 9497 9497 727
Width: 500
Flags: W
LayerCount: 2
Fore
SplineSet
-80 144 m 1,0,-1
 -80 456 l 1,1,-1
 172 456 l 1,2,-1
 172 1000 l 1,3,-1
 328 1000 l 1,4,-1
 328 144 l 1,5,-1
 -80 144 l 1,0,-1
EndSplineSet
EndChar

StartChar: upheavyleftlightbxd
Encoding: 9498 9498 728
Width: 500
Flags: W
LayerCount: 2
Fore
SplineSet
-80 222 m 1,0,-1
 -80 378 l 1,1,-1
 94 378 l 1,2,-1
 94 1000 l 1,3,-1
 406 1000 l 1,4,-1
 406 222 l 1,5,-1
 -80 222 l 1,0,-1
EndSplineSet
EndChar

StartChar: heavyupleftbxd
Encoding: 9499 9499 729
Width: 500
Flags: W
LayerCount: 2
Fore
SplineSet
-80 144 m 1,0,-1
 -80 456 l 1,1,-1
 94 456 l 1,2,-1
 94 1000 l 1,3,-1
 406 1000 l 1,4,-1
 406 144 l 1,5,-1
 -80 144 l 1,0,-1
EndSplineSet
EndChar

StartChar: lightvertrightbxd
Encoding: 9500 9500 730
Width: 500
Flags: W
LayerCount: 2
Fore
SplineSet
172 -400 m 1,0,-1
 172 1000 l 1,1,-1
 328 1000 l 1,2,-1
 328 378 l 1,3,-1
 580 378 l 1,4,-1
 580 222 l 1,5,-1
 328 222 l 1,6,-1
 328 -400 l 1,7,-1
 172 -400 l 1,0,-1
EndSplineSet
EndChar

StartChar: vertlightrightheavybxd
Encoding: 9501 9501 731
Width: 500
Flags: W
LayerCount: 2
Fore
SplineSet
172 -400 m 1,0,-1
 172 1000 l 1,1,-1
 328 1000 l 1,2,-1
 328 456 l 1,3,-1
 580 456 l 1,4,-1
 580 144 l 1,5,-1
 328 144 l 1,6,-1
 328 -400 l 1,7,-1
 172 -400 l 1,0,-1
EndSplineSet
EndChar

StartChar: upheavyrightdnlightbxd
Encoding: 9502 9502 732
Width: 500
Flags: W
LayerCount: 2
Fore
SplineSet
172 -400 m 1,0,-1
 172 222 l 1,1,-1
 94 222 l 1,2,-1
 94 1000 l 1,3,-1
 406 1000 l 1,4,-1
 406 378 l 1,5,-1
 580 378 l 1,6,-1
 580 222 l 1,7,-1
 328 222 l 1,8,-1
 328 -400 l 1,9,-1
 172 -400 l 1,0,-1
EndSplineSet
EndChar

StartChar: dnheavyrightuplightbxd
Encoding: 9503 9503 733
Width: 500
Flags: W
LayerCount: 2
Fore
SplineSet
94 -400 m 1,0,-1
 94 378 l 1,1,-1
 172 378 l 1,2,-1
 172 1000 l 1,3,-1
 328 1000 l 1,4,-1
 328 378 l 1,5,-1
 580 378 l 1,6,-1
 580 222 l 1,7,-1
 406 222 l 1,8,-1
 406 -400 l 1,9,-1
 94 -400 l 1,0,-1
EndSplineSet
EndChar

StartChar: vertheavyrightlightbxd
Encoding: 9504 9504 734
Width: 500
Flags: W
LayerCount: 2
Fore
SplineSet
94 -400 m 1,0,-1
 94 1000 l 1,1,-1
 406 1000 l 1,2,-1
 406 378 l 1,3,-1
 580 378 l 1,4,-1
 580 222 l 1,5,-1
 406 222 l 1,6,-1
 406 -400 l 1,7,-1
 94 -400 l 1,0,-1
EndSplineSet
EndChar

StartChar: dnlightrightupheavybxd
Encoding: 9505 9505 735
Width: 500
Flags: W
LayerCount: 2
Fore
SplineSet
172 -400 m 1,0,-1
 172 144 l 1,1,-1
 94 144 l 1,2,-1
 94 1000 l 1,3,-1
 406 1000 l 1,4,-1
 406 456 l 1,5,-1
 580 456 l 1,6,-1
 580 144 l 1,7,-1
 328 144 l 1,8,-1
 328 -400 l 1,9,-1
 172 -400 l 1,0,-1
EndSplineSet
EndChar

StartChar: uplightrightdnheavybxd
Encoding: 9506 9506 736
Width: 500
Flags: W
LayerCount: 2
Fore
SplineSet
94 -400 m 1,0,-1
 94 456 l 1,1,-1
 172 456 l 1,2,-1
 172 1000 l 1,3,-1
 328 1000 l 1,4,-1
 328 456 l 1,5,-1
 580 456 l 1,6,-1
 580 144 l 1,7,-1
 406 144 l 1,8,-1
 406 -400 l 1,9,-1
 94 -400 l 1,0,-1
EndSplineSet
EndChar

StartChar: heavyvertrightbxd
Encoding: 9507 9507 737
Width: 500
Flags: W
LayerCount: 2
Fore
SplineSet
94 -400 m 1,0,-1
 94 1000 l 1,1,-1
 406 1000 l 1,2,-1
 406 456 l 1,3,-1
 580 456 l 1,4,-1
 580 144 l 1,5,-1
 406 144 l 1,6,-1
 406 -400 l 1,7,-1
 94 -400 l 1,0,-1
EndSplineSet
EndChar

StartChar: lightvertleftbxd
Encoding: 9508 9508 738
Width: 500
Flags: W
LayerCount: 2
Fore
SplineSet
172 -400 m 1,0,-1
 172 222 l 1,1,-1
 -80 222 l 1,2,-1
 -80 378 l 1,3,-1
 172 378 l 1,4,-1
 172 1000 l 1,5,-1
 328 1000 l 1,6,-1
 328 -400 l 1,7,-1
 172 -400 l 1,0,-1
EndSplineSet
EndChar

StartChar: vertlightleftheavybxd
Encoding: 9509 9509 739
Width: 500
Flags: W
LayerCount: 2
Fore
SplineSet
172 -400 m 1,0,-1
 172 144 l 1,1,-1
 -80 144 l 1,2,-1
 -80 456 l 1,3,-1
 172 456 l 1,4,-1
 172 1000 l 1,5,-1
 328 1000 l 1,6,-1
 328 -400 l 1,7,-1
 172 -400 l 1,0,-1
EndSplineSet
EndChar

StartChar: upheavyleftdnlightbxd
Encoding: 9510 9510 740
Width: 500
Flags: W
LayerCount: 2
Fore
SplineSet
172 -400 m 1,0,-1
 172 222 l 1,1,-1
 -80 222 l 1,2,-1
 -80 378 l 1,3,-1
 94 378 l 1,4,-1
 94 1000 l 1,5,-1
 406 1000 l 1,6,-1
 406 222 l 1,7,-1
 328 222 l 1,8,-1
 328 -400 l 1,9,-1
 172 -400 l 1,0,-1
EndSplineSet
EndChar

StartChar: dnheavyleftuplightbxd
Encoding: 9511 9511 741
Width: 500
Flags: W
LayerCount: 2
Fore
SplineSet
94 -400 m 1,0,-1
 94 222 l 1,1,-1
 -80 222 l 1,2,-1
 -80 378 l 1,3,-1
 172 378 l 1,4,-1
 172 1000 l 1,5,-1
 328 1000 l 1,6,-1
 328 378 l 1,7,-1
 406 378 l 1,8,-1
 406 -400 l 1,9,-1
 94 -400 l 1,0,-1
EndSplineSet
EndChar

StartChar: vertheavyleftlightbxd
Encoding: 9512 9512 742
Width: 500
Flags: W
LayerCount: 2
Fore
SplineSet
94 -400 m 1,0,-1
 94 222 l 1,1,-1
 -80 222 l 1,2,-1
 -80 378 l 1,3,-1
 94 378 l 1,4,-1
 94 1000 l 1,5,-1
 406 1000 l 1,6,-1
 406 -400 l 1,7,-1
 94 -400 l 1,0,-1
EndSplineSet
EndChar

StartChar: dnlightleftupheavybxd
Encoding: 9513 9513 743
Width: 500
Flags: W
LayerCount: 2
Fore
SplineSet
172 -400 m 1,0,-1
 172 144 l 1,1,-1
 -80 144 l 1,2,-1
 -80 456 l 1,3,-1
 94 456 l 1,4,-1
 94 1000 l 1,5,-1
 406 1000 l 1,6,-1
 406 144 l 1,7,-1
 328 144 l 1,8,-1
 328 -400 l 1,9,-1
 172 -400 l 1,0,-1
EndSplineSet
EndChar

StartChar: uplightleftdnheavybxd
Encoding: 9514 9514 744
Width: 500
Flags: W
LayerCount: 2
Fore
SplineSet
94 -400 m 1,0,-1
 94 144 l 1,1,-1
 -80 144 l 1,2,-1
 -80 456 l 1,3,-1
 172 456 l 1,4,-1
 172 1000 l 1,5,-1
 328 1000 l 1,6,-1
 328 456 l 1,7,-1
 406 456 l 1,8,-1
 406 -400 l 1,9,-1
 94 -400 l 1,0,-1
EndSplineSet
EndChar

StartChar: heavyvertleftbxd
Encoding: 9515 9515 745
Width: 500
Flags: W
LayerCount: 2
Fore
SplineSet
94 -400 m 1,0,-1
 94 144 l 1,1,-1
 -80 144 l 1,2,-1
 -80 456 l 1,3,-1
 94 456 l 1,4,-1
 94 1000 l 1,5,-1
 406 1000 l 1,6,-1
 406 -400 l 1,7,-1
 94 -400 l 1,0,-1
EndSplineSet
EndChar

StartChar: lightdnhorzbxd
Encoding: 9516 9516 746
Width: 500
Flags: W
LayerCount: 2
Fore
SplineSet
172 -400 m 1,0,-1
 172 222 l 1,1,-1
 -80 222 l 1,2,-1
 -80 378 l 1,3,-1
 580 378 l 1,4,-1
 580 222 l 1,5,-1
 328 222 l 1,6,-1
 328 -400 l 1,7,-1
 172 -400 l 1,0,-1
EndSplineSet
EndChar

StartChar: leftheavyrightdnlightbxd
Encoding: 9517 9517 747
Width: 500
Flags: W
LayerCount: 2
Fore
SplineSet
172 -400 m 1,0,-1
 172 144 l 1,1,-1
 -80 144 l 1,2,-1
 -80 456 l 1,3,-1
 328 456 l 1,4,-1
 328 378 l 1,5,-1
 580 378 l 1,6,-1
 580 222 l 1,7,-1
 328 222 l 1,8,-1
 328 -400 l 1,9,-1
 172 -400 l 1,0,-1
EndSplineSet
EndChar

StartChar: rightheavyleftdnlightbxd
Encoding: 9518 9518 748
Width: 500
Flags: W
LayerCount: 2
Fore
SplineSet
172 -400 m 1,0,-1
 172 222 l 1,1,-1
 -80 222 l 1,2,-1
 -80 378 l 1,3,-1
 172 378 l 1,4,-1
 172 456 l 1,5,-1
 580 456 l 1,6,-1
 580 144 l 1,7,-1
 328 144 l 1,8,-1
 328 -400 l 1,9,-1
 172 -400 l 1,0,-1
EndSplineSet
EndChar

StartChar: dnlighthorzheavybxd
Encoding: 9519 9519 749
Width: 500
Flags: W
LayerCount: 2
Fore
SplineSet
172 -400 m 1,0,-1
 172 144 l 1,1,-1
 -80 144 l 1,2,-1
 -80 456 l 1,3,-1
 580 456 l 1,4,-1
 580 144 l 1,5,-1
 328 144 l 1,6,-1
 328 -400 l 1,7,-1
 172 -400 l 1,0,-1
EndSplineSet
EndChar

StartChar: dnheavyhorzlightbxd
Encoding: 9520 9520 750
Width: 500
Flags: W
LayerCount: 2
Fore
SplineSet
94 -400 m 1,0,-1
 94 222 l 1,1,-1
 -80 222 l 1,2,-1
 -80 378 l 1,3,-1
 580 378 l 1,4,-1
 580 222 l 1,5,-1
 406 222 l 1,6,-1
 406 -400 l 1,7,-1
 94 -400 l 1,0,-1
EndSplineSet
EndChar

StartChar: rightlightleftdnheavybxd
Encoding: 9521 9521 751
Width: 500
Flags: W
LayerCount: 2
Fore
SplineSet
94 -400 m 1,0,-1
 94 144 l 1,1,-1
 -80 144 l 1,2,-1
 -80 456 l 1,3,-1
 406 456 l 1,4,-1
 406 378 l 1,5,-1
 580 378 l 1,6,-1
 580 222 l 1,7,-1
 406 222 l 1,8,-1
 406 -400 l 1,9,-1
 94 -400 l 1,0,-1
EndSplineSet
EndChar

StartChar: leftlightrightdnheavybxd
Encoding: 9522 9522 752
Width: 500
Flags: W
LayerCount: 2
Fore
SplineSet
94 -400 m 1,0,-1
 94 222 l 1,1,-1
 -80 222 l 1,2,-1
 -80 378 l 1,3,-1
 94 378 l 1,4,-1
 94 456 l 1,5,-1
 580 456 l 1,6,-1
 580 144 l 1,7,-1
 406 144 l 1,8,-1
 406 -400 l 1,9,-1
 94 -400 l 1,0,-1
EndSplineSet
EndChar

StartChar: heavydnhorzbxd
Encoding: 9523 9523 753
Width: 500
Flags: W
LayerCount: 2
Fore
SplineSet
94 -400 m 1,0,-1
 94 144 l 1,1,-1
 -80 144 l 1,2,-1
 -80 456 l 1,3,-1
 580 456 l 1,4,-1
 580 144 l 1,5,-1
 406 144 l 1,6,-1
 406 -400 l 1,7,-1
 94 -400 l 1,0,-1
EndSplineSet
EndChar

StartChar: lightuphorzbxd
Encoding: 9524 9524 754
Width: 500
Flags: W
LayerCount: 2
Fore
SplineSet
-80 222 m 1,0,-1
 -80 378 l 1,1,-1
 172 378 l 1,2,-1
 172 1000 l 1,3,-1
 328 1000 l 1,4,-1
 328 378 l 1,5,-1
 580 378 l 1,6,-1
 580 222 l 1,7,-1
 -80 222 l 1,0,-1
EndSplineSet
EndChar

StartChar: leftheavyrightuplightbxd
Encoding: 9525 9525 755
Width: 500
Flags: W
LayerCount: 2
Fore
SplineSet
-80 144 m 1,0,-1
 -80 456 l 1,1,-1
 172 456 l 1,2,-1
 172 1000 l 1,3,-1
 328 1000 l 1,4,-1
 328 378 l 1,5,-1
 580 378 l 1,6,-1
 580 222 l 1,7,-1
 328 222 l 1,8,-1
 328 144 l 1,9,-1
 -80 144 l 1,0,-1
EndSplineSet
EndChar

StartChar: rightheavyleftuplightbxd
Encoding: 9526 9526 756
Width: 500
Flags: W
LayerCount: 2
Fore
SplineSet
172 144 m 1,0,-1
 172 222 l 1,1,-1
 -80 222 l 1,2,-1
 -80 378 l 1,3,-1
 172 378 l 1,4,-1
 172 1000 l 1,5,-1
 328 1000 l 1,6,-1
 328 456 l 1,7,-1
 580 456 l 1,8,-1
 580 144 l 1,9,-1
 172 144 l 1,0,-1
EndSplineSet
EndChar

StartChar: uplighthorzheavybxd
Encoding: 9527 9527 757
Width: 500
Flags: W
LayerCount: 2
Fore
SplineSet
-80 144 m 1,0,-1
 -80 456 l 1,1,-1
 172 456 l 1,2,-1
 172 1000 l 1,3,-1
 328 1000 l 1,4,-1
 328 456 l 1,5,-1
 580 456 l 1,6,-1
 580 144 l 1,7,-1
 -80 144 l 1,0,-1
EndSplineSet
EndChar

StartChar: upheavyhorzlightbxd
Encoding: 9528 9528 758
Width: 500
Flags: W
LayerCount: 2
Fore
SplineSet
-80 222 m 1,0,-1
 -80 378 l 1,1,-1
 94 378 l 1,2,-1
 94 1000 l 1,3,-1
 406 1000 l 1,4,-1
 406 378 l 1,5,-1
 580 378 l 1,6,-1
 580 222 l 1,7,-1
 -80 222 l 1,0,-1
EndSplineSet
EndChar

StartChar: rightlightleftupheavybxd
Encoding: 9529 9529 759
Width: 500
Flags: W
LayerCount: 2
Fore
SplineSet
-80 144 m 1,0,-1
 -80 456 l 1,1,-1
 94 456 l 1,2,-1
 94 1000 l 1,3,-1
 406 1000 l 1,4,-1
 406 378 l 1,5,-1
 580 378 l 1,6,-1
 580 222 l 1,7,-1
 406 222 l 1,8,-1
 406 144 l 1,9,-1
 -80 144 l 1,0,-1
EndSplineSet
EndChar

StartChar: leftlightrightupheavybxd
Encoding: 9530 9530 760
Width: 500
Flags: W
LayerCount: 2
Fore
SplineSet
94 144 m 1,0,-1
 94 222 l 1,1,-1
 -80 222 l 1,2,-1
 -80 378 l 1,3,-1
 94 378 l 1,4,-1
 94 1000 l 1,5,-1
 406 1000 l 1,6,-1
 406 456 l 1,7,-1
 580 456 l 1,8,-1
 580 144 l 1,9,-1
 94 144 l 1,0,-1
EndSplineSet
EndChar

StartChar: heavyuphorzbxd
Encoding: 9531 9531 761
Width: 500
Flags: W
LayerCount: 2
Fore
SplineSet
-80 144 m 1,0,-1
 -80 456 l 1,1,-1
 94 456 l 1,2,-1
 94 1000 l 1,3,-1
 406 1000 l 1,4,-1
 406 456 l 1,5,-1
 580 456 l 1,6,-1
 580 144 l 1,7,-1
 -80 144 l 1,0,-1
EndSplineSet
EndChar

StartChar: lightverthorzbxd
Encoding: 9532 9532 762
Width: 500
Flags: W
LayerCount: 2
Fore
SplineSet
172 -400 m 1,0,-1
 172 222 l 1,1,-1
 -80 222 l 1,2,-1
 -80 378 l 1,3,-1
 172 378 l 1,4,-1
 172 1000 l 1,5,-1
 328 1000 l 1,6,-1
 328 378 l 1,7,-1
 580 378 l 1,8,-1
 580 222 l 1,9,-1
 328 222 l 1,10,-1
 328 -400 l 1,11,-1
 172 -400 l 1,0,-1
EndSplineSet
EndChar

StartChar: leftheavyrightvertlightbxd
Encoding: 9533 9533 763
Width: 500
Flags: W
LayerCount: 2
Fore
SplineSet
172 -400 m 1,0,-1
 172 144 l 1,1,-1
 -80 144 l 1,2,-1
 -80 456 l 1,3,-1
 172 456 l 1,4,-1
 172 1000 l 1,5,-1
 328 1000 l 1,6,-1
 328 378 l 1,7,-1
 580 378 l 1,8,-1
 580 222 l 1,9,-1
 328 222 l 1,10,-1
 328 -400 l 1,11,-1
 172 -400 l 1,0,-1
EndSplineSet
EndChar

StartChar: rightheavyleftvertlightbxd
Encoding: 9534 9534 764
Width: 500
Flags: W
LayerCount: 2
Fore
SplineSet
172 -400 m 1,0,-1
 172 222 l 1,1,-1
 -80 222 l 1,2,-1
 -80 378 l 1,3,-1
 172 378 l 1,4,-1
 172 1000 l 1,5,-1
 328 1000 l 1,6,-1
 328 456 l 1,7,-1
 580 456 l 1,8,-1
 580 144 l 1,9,-1
 328 144 l 1,10,-1
 328 -400 l 1,11,-1
 172 -400 l 1,0,-1
EndSplineSet
EndChar

